<?xml version="1.0" encoding="utf-8" standalone="no"?>
<!DOCTYPE svg PUBLIC "-//W3C//DTD SVG 1.1//EN"
  "http://www.w3.org/Graphics/SVG/1.1/DTD/svg11.dtd">
<svg xmlns:xlink="http://www.w3.org/1999/xlink" width="676.8pt" height="388.8pt" viewBox="0 0 676.8 388.8" xmlns="http://www.w3.org/2000/svg" version="1.1">
 <metadata>
  <rdf:RDF xmlns:dc="http://purl.org/dc/elements/1.1/" xmlns:cc="http://creativecommons.org/ns#" xmlns:rdf="http://www.w3.org/1999/02/22-rdf-syntax-ns#">
   <cc:Work>
    <dc:type rdf:resource="http://purl.org/dc/dcmitype/StillImage"/>
    <dc:date>2026-06-23T19:54:14.421176</dc:date>
    <dc:format>image/svg+xml</dc:format>
    <dc:creator>
     <cc:Agent>
      <dc:title>Matplotlib v3.10.8, https://matplotlib.org/</dc:title>
     </cc:Agent>
    </dc:creator>
   </cc:Work>
  </rdf:RDF>
 </metadata>
 <defs>
  <style type="text/css">*{stroke-linejoin: round; stroke-linecap: butt}</style>
 </defs>
 <g id="figure_1">
  <g id="patch_1">
   <path d="M 0 388.8 
L 676.8 388.8 
L 676.8 0 
L 0 0 
z
" style="fill: #ffffff"/>
  </g>
  <g id="axes_1">
   <g id="patch_2">
    <path d="M 50.6 347.457143 
L 663.652563 347.457143 
L 663.652563 29.057143 
L 50.6 29.057143 
z
" style="fill: #ffffff"/>
   </g>
   <g id="FillBetweenPolyCollection_1">
    <defs>
     <path id="md64accb7ee" d="M 50.6 -164.020524 
L 50.6 -161.505786 
L 62.620638 -149.377338 
L 74.641277 -139.879748 
L 86.661915 -131.579189 
L 98.682554 -125.525954 
L 110.703192 -120.052801 
L 122.723831 -114.70773 
L 134.744469 -110.416227 
L 146.765108 -106.281237 
L 158.785746 -102.424138 
L 170.806385 -98.563185 
L 182.827023 -95.096075 
L 194.847662 -91.926551 
L 206.8683 -88.735033 
L 218.888939 -86.087664 
L 230.909577 -83.420852 
L 242.930216 -81.317021 
L 254.950854 -79.146688 
L 266.971493 -77.451722 
L 278.992131 -75.712698 
L 291.01277 -74.129494 
L 303.033408 -72.719111 
L 315.054047 -71.480806 
L 327.074685 -70.169801 
L 339.095324 -69.213228 
L 351.115962 -68.208861 
L 363.136601 -67.130184 
L 375.157239 -66.334209 
L 387.177878 -65.475599 
L 399.198516 -64.689318 
L 411.219155 -64.076579 
L 423.239793 -63.263868 
L 435.260432 -62.547801 
L 447.28107 -61.922802 
L 459.301709 -61.436138 
L 471.322347 -60.948072 
L 483.342986 -60.346236 
L 495.363624 -59.887779 
L 507.384263 -59.506261 
L 519.404901 -58.933888 
L 531.42554 -58.564622 
L 543.446178 -58.210841 
L 555.466817 -57.898491 
L 567.487455 -57.59862 
L 579.508094 -57.291036 
L 591.528732 -57.03035 
L 603.549371 -56.81457 
L 615.570009 -56.583817 
L 627.590648 -56.327947 
L 639.611286 -56.238809 
L 651.631925 -56.068708 
L 663.652563 -55.815584 
L 663.652563 -57.770642 
L 663.652563 -57.770642 
L 651.631925 -57.856398 
L 639.611286 -57.976546 
L 627.590648 -58.247701 
L 615.570009 -58.457243 
L 603.549371 -58.618928 
L 591.528732 -58.914439 
L 579.508094 -59.121302 
L 567.487455 -59.376044 
L 555.466817 -59.660981 
L 543.446178 -59.944426 
L 531.42554 -60.408527 
L 519.404901 -60.790599 
L 507.384263 -61.193466 
L 495.363624 -61.675278 
L 483.342986 -62.128321 
L 471.322347 -62.485323 
L 459.301709 -63.128976 
L 447.28107 -63.778872 
L 435.260432 -64.405339 
L 423.239793 -64.930593 
L 411.219155 -65.696956 
L 399.198516 -66.492623 
L 387.177878 -67.212135 
L 375.157239 -68.102273 
L 363.136601 -69.081532 
L 351.115962 -70.055511 
L 339.095324 -71.370126 
L 327.074685 -72.387233 
L 315.054047 -73.350322 
L 303.033408 -74.646199 
L 291.01277 -76.011 
L 278.992131 -77.267765 
L 266.971493 -79.325825 
L 254.950854 -80.897407 
L 242.930216 -82.910661 
L 230.909577 -85.292047 
L 218.888939 -87.434721 
L 206.8683 -90.423849 
L 194.847662 -93.406487 
L 182.827023 -96.345103 
L 170.806385 -100.227038 
L 158.785746 -103.676118 
L 146.765108 -107.859662 
L 134.744469 -112.000246 
L 122.723831 -116.255855 
L 110.703192 -121.79428 
L 98.682554 -127.642806 
L 86.661915 -134.733373 
L 74.641277 -143.313354 
L 62.620638 -153.013939 
L 50.6 -164.020524 
z
"/>
    </defs>
    <g clip-path="url(#p2f4111a98c)">
     <use xlink:href="#md64accb7ee" x="0" y="388.8" style="fill: #111111; fill-opacity: 0.16"/>
    </g>
   </g>
   <g id="FillBetweenPolyCollection_2">
    <defs>
     <path id="m2a9812d8f1" d="M 50.6 -184.847548 
L 50.6 -180.697326 
L 62.620638 -167.114498 
L 74.641277 -157.408956 
L 86.661915 -148.447828 
L 98.682554 -140.729681 
L 110.703192 -134.881551 
L 122.723831 -127.88018 
L 134.744469 -122.059102 
L 146.765108 -116.694336 
L 158.785746 -112.026635 
L 170.806385 -107.475463 
L 182.827023 -103.844833 
L 194.847662 -100.5948 
L 206.8683 -97.420508 
L 218.888939 -94.835851 
L 230.909577 -92.436756 
L 242.930216 -90.139151 
L 254.950854 -88.017858 
L 266.971493 -86.121619 
L 278.992131 -84.312636 
L 291.01277 -82.655139 
L 303.033408 -81.085072 
L 315.054047 -79.913746 
L 327.074685 -78.57347 
L 339.095324 -77.47024 
L 351.115962 -76.438886 
L 363.136601 -75.396558 
L 375.157239 -74.503721 
L 387.177878 -73.671678 
L 399.198516 -72.701302 
L 411.219155 -72.113676 
L 423.239793 -71.283962 
L 435.260432 -70.661071 
L 447.28107 -70.11096 
L 459.301709 -69.565977 
L 471.322347 -69.089616 
L 483.342986 -68.561546 
L 495.363624 -68.049895 
L 507.384263 -67.623698 
L 519.404901 -67.145739 
L 531.42554 -66.751907 
L 543.446178 -66.44674 
L 555.466817 -66.097342 
L 567.487455 -65.824027 
L 579.508094 -65.533244 
L 591.528732 -65.312237 
L 603.549371 -65.090802 
L 615.570009 -64.903315 
L 627.590648 -64.690267 
L 639.611286 -64.558736 
L 651.631925 -64.389646 
L 663.652563 -64.215761 
L 663.652563 -66.55591 
L 663.652563 -66.55591 
L 651.631925 -66.660861 
L 639.611286 -66.831618 
L 627.590648 -67.044414 
L 615.570009 -67.254508 
L 603.549371 -67.420664 
L 591.528732 -67.663224 
L 579.508094 -67.925644 
L 567.487455 -68.21446 
L 555.466817 -68.470149 
L 543.446178 -68.767787 
L 531.42554 -69.242819 
L 519.404901 -69.633681 
L 507.384263 -69.998836 
L 495.363624 -70.393073 
L 483.342986 -70.909198 
L 471.322347 -71.390784 
L 459.301709 -71.960485 
L 447.28107 -72.554983 
L 435.260432 -73.188378 
L 423.239793 -73.899015 
L 411.219155 -74.690001 
L 399.198516 -75.489627 
L 387.177878 -76.31059 
L 375.157239 -77.296407 
L 363.136601 -78.264727 
L 351.115962 -79.328109 
L 339.095324 -80.655445 
L 327.074685 -81.843675 
L 315.054047 -82.992515 
L 303.033408 -84.49931 
L 291.01277 -86.018074 
L 278.992131 -87.721595 
L 266.971493 -89.851251 
L 254.950854 -91.581124 
L 242.930216 -94.11082 
L 230.909577 -96.706381 
L 218.888939 -99.317469 
L 206.8683 -102.691982 
L 194.847662 -105.960369 
L 182.827023 -109.659716 
L 170.806385 -113.751665 
L 158.785746 -117.9141 
L 146.765108 -122.425303 
L 134.744469 -127.301525 
L 122.723831 -133.136264 
L 110.703192 -138.584371 
L 98.682554 -145.515414 
L 86.661915 -153.342435 
L 74.641277 -161.927969 
L 62.620638 -172.651007 
L 50.6 -184.847548 
z
"/>
    </defs>
    <g clip-path="url(#p2f4111a98c)">
     <use xlink:href="#m2a9812d8f1" x="0" y="388.8" style="fill: #1f77b4; fill-opacity: 0.1"/>
    </g>
   </g>
   <g id="FillBetweenPolyCollection_3">
    <defs>
     <path id="mc0c43b7d7c" d="M 50.6 -189.835561 
L 50.6 -185.945902 
L 62.620638 -172.517314 
L 74.641277 -161.691072 
L 86.661915 -152.686425 
L 98.682554 -144.038335 
L 110.703192 -137.280292 
L 122.723831 -130.114789 
L 134.744469 -123.521414 
L 146.765108 -118.248037 
L 158.785746 -113.632574 
L 170.806385 -109.240404 
L 182.827023 -105.698058 
L 194.847662 -102.093768 
L 206.8683 -99.026155 
L 218.888939 -96.146314 
L 230.909577 -93.592459 
L 242.930216 -91.457056 
L 254.950854 -89.342635 
L 266.971493 -87.377995 
L 278.992131 -85.497167 
L 291.01277 -83.87326 
L 303.033408 -82.337714 
L 315.054047 -81.037422 
L 327.074685 -79.509808 
L 339.095324 -78.443055 
L 351.115962 -77.363098 
L 363.136601 -76.239097 
L 375.157239 -75.199556 
L 387.177878 -74.33666 
L 399.198516 -73.563086 
L 411.219155 -72.834456 
L 423.239793 -72.052337 
L 435.260432 -71.471281 
L 447.28107 -70.796283 
L 459.301709 -70.173386 
L 471.322347 -69.633589 
L 483.342986 -69.131674 
L 495.363624 -68.623674 
L 507.384263 -68.134401 
L 519.404901 -67.717064 
L 531.42554 -67.365784 
L 543.446178 -67.041504 
L 555.466817 -66.666344 
L 567.487455 -66.373499 
L 579.508094 -66.074745 
L 591.528732 -65.813443 
L 603.549371 -65.593081 
L 615.570009 -65.339922 
L 627.590648 -65.143149 
L 639.611286 -65.029406 
L 651.631925 -64.873614 
L 663.652563 -64.689905 
L 663.652563 -66.588045 
L 663.652563 -66.588045 
L 651.631925 -66.712487 
L 639.611286 -66.884458 
L 627.590648 -67.111412 
L 615.570009 -67.321837 
L 603.549371 -67.506011 
L 591.528732 -67.781944 
L 579.508094 -68.036132 
L 567.487455 -68.307604 
L 555.466817 -68.523438 
L 543.446178 -68.884592 
L 531.42554 -69.247163 
L 519.404901 -69.66519 
L 507.384263 -70.095472 
L 495.363624 -70.516122 
L 483.342986 -70.968027 
L 471.322347 -71.54536 
L 459.301709 -72.087618 
L 447.28107 -72.846365 
L 435.260432 -73.504032 
L 423.239793 -74.266993 
L 411.219155 -75.002612 
L 399.198516 -75.855461 
L 387.177878 -76.647409 
L 375.157239 -77.618224 
L 363.136601 -78.741879 
L 351.115962 -79.731263 
L 339.095324 -81.250511 
L 327.074685 -82.420191 
L 315.054047 -83.587184 
L 303.033408 -85.17004 
L 291.01277 -86.780319 
L 278.992131 -88.501925 
L 266.971493 -90.594324 
L 254.950854 -92.517001 
L 242.930216 -94.944314 
L 230.909577 -97.621574 
L 218.888939 -100.240043 
L 206.8683 -103.386131 
L 194.847662 -106.756076 
L 182.827023 -110.668006 
L 170.806385 -115.091352 
L 158.785746 -119.259944 
L 146.765108 -124.397108 
L 134.744469 -129.516336 
L 122.723831 -135.643087 
L 110.703192 -141.802767 
L 98.682554 -149.347981 
L 86.661915 -157.314944 
L 74.641277 -166.255207 
L 62.620638 -177.237064 
L 50.6 -189.835561 
z
"/>
    </defs>
    <g clip-path="url(#p2f4111a98c)">
     <use xlink:href="#mc0c43b7d7c" x="0" y="388.8" style="fill: #1f77b4; fill-opacity: 0.08"/>
    </g>
   </g>
   <g id="FillBetweenPolyCollection_4">
    <defs>
     <path id="ma325af7992" d="M 50.6 -195.127387 
L 50.6 -190.136446 
L 62.620638 -173.487867 
L 74.641277 -158.96 
L 86.661915 -147.530121 
L 98.682554 -138.06361 
L 110.703192 -130.082931 
L 122.723831 -121.614964 
L 134.744469 -114.424586 
L 146.765108 -108.333635 
L 158.785746 -103.456626 
L 170.806385 -98.647917 
L 182.827023 -94.975594 
L 194.847662 -91.842799 
L 206.8683 -88.93139 
L 218.888939 -86.698718 
L 230.909577 -84.34421 
L 242.930216 -82.226141 
L 254.950854 -80.505417 
L 266.971493 -78.61349 
L 278.992131 -77.034705 
L 291.01277 -75.42832 
L 303.033408 -74.118576 
L 315.054047 -72.925451 
L 327.074685 -71.680883 
L 339.095324 -70.630054 
L 351.115962 -69.811786 
L 363.136601 -68.779237 
L 375.157239 -67.917981 
L 387.177878 -67.06064 
L 399.198516 -66.327489 
L 411.219155 -65.642054 
L 423.239793 -65.058422 
L 435.260432 -64.397186 
L 447.28107 -63.83447 
L 459.301709 -63.300907 
L 471.322347 -62.807151 
L 483.342986 -62.326347 
L 495.363624 -61.819662 
L 507.384263 -61.476733 
L 519.404901 -61.086989 
L 531.42554 -60.671057 
L 543.446178 -60.403005 
L 555.466817 -60.085839 
L 567.487455 -59.806807 
L 579.508094 -59.559333 
L 591.528732 -59.291544 
L 603.549371 -59.14877 
L 615.570009 -58.932411 
L 627.590648 -58.723666 
L 639.611286 -58.581431 
L 651.631925 -58.426694 
L 663.652563 -58.244241 
L 663.652563 -60.473291 
L 663.652563 -60.473291 
L 651.631925 -60.599034 
L 639.611286 -60.735095 
L 627.590648 -60.949611 
L 615.570009 -61.132829 
L 603.549371 -61.34059 
L 591.528732 -61.523769 
L 579.508094 -61.746728 
L 567.487455 -61.98013 
L 555.466817 -62.221744 
L 543.446178 -62.522446 
L 531.42554 -62.960789 
L 519.404901 -63.321084 
L 507.384263 -63.694965 
L 495.363624 -64.125276 
L 483.342986 -64.55179 
L 471.322347 -65.004491 
L 459.301709 -65.469805 
L 447.28107 -66.167712 
L 435.260432 -66.780328 
L 423.239793 -67.319728 
L 411.219155 -68.113874 
L 399.198516 -68.828195 
L 387.177878 -69.637476 
L 375.157239 -70.570127 
L 363.136601 -71.429115 
L 351.115962 -72.310254 
L 339.095324 -73.539767 
L 327.074685 -74.565988 
L 315.054047 -75.826707 
L 303.033408 -77.149543 
L 291.01277 -78.461429 
L 278.992131 -80.097622 
L 266.971493 -81.815181 
L 254.950854 -83.714157 
L 242.930216 -86.008652 
L 230.909577 -88.316516 
L 218.888939 -90.815741 
L 206.8683 -94.063706 
L 194.847662 -97.260627 
L 182.827023 -101.277864 
L 170.806385 -105.454142 
L 158.785746 -110.249697 
L 146.765108 -115.512702 
L 134.744469 -120.836759 
L 122.723831 -127.640036 
L 110.703192 -134.294443 
L 98.682554 -142.822306 
L 86.661915 -152.71735 
L 74.641277 -163.868119 
L 62.620638 -177.360414 
L 50.6 -195.127387 
z
"/>
    </defs>
    <g clip-path="url(#p2f4111a98c)">
     <use xlink:href="#ma325af7992" x="0" y="388.8" style="fill: #2ca02c; fill-opacity: 0.1"/>
    </g>
   </g>
   <g id="FillBetweenPolyCollection_5">
    <defs>
     <path id="m1bdbb341ce" d="M 50.6 -204.709114 
L 50.6 -199.775273 
L 62.620638 -181.988361 
L 74.641277 -167.591158 
L 86.661915 -155.719832 
L 98.682554 -145.903897 
L 110.703192 -138.200721 
L 122.723831 -130.013003 
L 134.744469 -122.356457 
L 146.765108 -116.181797 
L 158.785746 -110.537033 
L 170.806385 -105.355891 
L 182.827023 -101.02453 
L 194.847662 -97.336669 
L 206.8683 -94.093041 
L 218.888939 -91.122943 
L 230.909577 -88.410624 
L 242.930216 -85.946122 
L 254.950854 -83.941985 
L 266.971493 -82.04009 
L 278.992131 -80.08777 
L 291.01277 -78.402364 
L 303.033408 -76.924175 
L 315.054047 -75.62766 
L 327.074685 -74.350029 
L 339.095324 -73.099266 
L 351.115962 -72.013486 
L 363.136601 -70.961512 
L 375.157239 -69.991773 
L 387.177878 -69.008269 
L 399.198516 -68.194454 
L 411.219155 -67.580926 
L 423.239793 -66.813329 
L 435.260432 -66.07981 
L 447.28107 -65.481276 
L 459.301709 -64.963235 
L 471.322347 -64.480447 
L 483.342986 -63.97288 
L 495.363624 -63.484143 
L 507.384263 -63.048403 
L 519.404901 -62.587389 
L 531.42554 -62.143048 
L 543.446178 -61.786641 
L 555.466817 -61.408691 
L 567.487455 -61.153424 
L 579.508094 -60.865931 
L 591.528732 -60.606265 
L 603.549371 -60.389574 
L 615.570009 -60.173185 
L 627.590648 -59.970541 
L 639.611286 -59.816401 
L 651.631925 -59.649371 
L 663.652563 -59.47412 
L 663.652563 -61.167452 
L 663.652563 -61.167452 
L 651.631925 -61.316513 
L 639.611286 -61.458913 
L 627.590648 -61.681568 
L 615.570009 -61.885057 
L 603.549371 -62.092676 
L 591.528732 -62.320011 
L 579.508094 -62.543727 
L 567.487455 -62.780135 
L 555.466817 -63.061176 
L 543.446178 -63.355096 
L 531.42554 -63.783219 
L 519.404901 -64.181335 
L 507.384263 -64.56723 
L 495.363624 -65.009643 
L 483.342986 -65.437298 
L 471.322347 -66.021292 
L 459.301709 -66.524698 
L 447.28107 -67.274693 
L 435.260432 -67.91332 
L 423.239793 -68.533704 
L 411.219155 -69.277987 
L 399.198516 -70.065504 
L 387.177878 -70.851872 
L 375.157239 -71.811238 
L 363.136601 -72.821732 
L 351.115962 -73.794477 
L 339.095324 -75.08139 
L 327.074685 -76.22319 
L 315.054047 -77.515632 
L 303.033408 -78.903774 
L 291.01277 -80.274376 
L 278.992131 -81.956277 
L 266.971493 -83.774318 
L 254.950854 -85.764399 
L 242.930216 -88.096564 
L 230.909577 -90.277951 
L 218.888939 -92.95349 
L 206.8683 -96.213653 
L 194.847662 -99.324448 
L 182.827023 -103.450049 
L 170.806385 -107.671462 
L 158.785746 -112.639224 
L 146.765108 -118.469843 
L 134.744469 -124.931425 
L 122.723831 -132.936413 
L 110.703192 -140.71238 
L 98.682554 -150.395319 
L 86.661915 -160.478156 
L 74.641277 -172.582517 
L 62.620638 -187.177187 
L 50.6 -204.709114 
z
"/>
    </defs>
    <g clip-path="url(#p2f4111a98c)">
     <use xlink:href="#m1bdbb341ce" x="0" y="388.8" style="fill: #2ca02c; fill-opacity: 0.08"/>
    </g>
   </g>
   <g id="FillBetweenPolyCollection_6">
    <defs>
     <path id="md3142ebc50" d="M 50.6 -284.972523 
L 50.6 -274.818783 
L 62.620638 -241.862725 
L 74.641277 -217.742847 
L 86.661915 -198.547823 
L 98.682554 -182.680865 
L 110.703192 -170.232796 
L 122.723831 -158.928051 
L 134.744469 -149.611542 
L 146.765108 -141.63138 
L 158.785746 -134.782078 
L 170.806385 -128.970977 
L 182.827023 -123.901545 
L 194.847662 -119.069641 
L 206.8683 -114.941626 
L 218.888939 -111.305489 
L 230.909577 -107.591859 
L 242.930216 -104.740469 
L 254.950854 -101.950189 
L 266.971493 -99.104897 
L 278.992131 -96.401246 
L 291.01277 -93.886586 
L 303.033408 -91.809803 
L 315.054047 -89.573164 
L 327.074685 -87.501283 
L 339.095324 -85.724748 
L 351.115962 -84.046098 
L 363.136601 -82.64764 
L 375.157239 -81.134401 
L 387.177878 -79.731818 
L 399.198516 -78.593943 
L 411.219155 -77.623874 
L 423.239793 -76.60542 
L 435.260432 -75.76946 
L 447.28107 -74.792072 
L 459.301709 -74.045168 
L 471.322347 -73.280821 
L 483.342986 -72.695576 
L 495.363624 -72.104727 
L 507.384263 -71.490097 
L 519.404901 -70.890108 
L 531.42554 -70.465715 
L 543.446178 -70.020073 
L 555.466817 -69.576432 
L 567.487455 -69.205759 
L 579.508094 -68.897727 
L 591.528732 -68.59471 
L 603.549371 -68.396304 
L 615.570009 -68.098983 
L 627.590648 -67.781316 
L 639.611286 -67.602247 
L 651.631925 -67.431562 
L 663.652563 -67.172702 
L 663.652563 -69.935318 
L 663.652563 -69.935318 
L 651.631925 -70.135764 
L 639.611286 -70.351448 
L 627.590648 -70.65555 
L 615.570009 -70.892676 
L 603.549371 -71.181588 
L 591.528732 -71.473565 
L 579.508094 -71.826582 
L 567.487455 -72.164256 
L 555.466817 -72.606172 
L 543.446178 -73.028756 
L 531.42554 -73.510779 
L 519.404901 -74.080982 
L 507.384263 -74.610016 
L 495.363624 -75.202538 
L 483.342986 -75.831337 
L 471.322347 -76.550715 
L 459.301709 -77.269568 
L 447.28107 -78.22522 
L 435.260432 -79.076506 
L 423.239793 -80.014479 
L 411.219155 -81.138398 
L 399.198516 -82.258658 
L 387.177878 -83.544575 
L 375.157239 -84.668284 
L 363.136601 -86.138366 
L 351.115962 -87.680343 
L 339.095324 -89.171109 
L 327.074685 -90.746821 
L 315.054047 -92.757426 
L 303.033408 -94.448266 
L 291.01277 -96.685969 
L 278.992131 -99.156155 
L 266.971493 -101.693089 
L 254.950854 -104.275069 
L 242.930216 -107.642617 
L 230.909577 -111.092971 
L 218.888939 -114.282877 
L 206.8683 -118.245717 
L 194.847662 -122.380367 
L 182.827023 -127.385677 
L 170.806385 -132.474311 
L 158.785746 -138.723211 
L 146.765108 -145.988131 
L 134.744469 -153.885561 
L 122.723831 -163.322778 
L 110.703192 -175.477521 
L 98.682554 -189.218219 
L 86.661915 -205.649317 
L 74.641277 -226.129891 
L 62.620638 -251.894257 
L 50.6 -284.972523 
z
"/>
    </defs>
    <g clip-path="url(#p2f4111a98c)">
     <use xlink:href="#md3142ebc50" x="0" y="388.8" style="fill: #ff7f0e; fill-opacity: 0.08"/>
    </g>
   </g>
   <g id="FillBetweenPolyCollection_7">
    <defs>
     <path id="md79d81416e" d="M 50.6 -301.3142 
L 50.6 -285.4658 
L 62.620638 -249.067146 
L 74.641277 -223.203158 
L 86.661915 -202.375008 
L 98.682554 -185.684975 
L 110.703192 -172.420121 
L 122.723831 -160.941349 
L 134.744469 -150.7919 
L 146.765108 -142.49092 
L 158.785746 -135.499293 
L 170.806385 -128.911055 
L 182.827023 -124.061308 
L 194.847662 -119.058051 
L 206.8683 -114.660691 
L 218.888939 -110.77947 
L 230.909577 -106.98885 
L 242.930216 -103.85896 
L 254.950854 -100.467035 
L 266.971493 -97.625514 
L 278.992131 -94.84493 
L 291.01277 -92.042792 
L 303.033408 -89.940912 
L 315.054047 -87.663838 
L 327.074685 -85.663921 
L 339.095324 -84.0032 
L 351.115962 -82.408362 
L 363.136601 -81.025977 
L 375.157239 -79.663797 
L 387.177878 -78.361507 
L 399.198516 -77.146094 
L 411.219155 -76.232077 
L 423.239793 -75.290181 
L 435.260432 -74.473962 
L 447.28107 -73.573134 
L 459.301709 -72.784484 
L 471.322347 -72.127352 
L 483.342986 -71.53076 
L 495.363624 -70.908326 
L 507.384263 -70.44017 
L 519.404901 -69.940158 
L 531.42554 -69.492076 
L 543.446178 -69.075369 
L 555.466817 -68.562369 
L 567.487455 -68.237053 
L 579.508094 -67.964533 
L 591.528732 -67.692096 
L 603.549371 -67.505843 
L 615.570009 -67.222243 
L 627.590648 -66.919773 
L 639.611286 -66.72341 
L 651.631925 -66.605198 
L 663.652563 -66.357523 
L 663.652563 -69.239905 
L 663.652563 -69.239905 
L 651.631925 -69.438776 
L 639.611286 -69.640735 
L 627.590648 -69.89952 
L 615.570009 -70.1463 
L 603.549371 -70.435357 
L 591.528732 -70.70381 
L 579.508094 -71.031212 
L 567.487455 -71.350247 
L 555.466817 -71.741568 
L 543.446178 -72.179133 
L 531.42554 -72.677688 
L 519.404901 -73.13929 
L 507.384263 -73.714884 
L 495.363624 -74.300755 
L 483.342986 -74.930239 
L 471.322347 -75.624183 
L 459.301709 -76.223854 
L 447.28107 -77.215157 
L 435.260432 -78.115222 
L 423.239793 -79.069574 
L 411.219155 -80.115042 
L 399.198516 -81.281353 
L 387.177878 -82.491803 
L 375.157239 -83.818701 
L 363.136601 -85.376908 
L 351.115962 -86.937905 
L 339.095324 -88.530922 
L 327.074685 -90.119809 
L 315.054047 -92.199669 
L 303.033408 -94.17683 
L 291.01277 -96.328074 
L 278.992131 -98.741447 
L 266.971493 -101.45022 
L 254.950854 -104.186834 
L 242.930216 -107.348761 
L 230.909577 -110.817762 
L 218.888939 -114.588195 
L 206.8683 -118.871447 
L 194.847662 -123.155088 
L 182.827023 -128.438079 
L 170.806385 -133.853359 
L 158.785746 -140.252618 
L 146.765108 -148.097728 
L 134.744469 -156.486258 
L 122.723831 -167.215692 
L 110.703192 -179.283493 
L 98.682554 -193.903314 
L 86.661915 -211.811323 
L 74.641277 -235.03628 
L 62.620638 -263.287703 
L 50.6 -301.3142 
z
"/>
    </defs>
    <g clip-path="url(#p2f4111a98c)">
     <use xlink:href="#md79d81416e" x="0" y="388.8" style="fill: #ff7f0e; fill-opacity: 0.08"/>
    </g>
   </g>
   <g id="FillBetweenPolyCollection_8">
    <defs>
     <path id="m2ea636281b" d="M 50.6 -312.76646 
L 50.6 -301.715863 
L 62.620638 -278.799982 
L 74.641277 -261.139416 
L 86.661915 -245.716854 
L 98.682554 -231.889142 
L 110.703192 -222.652243 
L 122.723831 -210.854556 
L 134.744469 -202.30397 
L 146.765108 -194.317285 
L 158.785746 -187.306332 
L 170.806385 -180.896711 
L 182.827023 -174.621456 
L 194.847662 -169.78146 
L 206.8683 -164.988755 
L 218.888939 -160.419388 
L 230.909577 -156.684839 
L 242.930216 -152.997302 
L 254.950854 -149.362222 
L 266.971493 -146.398951 
L 278.992131 -143.099063 
L 291.01277 -140.429271 
L 303.033408 -137.954716 
L 315.054047 -135.413604 
L 327.074685 -133.249008 
L 339.095324 -131.211066 
L 351.115962 -129.269874 
L 363.136601 -127.472349 
L 375.157239 -125.760357 
L 387.177878 -124.245284 
L 399.198516 -122.753286 
L 411.219155 -121.395587 
L 423.239793 -119.970842 
L 435.260432 -118.792664 
L 447.28107 -117.630153 
L 459.301709 -116.523378 
L 471.322347 -115.56954 
L 483.342986 -114.587398 
L 495.363624 -113.659317 
L 507.384263 -112.803931 
L 519.404901 -111.998787 
L 531.42554 -111.240903 
L 543.446178 -110.533532 
L 555.466817 -109.852117 
L 567.487455 -109.229307 
L 579.508094 -108.602656 
L 591.528732 -108.060627 
L 603.549371 -107.54229 
L 615.570009 -107.018116 
L 627.590648 -106.515661 
L 639.611286 -106.051711 
L 651.631925 -105.572673 
L 663.652563 -105.161684 
L 663.652563 -108.161861 
L 663.652563 -108.161861 
L 651.631925 -108.595118 
L 639.611286 -109.028852 
L 627.590648 -109.501606 
L 615.570009 -109.999222 
L 603.549371 -110.494264 
L 591.528732 -111.045793 
L 579.508094 -111.574228 
L 567.487455 -112.169741 
L 555.466817 -112.794069 
L 543.446178 -113.51522 
L 531.42554 -114.192828 
L 519.404901 -114.945427 
L 507.384263 -115.751948 
L 495.363624 -116.577966 
L 483.342986 -117.465232 
L 471.322347 -118.419738 
L 459.301709 -119.494739 
L 447.28107 -120.631033 
L 435.260432 -121.785922 
L 423.239793 -123.020307 
L 411.219155 -124.353142 
L 399.198516 -125.718735 
L 387.177878 -127.28228 
L 375.157239 -128.907147 
L 363.136601 -130.619831 
L 351.115962 -132.553411 
L 339.095324 -134.621285 
L 327.074685 -136.690182 
L 315.054047 -138.982391 
L 303.033408 -141.434659 
L 291.01277 -144.299084 
L 278.992131 -146.953713 
L 266.971493 -149.731881 
L 254.950854 -153.20882 
L 242.930216 -157.13502 
L 230.909577 -160.831282 
L 218.888939 -165.319718 
L 206.8683 -169.734746 
L 194.847662 -174.795737 
L 182.827023 -180.342089 
L 170.806385 -186.227519 
L 158.785746 -192.757819 
L 146.765108 -199.478691 
L 134.744469 -207.576837 
L 122.723831 -217.045433 
L 110.703192 -227.175836 
L 98.682554 -239.163866 
L 86.661915 -254.153597 
L 74.641277 -270.71106 
L 62.620638 -288.88265 
L 50.6 -312.76646 
z
"/>
    </defs>
    <g clip-path="url(#p2f4111a98c)">
     <use xlink:href="#m2ea636281b" x="0" y="388.8" style="fill: #8c564b; fill-opacity: 0.06"/>
    </g>
   </g>
   <g id="FillBetweenPolyCollection_9">
    <defs>
     <path id="mb77469c659" d="M 50.6 -327.58956 
L 50.6 -315.315451 
L 62.620638 -292.942618 
L 74.641277 -271.569813 
L 86.661915 -256.524972 
L 98.682554 -241.51843 
L 110.703192 -230.945643 
L 122.723831 -217.732664 
L 134.744469 -208.845217 
L 146.765108 -200.376043 
L 158.785746 -193.093842 
L 170.806385 -187.197915 
L 182.827023 -180.283063 
L 194.847662 -175.959709 
L 206.8683 -170.848782 
L 218.888939 -165.835313 
L 230.909577 -162.125177 
L 242.930216 -158.340413 
L 254.950854 -154.67186 
L 266.971493 -151.364128 
L 278.992131 -148.152001 
L 291.01277 -145.373298 
L 303.033408 -142.764779 
L 315.054047 -140.288172 
L 327.074685 -138.034246 
L 339.095324 -135.935815 
L 351.115962 -133.980477 
L 363.136601 -131.949472 
L 375.157239 -130.221075 
L 387.177878 -128.561788 
L 399.198516 -127.03039 
L 411.219155 -125.583266 
L 423.239793 -124.177207 
L 435.260432 -122.905595 
L 447.28107 -121.758031 
L 459.301709 -120.602849 
L 471.322347 -119.544167 
L 483.342986 -118.574898 
L 495.363624 -117.615168 
L 507.384263 -116.721968 
L 519.404901 -115.838931 
L 531.42554 -115.060647 
L 543.446178 -114.326344 
L 555.466817 -113.590674 
L 567.487455 -112.939647 
L 579.508094 -112.299698 
L 591.528732 -111.713929 
L 603.549371 -111.186841 
L 615.570009 -110.642419 
L 627.590648 -110.125137 
L 639.611286 -109.654049 
L 651.631925 -109.154943 
L 663.652563 -108.720075 
L 663.652563 -112.049261 
L 663.652563 -112.049261 
L 651.631925 -112.508123 
L 639.611286 -112.966815 
L 627.590648 -113.489463 
L 615.570009 -114.009324 
L 603.549371 -114.555021 
L 591.528732 -115.131323 
L 579.508094 -115.671411 
L 567.487455 -116.332044 
L 555.466817 -116.992405 
L 543.446178 -117.728806 
L 531.42554 -118.511217 
L 519.404901 -119.357395 
L 507.384263 -120.173298 
L 495.363624 -121.090691 
L 483.342986 -122.041214 
L 471.322347 -123.086485 
L 459.301709 -124.192943 
L 447.28107 -125.431198 
L 435.260432 -126.671471 
L 423.239793 -127.920947 
L 411.219155 -129.373203 
L 399.198516 -130.80527 
L 387.177878 -132.420188 
L 375.157239 -134.117507 
L 363.136601 -135.983378 
L 351.115962 -137.940017 
L 339.095324 -140.16046 
L 327.074685 -142.378783 
L 315.054047 -144.648219 
L 303.033408 -147.342754 
L 291.01277 -150.207265 
L 278.992131 -152.980781 
L 266.971493 -156.026827 
L 254.950854 -159.608138 
L 242.930216 -163.615555 
L 230.909577 -167.483549 
L 218.888939 -171.714438 
L 206.8683 -176.623072 
L 194.847662 -182.163098 
L 182.827023 -188.0131 
L 170.806385 -193.504873 
L 158.785746 -200.52363 
L 146.765108 -208.024552 
L 134.744469 -217.559521 
L 122.723831 -226.359608 
L 110.703192 -237.883112 
L 98.682554 -251.968675 
L 86.661915 -268.187188 
L 74.641277 -284.274183 
L 62.620638 -304.193445 
L 50.6 -327.58956 
z
"/>
    </defs>
    <g clip-path="url(#p2f4111a98c)">
     <use xlink:href="#mb77469c659" x="0" y="388.8" style="fill: #8c564b; fill-opacity: 0.06"/>
    </g>
   </g>
   <g id="FillBetweenPolyCollection_10">
    <defs>
     <path id="ma65eaf021a" d="M 50.6 -320.181327 
L 50.6 -314.069874 
L 62.620638 -292.156324 
L 74.641277 -275.761777 
L 86.661915 -261.155357 
L 98.682554 -248.799736 
L 110.703192 -237.00124 
L 122.723831 -227.733519 
L 134.744469 -217.621003 
L 146.765108 -209.716569 
L 158.785746 -202.592571 
L 170.806385 -195.893058 
L 182.827023 -190.992456 
L 194.847662 -185.250521 
L 206.8683 -179.505717 
L 218.888939 -175.135238 
L 230.909577 -170.939367 
L 242.930216 -166.936835 
L 254.950854 -163.227478 
L 266.971493 -159.983835 
L 278.992131 -156.574672 
L 291.01277 -153.522472 
L 303.033408 -151.083781 
L 315.054047 -148.547368 
L 327.074685 -146.135279 
L 339.095324 -144.38601 
L 351.115962 -142.063354 
L 363.136601 -140.103642 
L 375.157239 -138.232531 
L 387.177878 -136.661841 
L 399.198516 -134.982294 
L 411.219155 -133.790502 
L 423.239793 -132.384074 
L 435.260432 -131.132061 
L 447.28107 -129.828598 
L 459.301709 -128.698084 
L 471.322347 -127.815111 
L 483.342986 -126.847144 
L 495.363624 -125.972576 
L 507.384263 -125.289123 
L 519.404901 -124.46957 
L 531.42554 -123.79165 
L 543.446178 -123.109928 
L 555.466817 -122.522515 
L 567.487455 -122.046693 
L 579.508094 -121.471391 
L 591.528732 -120.982333 
L 603.549371 -120.643029 
L 615.570009 -120.205604 
L 627.590648 -119.873219 
L 639.611286 -119.556468 
L 651.631925 -119.181312 
L 663.652563 -118.881105 
L 663.652563 -122.372143 
L 663.652563 -122.372143 
L 651.631925 -122.625605 
L 639.611286 -122.874001 
L 627.590648 -123.231517 
L 615.570009 -123.719093 
L 603.549371 -124.089688 
L 591.528732 -124.592604 
L 579.508094 -124.898306 
L 567.487455 -125.357653 
L 555.466817 -125.890354 
L 543.446178 -126.602157 
L 531.42554 -127.149282 
L 519.404901 -127.940843 
L 507.384263 -128.566887 
L 495.363624 -129.371529 
L 483.342986 -130.340714 
L 471.322347 -131.362196 
L 459.301709 -132.343621 
L 447.28107 -133.538268 
L 435.260432 -134.631799 
L 423.239793 -135.646303 
L 411.219155 -137.173659 
L 399.198516 -138.376494 
L 387.177878 -140.032229 
L 375.157239 -141.499835 
L 363.136601 -143.33968 
L 351.115962 -145.394602 
L 339.095324 -147.36938 
L 327.074685 -149.487323 
L 315.054047 -151.733797 
L 303.033408 -153.976507 
L 291.01277 -157.009569 
L 278.992131 -159.599317 
L 266.971493 -162.799421 
L 254.950854 -165.733878 
L 242.930216 -170.304331 
L 230.909577 -173.832495 
L 218.888939 -177.654098 
L 206.8683 -182.800926 
L 194.847662 -187.197705 
L 182.827023 -192.488694 
L 170.806385 -198.781642 
L 158.785746 -205.452022 
L 146.765108 -213.303541 
L 134.744469 -220.640717 
L 122.723831 -229.956755 
L 110.703192 -240.35194 
L 98.682554 -251.480164 
L 86.661915 -265.236515 
L 74.641277 -280.285789 
L 62.620638 -298.758919 
L 50.6 -320.181327 
z
"/>
    </defs>
    <g clip-path="url(#p2f4111a98c)">
     <use xlink:href="#ma65eaf021a" x="0" y="388.8" style="fill: #17becf; fill-opacity: 0.06"/>
    </g>
   </g>
   <g id="FillBetweenPolyCollection_11">
    <defs>
     <path id="m3348cfbeac" d="M 50.6 -345.27013 
L 50.6 -334.840405 
L 62.620638 -308.526347 
L 74.641277 -288.657103 
L 86.661915 -270.936519 
L 98.682554 -256.247434 
L 110.703192 -243.825321 
L 122.723831 -232.131088 
L 134.744469 -223.301119 
L 146.765108 -214.46424 
L 158.785746 -206.487643 
L 170.806385 -199.234111 
L 182.827023 -194.051094 
L 194.847662 -188.30712 
L 206.8683 -182.779775 
L 218.888939 -177.855128 
L 230.909577 -173.813292 
L 242.930216 -169.549033 
L 254.950854 -166.01493 
L 266.971493 -162.378024 
L 278.992131 -159.176494 
L 291.01277 -156.387504 
L 303.033408 -153.746083 
L 315.054047 -150.986462 
L 327.074685 -148.655619 
L 339.095324 -146.874482 
L 351.115962 -144.554685 
L 363.136601 -142.595774 
L 375.157239 -140.795308 
L 387.177878 -139.186372 
L 399.198516 -137.607703 
L 411.219155 -136.320205 
L 423.239793 -134.92392 
L 435.260432 -133.659817 
L 447.28107 -132.549663 
L 459.301709 -131.174281 
L 471.322347 -130.277541 
L 483.342986 -129.378873 
L 495.363624 -128.507816 
L 507.384263 -127.725476 
L 519.404901 -126.940007 
L 531.42554 -126.193369 
L 543.446178 -125.551044 
L 555.466817 -124.927218 
L 567.487455 -124.461911 
L 579.508094 -123.899067 
L 591.528732 -123.399228 
L 603.549371 -123.013399 
L 615.570009 -122.580462 
L 627.590648 -122.256999 
L 639.611286 -121.915978 
L 651.631925 -121.571744 
L 663.652563 -121.211655 
L 663.652563 -125.384962 
L 663.652563 -125.384962 
L 651.631925 -125.630527 
L 639.611286 -125.990622 
L 627.590648 -126.327734 
L 615.570009 -126.833077 
L 603.549371 -127.160855 
L 591.528732 -127.638465 
L 579.508094 -127.938554 
L 567.487455 -128.500142 
L 555.466817 -129.032468 
L 543.446178 -129.620115 
L 531.42554 -130.344247 
L 519.404901 -131.005629 
L 507.384263 -131.644763 
L 495.363624 -132.459016 
L 483.342986 -133.444798 
L 471.322347 -134.426569 
L 459.301709 -135.541615 
L 447.28107 -136.611886 
L 435.260432 -137.839517 
L 423.239793 -139.004495 
L 411.219155 -140.436879 
L 399.198516 -141.841771 
L 387.177878 -143.469711 
L 375.157239 -144.915112 
L 363.136601 -146.940294 
L 351.115962 -148.748034 
L 339.095324 -150.860833 
L 327.074685 -152.890873 
L 315.054047 -155.613111 
L 303.033408 -157.904884 
L 291.01277 -160.924065 
L 278.992131 -163.827215 
L 266.971493 -166.696036 
L 254.950854 -170.341562 
L 242.930216 -174.556525 
L 230.909577 -178.605035 
L 218.888939 -182.657569 
L 206.8683 -187.990892 
L 194.847662 -193.110618 
L 182.827023 -199.200095 
L 170.806385 -204.853351 
L 158.785746 -211.961688 
L 146.765108 -220.076104 
L 134.744469 -228.184901 
L 122.723831 -238.627752 
L 110.703192 -249.562137 
L 98.682554 -263.51819 
L 86.661915 -278.830597 
L 74.641277 -297.656366 
L 62.620638 -318.159746 
L 50.6 -345.27013 
z
"/>
    </defs>
    <g clip-path="url(#p2f4111a98c)">
     <use xlink:href="#m3348cfbeac" x="0" y="388.8" style="fill: #17becf; fill-opacity: 0.06"/>
    </g>
   </g>
   <g id="matplotlib.axis_1">
    <g id="xtick_1">
     <g id="line2d_1">
      <path d="M 50.6 347.457143 
L 50.6 29.057143 
" clip-path="url(#p2f4111a98c)" style="fill: none; stroke: #d8d8d8; stroke-opacity: 0.75; stroke-width: 0.65; stroke-linecap: square"/>
     </g>
     <g id="line2d_2">
      <defs>
       <path id="m62f75fb770" d="M 0 0 
L 0 3.5 
" style="stroke: #000000; stroke-width: 0.8"/>
      </defs>
      <g>
       <use xlink:href="#m62f75fb770" x="50.6" y="347.457143" style="stroke: #000000; stroke-width: 0.8"/>
      </g>
     </g>
     <g id="text_1">
      <!-- 500 -->
      <g transform="translate(41.05625 362.05558) scale(0.1 -0.1)">
       <defs>
        <path id="DejaVuSans-35" d="M 691 4666 
L 3169 4666 
L 3169 4134 
L 1269 4134 
L 1269 2991 
Q 1406 3038 1543 3061 
Q 1681 3084 1819 3084 
Q 2600 3084 3056 2656 
Q 3513 2228 3513 1497 
Q 3513 744 3044 326 
Q 2575 -91 1722 -91 
Q 1428 -91 1123 -41 
Q 819 9 494 109 
L 494 744 
Q 775 591 1075 516 
Q 1375 441 1709 441 
Q 2250 441 2565 725 
Q 2881 1009 2881 1497 
Q 2881 1984 2565 2268 
Q 2250 2553 1709 2553 
Q 1456 2553 1204 2497 
Q 953 2441 691 2322 
L 691 4666 
z
" transform="scale(0.015625)"/>
        <path id="DejaVuSans-30" d="M 2034 4250 
Q 1547 4250 1301 3770 
Q 1056 3291 1056 2328 
Q 1056 1369 1301 889 
Q 1547 409 2034 409 
Q 2525 409 2770 889 
Q 3016 1369 3016 2328 
Q 3016 3291 2770 3770 
Q 2525 4250 2034 4250 
z
M 2034 4750 
Q 2819 4750 3233 4129 
Q 3647 3509 3647 2328 
Q 3647 1150 3233 529 
Q 2819 -91 2034 -91 
Q 1250 -91 836 529 
Q 422 1150 422 2328 
Q 422 3509 836 4129 
Q 1250 4750 2034 4750 
z
" transform="scale(0.015625)"/>
       </defs>
       <use xlink:href="#DejaVuSans-35"/>
       <use xlink:href="#DejaVuSans-30" transform="translate(63.623047 0)"/>
       <use xlink:href="#DejaVuSans-30" transform="translate(127.246094 0)"/>
      </g>
     </g>
    </g>
    <g id="xtick_2">
     <g id="line2d_3">
      <path d="M 170.806385 347.457143 
L 170.806385 29.057143 
" clip-path="url(#p2f4111a98c)" style="fill: none; stroke: #d8d8d8; stroke-opacity: 0.75; stroke-width: 0.65; stroke-linecap: square"/>
     </g>
     <g id="line2d_4">
      <g>
       <use xlink:href="#m62f75fb770" x="170.806385" y="347.457143" style="stroke: #000000; stroke-width: 0.8"/>
      </g>
     </g>
     <g id="text_2">
      <!-- 1000 -->
      <g transform="translate(158.081385 362.05558) scale(0.1 -0.1)">
       <defs>
        <path id="DejaVuSans-31" d="M 794 531 
L 1825 531 
L 1825 4091 
L 703 3866 
L 703 4441 
L 1819 4666 
L 2450 4666 
L 2450 531 
L 3481 531 
L 3481 0 
L 794 0 
L 794 531 
z
" transform="scale(0.015625)"/>
       </defs>
       <use xlink:href="#DejaVuSans-31"/>
       <use xlink:href="#DejaVuSans-30" transform="translate(63.623047 0)"/>
       <use xlink:href="#DejaVuSans-30" transform="translate(127.246094 0)"/>
       <use xlink:href="#DejaVuSans-30" transform="translate(190.869141 0)"/>
      </g>
     </g>
    </g>
    <g id="xtick_3">
     <g id="line2d_5">
      <path d="M 291.01277 347.457143 
L 291.01277 29.057143 
" clip-path="url(#p2f4111a98c)" style="fill: none; stroke: #d8d8d8; stroke-opacity: 0.75; stroke-width: 0.65; stroke-linecap: square"/>
     </g>
     <g id="line2d_6">
      <g>
       <use xlink:href="#m62f75fb770" x="291.01277" y="347.457143" style="stroke: #000000; stroke-width: 0.8"/>
      </g>
     </g>
     <g id="text_3">
      <!-- 1500 -->
      <g transform="translate(278.28777 362.05558) scale(0.1 -0.1)">
       <use xlink:href="#DejaVuSans-31"/>
       <use xlink:href="#DejaVuSans-35" transform="translate(63.623047 0)"/>
       <use xlink:href="#DejaVuSans-30" transform="translate(127.246094 0)"/>
       <use xlink:href="#DejaVuSans-30" transform="translate(190.869141 0)"/>
      </g>
     </g>
    </g>
    <g id="xtick_4">
     <g id="line2d_7">
      <path d="M 411.219155 347.457143 
L 411.219155 29.057143 
" clip-path="url(#p2f4111a98c)" style="fill: none; stroke: #d8d8d8; stroke-opacity: 0.75; stroke-width: 0.65; stroke-linecap: square"/>
     </g>
     <g id="line2d_8">
      <g>
       <use xlink:href="#m62f75fb770" x="411.219155" y="347.457143" style="stroke: #000000; stroke-width: 0.8"/>
      </g>
     </g>
     <g id="text_4">
      <!-- 2000 -->
      <g transform="translate(398.494155 362.05558) scale(0.1 -0.1)">
       <defs>
        <path id="DejaVuSans-32" d="M 1228 531 
L 3431 531 
L 3431 0 
L 469 0 
L 469 531 
Q 828 903 1448 1529 
Q 2069 2156 2228 2338 
Q 2531 2678 2651 2914 
Q 2772 3150 2772 3378 
Q 2772 3750 2511 3984 
Q 2250 4219 1831 4219 
Q 1534 4219 1204 4116 
Q 875 4013 500 3803 
L 500 4441 
Q 881 4594 1212 4672 
Q 1544 4750 1819 4750 
Q 2544 4750 2975 4387 
Q 3406 4025 3406 3419 
Q 3406 3131 3298 2873 
Q 3191 2616 2906 2266 
Q 2828 2175 2409 1742 
Q 1991 1309 1228 531 
z
" transform="scale(0.015625)"/>
       </defs>
       <use xlink:href="#DejaVuSans-32"/>
       <use xlink:href="#DejaVuSans-30" transform="translate(63.623047 0)"/>
       <use xlink:href="#DejaVuSans-30" transform="translate(127.246094 0)"/>
       <use xlink:href="#DejaVuSans-30" transform="translate(190.869141 0)"/>
      </g>
     </g>
    </g>
    <g id="xtick_5">
     <g id="line2d_9">
      <path d="M 531.42554 347.457143 
L 531.42554 29.057143 
" clip-path="url(#p2f4111a98c)" style="fill: none; stroke: #d8d8d8; stroke-opacity: 0.75; stroke-width: 0.65; stroke-linecap: square"/>
     </g>
     <g id="line2d_10">
      <g>
       <use xlink:href="#m62f75fb770" x="531.42554" y="347.457143" style="stroke: #000000; stroke-width: 0.8"/>
      </g>
     </g>
     <g id="text_5">
      <!-- 2500 -->
      <g transform="translate(518.70054 362.05558) scale(0.1 -0.1)">
       <use xlink:href="#DejaVuSans-32"/>
       <use xlink:href="#DejaVuSans-35" transform="translate(63.623047 0)"/>
       <use xlink:href="#DejaVuSans-30" transform="translate(127.246094 0)"/>
       <use xlink:href="#DejaVuSans-30" transform="translate(190.869141 0)"/>
      </g>
     </g>
    </g>
    <g id="xtick_6">
     <g id="line2d_11">
      <path d="M 651.631925 347.457143 
L 651.631925 29.057143 
" clip-path="url(#p2f4111a98c)" style="fill: none; stroke: #d8d8d8; stroke-opacity: 0.75; stroke-width: 0.65; stroke-linecap: square"/>
     </g>
     <g id="line2d_12">
      <g>
       <use xlink:href="#m62f75fb770" x="651.631925" y="347.457143" style="stroke: #000000; stroke-width: 0.8"/>
      </g>
     </g>
     <g id="text_6">
      <!-- 3000 -->
      <g transform="translate(638.906925 362.05558) scale(0.1 -0.1)">
       <defs>
        <path id="DejaVuSans-33" d="M 2597 2516 
Q 3050 2419 3304 2112 
Q 3559 1806 3559 1356 
Q 3559 666 3084 287 
Q 2609 -91 1734 -91 
Q 1441 -91 1130 -33 
Q 819 25 488 141 
L 488 750 
Q 750 597 1062 519 
Q 1375 441 1716 441 
Q 2309 441 2620 675 
Q 2931 909 2931 1356 
Q 2931 1769 2642 2001 
Q 2353 2234 1838 2234 
L 1294 2234 
L 1294 2753 
L 1863 2753 
Q 2328 2753 2575 2939 
Q 2822 3125 2822 3475 
Q 2822 3834 2567 4026 
Q 2313 4219 1838 4219 
Q 1578 4219 1281 4162 
Q 984 4106 628 3988 
L 628 4550 
Q 988 4650 1302 4700 
Q 1616 4750 1894 4750 
Q 2613 4750 3031 4423 
Q 3450 4097 3450 3541 
Q 3450 3153 3228 2886 
Q 3006 2619 2597 2516 
z
" transform="scale(0.015625)"/>
       </defs>
       <use xlink:href="#DejaVuSans-33"/>
       <use xlink:href="#DejaVuSans-30" transform="translate(63.623047 0)"/>
       <use xlink:href="#DejaVuSans-30" transform="translate(127.246094 0)"/>
       <use xlink:href="#DejaVuSans-30" transform="translate(190.869141 0)"/>
      </g>
     </g>
    </g>
    <g id="text_7">
     <!-- step -->
     <g transform="translate(346.310657 375.733705) scale(0.1 -0.1)">
      <defs>
       <path id="DejaVuSans-73" d="M 2834 3397 
L 2834 2853 
Q 2591 2978 2328 3040 
Q 2066 3103 1784 3103 
Q 1356 3103 1142 2972 
Q 928 2841 928 2578 
Q 928 2378 1081 2264 
Q 1234 2150 1697 2047 
L 1894 2003 
Q 2506 1872 2764 1633 
Q 3022 1394 3022 966 
Q 3022 478 2636 193 
Q 2250 -91 1575 -91 
Q 1294 -91 989 -36 
Q 684 19 347 128 
L 347 722 
Q 666 556 975 473 
Q 1284 391 1588 391 
Q 1994 391 2212 530 
Q 2431 669 2431 922 
Q 2431 1156 2273 1281 
Q 2116 1406 1581 1522 
L 1381 1569 
Q 847 1681 609 1914 
Q 372 2147 372 2553 
Q 372 3047 722 3315 
Q 1072 3584 1716 3584 
Q 2034 3584 2315 3537 
Q 2597 3491 2834 3397 
z
" transform="scale(0.015625)"/>
       <path id="DejaVuSans-74" d="M 1172 4494 
L 1172 3500 
L 2356 3500 
L 2356 3053 
L 1172 3053 
L 1172 1153 
Q 1172 725 1289 603 
Q 1406 481 1766 481 
L 2356 481 
L 2356 0 
L 1766 0 
Q 1100 0 847 248 
Q 594 497 594 1153 
L 594 3053 
L 172 3053 
L 172 3500 
L 594 3500 
L 594 4494 
L 1172 4494 
z
" transform="scale(0.015625)"/>
       <path id="DejaVuSans-65" d="M 3597 1894 
L 3597 1613 
L 953 1613 
Q 991 1019 1311 708 
Q 1631 397 2203 397 
Q 2534 397 2845 478 
Q 3156 559 3463 722 
L 3463 178 
Q 3153 47 2828 -22 
Q 2503 -91 2169 -91 
Q 1331 -91 842 396 
Q 353 884 353 1716 
Q 353 2575 817 3079 
Q 1281 3584 2069 3584 
Q 2775 3584 3186 3129 
Q 3597 2675 3597 1894 
z
M 3022 2063 
Q 3016 2534 2758 2815 
Q 2500 3097 2075 3097 
Q 1594 3097 1305 2825 
Q 1016 2553 972 2059 
L 3022 2063 
z
" transform="scale(0.015625)"/>
       <path id="DejaVuSans-70" d="M 1159 525 
L 1159 -1331 
L 581 -1331 
L 581 3500 
L 1159 3500 
L 1159 2969 
Q 1341 3281 1617 3432 
Q 1894 3584 2278 3584 
Q 2916 3584 3314 3078 
Q 3713 2572 3713 1747 
Q 3713 922 3314 415 
Q 2916 -91 2278 -91 
Q 1894 -91 1617 61 
Q 1341 213 1159 525 
z
M 3116 1747 
Q 3116 2381 2855 2742 
Q 2594 3103 2138 3103 
Q 1681 3103 1420 2742 
Q 1159 2381 1159 1747 
Q 1159 1113 1420 752 
Q 1681 391 2138 391 
Q 2594 391 2855 752 
Q 3116 1113 3116 1747 
z
" transform="scale(0.015625)"/>
      </defs>
      <use xlink:href="#DejaVuSans-73"/>
      <use xlink:href="#DejaVuSans-74" transform="translate(52.099609 0)"/>
      <use xlink:href="#DejaVuSans-65" transform="translate(91.308594 0)"/>
      <use xlink:href="#DejaVuSans-70" transform="translate(152.832031 0)"/>
     </g>
    </g>
   </g>
   <g id="matplotlib.axis_2">
    <g id="ytick_1">
     <g id="line2d_13">
      <path d="M 50.6 312.933577 
L 663.652563 312.933577 
" clip-path="url(#p2f4111a98c)" style="fill: none; stroke: #d8d8d8; stroke-opacity: 0.75; stroke-width: 0.65; stroke-linecap: square"/>
     </g>
     <g id="line2d_14">
      <defs>
       <path id="m4b5c00a0af" d="M 0 0 
L -3.5 0 
" style="stroke: #000000; stroke-width: 0.8"/>
      </defs>
      <g>
       <use xlink:href="#m4b5c00a0af" x="50.6" y="312.933577" style="stroke: #000000; stroke-width: 0.8"/>
      </g>
     </g>
     <g id="text_8">
      <!-- 100 -->
      <g transform="translate(24.5125 316.732796) scale(0.1 -0.1)">
       <use xlink:href="#DejaVuSans-31"/>
       <use xlink:href="#DejaVuSans-30" transform="translate(63.623047 0)"/>
       <use xlink:href="#DejaVuSans-30" transform="translate(127.246094 0)"/>
      </g>
     </g>
    </g>
    <g id="ytick_2">
     <g id="line2d_15">
      <path d="M 50.6 243.02538 
L 663.652563 243.02538 
" clip-path="url(#p2f4111a98c)" style="fill: none; stroke: #d8d8d8; stroke-opacity: 0.75; stroke-width: 0.65; stroke-linecap: square"/>
     </g>
     <g id="line2d_16">
      <g>
       <use xlink:href="#m4b5c00a0af" x="50.6" y="243.02538" style="stroke: #000000; stroke-width: 0.8"/>
      </g>
     </g>
     <g id="text_9">
      <!-- 200 -->
      <g transform="translate(24.5125 246.824598) scale(0.1 -0.1)">
       <use xlink:href="#DejaVuSans-32"/>
       <use xlink:href="#DejaVuSans-30" transform="translate(63.623047 0)"/>
       <use xlink:href="#DejaVuSans-30" transform="translate(127.246094 0)"/>
      </g>
     </g>
    </g>
    <g id="ytick_3">
     <g id="line2d_17">
      <path d="M 50.6 173.117182 
L 663.652563 173.117182 
" clip-path="url(#p2f4111a98c)" style="fill: none; stroke: #d8d8d8; stroke-opacity: 0.75; stroke-width: 0.65; stroke-linecap: square"/>
     </g>
     <g id="line2d_18">
      <g>
       <use xlink:href="#m4b5c00a0af" x="50.6" y="173.117182" style="stroke: #000000; stroke-width: 0.8"/>
      </g>
     </g>
     <g id="text_10">
      <!-- 300 -->
      <g transform="translate(24.5125 176.9164) scale(0.1 -0.1)">
       <use xlink:href="#DejaVuSans-33"/>
       <use xlink:href="#DejaVuSans-30" transform="translate(63.623047 0)"/>
       <use xlink:href="#DejaVuSans-30" transform="translate(127.246094 0)"/>
      </g>
     </g>
    </g>
    <g id="ytick_4">
     <g id="line2d_19">
      <path d="M 50.6 103.208984 
L 663.652563 103.208984 
" clip-path="url(#p2f4111a98c)" style="fill: none; stroke: #d8d8d8; stroke-opacity: 0.75; stroke-width: 0.65; stroke-linecap: square"/>
     </g>
     <g id="line2d_20">
      <g>
       <use xlink:href="#m4b5c00a0af" x="50.6" y="103.208984" style="stroke: #000000; stroke-width: 0.8"/>
      </g>
     </g>
     <g id="text_11">
      <!-- 400 -->
      <g transform="translate(24.5125 107.008202) scale(0.1 -0.1)">
       <defs>
        <path id="DejaVuSans-34" d="M 2419 4116 
L 825 1625 
L 2419 1625 
L 2419 4116 
z
M 2253 4666 
L 3047 4666 
L 3047 1625 
L 3713 1625 
L 3713 1100 
L 3047 1100 
L 3047 0 
L 2419 0 
L 2419 1100 
L 313 1100 
L 313 1709 
L 2253 4666 
z
" transform="scale(0.015625)"/>
       </defs>
       <use xlink:href="#DejaVuSans-34"/>
       <use xlink:href="#DejaVuSans-30" transform="translate(63.623047 0)"/>
       <use xlink:href="#DejaVuSans-30" transform="translate(127.246094 0)"/>
      </g>
     </g>
    </g>
    <g id="ytick_5">
     <g id="line2d_21">
      <path d="M 50.6 33.300786 
L 663.652563 33.300786 
" clip-path="url(#p2f4111a98c)" style="fill: none; stroke: #d8d8d8; stroke-opacity: 0.75; stroke-width: 0.65; stroke-linecap: square"/>
     </g>
     <g id="line2d_22">
      <g>
       <use xlink:href="#m4b5c00a0af" x="50.6" y="33.300786" style="stroke: #000000; stroke-width: 0.8"/>
      </g>
     </g>
     <g id="text_12">
      <!-- 500 -->
      <g transform="translate(24.5125 37.100005) scale(0.1 -0.1)">
       <use xlink:href="#DejaVuSans-35"/>
       <use xlink:href="#DejaVuSans-30" transform="translate(63.623047 0)"/>
       <use xlink:href="#DejaVuSans-30" transform="translate(127.246094 0)"/>
      </g>
     </g>
    </g>
    <g id="text_13">
     <!-- validation PPL -->
     <g transform="translate(18.432813 223.279018) rotate(-90) scale(0.1 -0.1)">
      <defs>
       <path id="DejaVuSans-76" d="M 191 3500 
L 800 3500 
L 1894 563 
L 2988 3500 
L 3597 3500 
L 2284 0 
L 1503 0 
L 191 3500 
z
" transform="scale(0.015625)"/>
       <path id="DejaVuSans-61" d="M 2194 1759 
Q 1497 1759 1228 1600 
Q 959 1441 959 1056 
Q 959 750 1161 570 
Q 1363 391 1709 391 
Q 2188 391 2477 730 
Q 2766 1069 2766 1631 
L 2766 1759 
L 2194 1759 
z
M 3341 1997 
L 3341 0 
L 2766 0 
L 2766 531 
Q 2569 213 2275 61 
Q 1981 -91 1556 -91 
Q 1019 -91 701 211 
Q 384 513 384 1019 
Q 384 1609 779 1909 
Q 1175 2209 1959 2209 
L 2766 2209 
L 2766 2266 
Q 2766 2663 2505 2880 
Q 2244 3097 1772 3097 
Q 1472 3097 1187 3025 
Q 903 2953 641 2809 
L 641 3341 
Q 956 3463 1253 3523 
Q 1550 3584 1831 3584 
Q 2591 3584 2966 3190 
Q 3341 2797 3341 1997 
z
" transform="scale(0.015625)"/>
       <path id="DejaVuSans-6c" d="M 603 4863 
L 1178 4863 
L 1178 0 
L 603 0 
L 603 4863 
z
" transform="scale(0.015625)"/>
       <path id="DejaVuSans-69" d="M 603 3500 
L 1178 3500 
L 1178 0 
L 603 0 
L 603 3500 
z
M 603 4863 
L 1178 4863 
L 1178 4134 
L 603 4134 
L 603 4863 
z
" transform="scale(0.015625)"/>
       <path id="DejaVuSans-64" d="M 2906 2969 
L 2906 4863 
L 3481 4863 
L 3481 0 
L 2906 0 
L 2906 525 
Q 2725 213 2448 61 
Q 2172 -91 1784 -91 
Q 1150 -91 751 415 
Q 353 922 353 1747 
Q 353 2572 751 3078 
Q 1150 3584 1784 3584 
Q 2172 3584 2448 3432 
Q 2725 3281 2906 2969 
z
M 947 1747 
Q 947 1113 1208 752 
Q 1469 391 1925 391 
Q 2381 391 2643 752 
Q 2906 1113 2906 1747 
Q 2906 2381 2643 2742 
Q 2381 3103 1925 3103 
Q 1469 3103 1208 2742 
Q 947 2381 947 1747 
z
" transform="scale(0.015625)"/>
       <path id="DejaVuSans-6f" d="M 1959 3097 
Q 1497 3097 1228 2736 
Q 959 2375 959 1747 
Q 959 1119 1226 758 
Q 1494 397 1959 397 
Q 2419 397 2687 759 
Q 2956 1122 2956 1747 
Q 2956 2369 2687 2733 
Q 2419 3097 1959 3097 
z
M 1959 3584 
Q 2709 3584 3137 3096 
Q 3566 2609 3566 1747 
Q 3566 888 3137 398 
Q 2709 -91 1959 -91 
Q 1206 -91 779 398 
Q 353 888 353 1747 
Q 353 2609 779 3096 
Q 1206 3584 1959 3584 
z
" transform="scale(0.015625)"/>
       <path id="DejaVuSans-6e" d="M 3513 2113 
L 3513 0 
L 2938 0 
L 2938 2094 
Q 2938 2591 2744 2837 
Q 2550 3084 2163 3084 
Q 1697 3084 1428 2787 
Q 1159 2491 1159 1978 
L 1159 0 
L 581 0 
L 581 3500 
L 1159 3500 
L 1159 2956 
Q 1366 3272 1645 3428 
Q 1925 3584 2291 3584 
Q 2894 3584 3203 3211 
Q 3513 2838 3513 2113 
z
" transform="scale(0.015625)"/>
       <path id="DejaVuSans-20" transform="scale(0.015625)"/>
       <path id="DejaVuSans-50" d="M 1259 4147 
L 1259 2394 
L 2053 2394 
Q 2494 2394 2734 2622 
Q 2975 2850 2975 3272 
Q 2975 3691 2734 3919 
Q 2494 4147 2053 4147 
L 1259 4147 
z
M 628 4666 
L 2053 4666 
Q 2838 4666 3239 4311 
Q 3641 3956 3641 3272 
Q 3641 2581 3239 2228 
Q 2838 1875 2053 1875 
L 1259 1875 
L 1259 0 
L 628 0 
L 628 4666 
z
" transform="scale(0.015625)"/>
       <path id="DejaVuSans-4c" d="M 628 4666 
L 1259 4666 
L 1259 531 
L 3531 531 
L 3531 0 
L 628 0 
L 628 4666 
z
" transform="scale(0.015625)"/>
      </defs>
      <use xlink:href="#DejaVuSans-76"/>
      <use xlink:href="#DejaVuSans-61" transform="translate(59.179688 0)"/>
      <use xlink:href="#DejaVuSans-6c" transform="translate(120.458984 0)"/>
      <use xlink:href="#DejaVuSans-69" transform="translate(148.242188 0)"/>
      <use xlink:href="#DejaVuSans-64" transform="translate(176.025391 0)"/>
      <use xlink:href="#DejaVuSans-61" transform="translate(239.501953 0)"/>
      <use xlink:href="#DejaVuSans-74" transform="translate(300.78125 0)"/>
      <use xlink:href="#DejaVuSans-69" transform="translate(339.990234 0)"/>
      <use xlink:href="#DejaVuSans-6f" transform="translate(367.773438 0)"/>
      <use xlink:href="#DejaVuSans-6e" transform="translate(428.955078 0)"/>
      <use xlink:href="#DejaVuSans-20" transform="translate(492.333984 0)"/>
      <use xlink:href="#DejaVuSans-50" transform="translate(524.121094 0)"/>
      <use xlink:href="#DejaVuSans-50" transform="translate(584.423828 0)"/>
      <use xlink:href="#DejaVuSans-4c" transform="translate(644.726562 0)"/>
     </g>
    </g>
   </g>
   <g id="line2d_23">
    <path d="M 50.6 226.036845 
L 62.620638 237.604361 
L 74.641277 247.203449 
L 86.661915 255.643719 
L 98.682554 262.21562 
L 110.703192 267.876459 
L 122.723831 273.318208 
L 134.744469 277.591764 
L 146.765108 281.72955 
L 158.785746 285.749872 
L 170.806385 289.404888 
L 182.827023 293.079411 
L 194.847662 296.133481 
L 206.8683 299.220559 
L 218.888939 302.038807 
L 230.909577 304.443551 
L 242.930216 306.686159 
L 254.950854 308.777952 
L 266.971493 310.411227 
L 278.992131 312.309769 
L 291.01277 313.729753 
L 303.033408 315.117345 
L 315.054047 316.384436 
L 327.074685 317.521483 
L 339.095324 318.508323 
L 351.115962 319.667814 
L 363.136601 320.694142 
L 375.157239 321.581759 
L 387.177878 322.456133 
L 399.198516 323.20903 
L 411.219155 323.913232 
L 423.239793 324.70277 
L 435.260432 325.32343 
L 447.28107 325.949163 
L 459.301709 326.517443 
L 471.322347 327.083302 
L 483.342986 327.562721 
L 495.363624 328.018472 
L 507.384263 328.450136 
L 519.404901 328.937757 
L 531.42554 329.313425 
L 543.446178 329.722367 
L 555.466817 330.020264 
L 567.487455 330.312668 
L 579.508094 330.593831 
L 591.528732 330.827605 
L 603.549371 331.083251 
L 615.570009 331.27947 
L 627.590648 331.512176 
L 639.611286 331.692323 
L 651.631925 331.837447 
L 663.652563 332.006887 
" clip-path="url(#p2f4111a98c)" style="fill: none; stroke: #111111; stroke-opacity: 0.96; stroke-width: 2.3; stroke-linecap: square"/>
   </g>
   <g id="line2d_24">
    <path d="M 50.6 206.027563 
L 62.620638 218.917247 
L 74.641277 229.131537 
L 86.661915 237.904868 
L 98.682554 245.677453 
L 110.703192 252.067039 
L 122.723831 258.291778 
L 134.744469 264.119687 
L 146.765108 269.240181 
L 158.785746 273.829633 
L 170.806385 278.186436 
L 182.827023 282.047725 
L 194.847662 285.522416 
L 206.8683 288.743755 
L 218.888939 291.72334 
L 230.909577 294.228431 
L 242.930216 296.675015 
L 254.950854 299.000509 
L 266.971493 300.813565 
L 278.992131 302.782884 
L 291.01277 304.463394 
L 303.033408 306.007809 
L 315.054047 307.34687 
L 327.074685 308.591427 
L 339.095324 309.737157 
L 351.115962 310.916503 
L 363.136601 311.969358 
L 375.157239 312.899936 
L 387.177878 313.808866 
L 399.198516 314.704536 
L 411.219155 315.398161 
L 423.239793 316.208511 
L 435.260432 316.875275 
L 447.28107 317.467028 
L 459.301709 318.036769 
L 471.322347 318.5598 
L 483.342986 319.064628 
L 495.363624 319.578516 
L 507.384263 319.988733 
L 519.404901 320.41029 
L 531.42554 320.802637 
L 543.446178 321.192737 
L 555.466817 321.516254 
L 567.487455 321.780756 
L 579.508094 322.070556 
L 591.528732 322.312269 
L 603.549371 322.544267 
L 615.570009 322.721089 
L 627.590648 322.932659 
L 639.611286 323.104823 
L 651.631925 323.274746 
L 663.652563 323.414165 
" clip-path="url(#p2f4111a98c)" style="fill: none; stroke: #1f77b4; stroke-opacity: 0.96; stroke-width: 1.45; stroke-linecap: square"/>
   </g>
   <g id="line2d_25">
    <path d="M 50.6 200.909269 
L 62.620638 213.922811 
L 74.641277 224.82686 
L 86.661915 233.799316 
L 98.682554 242.106842 
L 110.703192 249.25847 
L 122.723831 255.921062 
L 134.744469 262.281125 
L 146.765108 267.477428 
L 158.785746 272.353741 
L 170.806385 276.634122 
L 182.827023 280.616968 
L 194.847662 284.375078 
L 206.8683 287.593857 
L 218.888939 290.606822 
L 230.909577 293.192984 
L 242.930216 295.599315 
L 254.950854 297.870182 
L 266.971493 299.813841 
L 278.992131 301.800454 
L 291.01277 303.47321 
L 303.033408 305.046123 
L 315.054047 306.487697 
L 327.074685 307.835001 
L 339.095324 308.953217 
L 351.115962 310.252819 
L 363.136601 311.309512 
L 375.157239 312.39111 
L 387.177878 313.307965 
L 399.198516 314.090726 
L 411.219155 314.881466 
L 423.239793 315.640335 
L 435.260432 316.312344 
L 447.28107 316.978676 
L 459.301709 317.669498 
L 471.322347 318.210526 
L 483.342986 318.750149 
L 495.363624 319.230102 
L 507.384263 319.685063 
L 519.404901 320.108873 
L 531.42554 320.493527 
L 543.446178 320.836952 
L 555.466817 321.205109 
L 567.487455 321.459449 
L 579.508094 321.744561 
L 591.528732 322.002307 
L 603.549371 322.250454 
L 615.570009 322.469121 
L 627.590648 322.67272 
L 639.611286 322.843068 
L 651.631925 323.006949 
L 663.652563 323.161025 
" clip-path="url(#p2f4111a98c)" style="fill: none; stroke-dasharray: 5.365,2.32; stroke-dashoffset: 0; stroke: #1f77b4; stroke-opacity: 0.96; stroke-width: 1.45"/>
   </g>
   <g id="line2d_26">
    <path d="M 50.6 196.168083 
L 62.620638 213.375859 
L 74.641277 227.38594 
L 86.661915 238.676264 
L 98.682554 248.357042 
L 110.703192 256.611313 
L 122.723831 264.1725 
L 134.744469 271.169327 
L 146.765108 276.876832 
L 158.785746 281.946839 
L 170.806385 286.74897 
L 182.827023 290.673271 
L 194.847662 294.248287 
L 206.8683 297.302452 
L 218.888939 300.042771 
L 230.909577 302.469637 
L 242.930216 304.682604 
L 254.950854 306.690213 
L 266.971493 308.585665 
L 278.992131 310.233836 
L 291.01277 311.855125 
L 303.033408 313.16594 
L 315.054047 314.423921 
L 327.074685 315.676564 
L 339.095324 316.71509 
L 351.115962 317.73898 
L 363.136601 318.695824 
L 375.157239 319.555946 
L 387.177878 320.450942 
L 399.198516 321.222158 
L 411.219155 321.922036 
L 423.239793 322.610925 
L 435.260432 323.211243 
L 447.28107 323.798909 
L 459.301709 324.414644 
L 471.322347 324.894179 
L 483.342986 325.360932 
L 495.363624 325.827531 
L 507.384263 326.214151 
L 519.404901 326.595964 
L 531.42554 326.984077 
L 543.446178 327.337274 
L 555.466817 327.646209 
L 567.487455 327.906532 
L 579.508094 328.146969 
L 591.528732 328.392344 
L 603.549371 328.55532 
L 615.570009 328.76738 
L 627.590648 328.963361 
L 639.611286 329.141737 
L 651.631925 329.287136 
L 663.652563 329.441234 
" clip-path="url(#p2f4111a98c)" style="fill: none; stroke: #2ca02c; stroke-opacity: 0.96; stroke-width: 1.45; stroke-linecap: square"/>
   </g>
   <g id="line2d_27">
    <path d="M 50.6 186.557807 
L 62.620638 204.217226 
L 74.641277 218.713163 
L 86.661915 230.701006 
L 98.682554 240.650392 
L 110.703192 249.343449 
L 122.723831 257.325292 
L 134.744469 265.156059 
L 146.765108 271.47418 
L 158.785746 277.211872 
L 170.806385 282.286323 
L 182.827023 286.56271 
L 194.847662 290.469441 
L 206.8683 293.646653 
L 218.888939 296.761783 
L 230.909577 299.455712 
L 242.930216 301.778657 
L 254.950854 303.946808 
L 266.971493 305.892796 
L 278.992131 307.777977 
L 291.01277 309.46163 
L 303.033408 310.886025 
L 315.054047 312.228354 
L 327.074685 313.51339 
L 339.095324 314.709672 
L 351.115962 315.896019 
L 363.136601 316.908378 
L 375.157239 317.898495 
L 387.177878 318.869929 
L 399.198516 319.670021 
L 411.219155 320.370543 
L 423.239793 321.126484 
L 435.260432 321.803435 
L 447.28107 322.422015 
L 459.301709 323.056033 
L 471.322347 323.54913 
L 483.342986 324.094911 
L 495.363624 324.553107 
L 507.384263 324.992183 
L 519.404901 325.415638 
L 531.42554 325.836867 
L 543.446178 326.229131 
L 555.466817 326.565066 
L 567.487455 326.833221 
L 579.508094 327.095171 
L 591.528732 327.336862 
L 603.549371 327.558875 
L 615.570009 327.770879 
L 627.590648 327.973945 
L 639.611286 328.162343 
L 651.631925 328.317058 
L 663.652563 328.479214 
" clip-path="url(#p2f4111a98c)" style="fill: none; stroke-dasharray: 5.365,2.32; stroke-dashoffset: 0; stroke: #2ca02c; stroke-opacity: 0.96; stroke-width: 1.45"/>
   </g>
   <g id="line2d_28">
    <path d="M 50.6 108.904347 
L 62.620638 141.921509 
L 74.641277 166.863631 
L 86.661915 186.70143 
L 98.682554 202.850458 
L 110.703192 215.944842 
L 122.723831 227.674586 
L 134.744469 237.051449 
L 146.765108 244.990244 
L 158.785746 252.047356 
L 170.806385 258.077356 
L 182.827023 263.156389 
L 194.847662 268.074996 
L 206.8683 272.206329 
L 218.888939 276.005817 
L 230.909577 279.457585 
L 242.930216 282.608457 
L 254.950854 285.687371 
L 266.971493 288.401007 
L 278.992131 291.0213 
L 291.01277 293.513722 
L 303.033408 295.670965 
L 315.054047 297.634705 
L 327.074685 299.675948 
L 339.095324 301.352072 
L 351.115962 302.936779 
L 363.136601 304.406997 
L 375.157239 305.898657 
L 387.177878 307.161803 
L 399.198516 308.373699 
L 411.219155 309.418864 
L 423.239793 310.490051 
L 435.260432 311.377017 
L 447.28107 312.291354 
L 459.301709 313.142632 
L 471.322347 313.884232 
L 483.342986 314.536543 
L 495.363624 315.146367 
L 507.384263 315.749943 
L 519.404901 316.314455 
L 531.42554 316.811753 
L 543.446178 317.275585 
L 555.466817 317.708698 
L 567.487455 318.114992 
L 579.508094 318.437845 
L 591.528732 318.765862 
L 603.549371 319.011054 
L 615.570009 319.304171 
L 627.590648 319.581567 
L 639.611286 319.823153 
L 651.631925 320.016337 
L 663.652563 320.24599 
" clip-path="url(#p2f4111a98c)" style="fill: none; stroke: #ff7f0e; stroke-opacity: 0.96; stroke-width: 1.35; stroke-linecap: square"/>
   </g>
   <g id="line2d_29">
    <path d="M 50.6 95.41 
L 62.620638 132.622576 
L 74.641277 159.680281 
L 86.661915 181.706835 
L 98.682554 199.005856 
L 110.703192 212.948193 
L 122.723831 224.72148 
L 134.744469 235.160921 
L 146.765108 243.505676 
L 158.785746 250.924044 
L 170.806385 257.417793 
L 182.827023 262.550306 
L 194.847662 267.69343 
L 206.8683 272.033931 
L 218.888939 276.116167 
L 230.909577 279.896694 
L 242.930216 283.196139 
L 254.950854 286.473065 
L 266.971493 289.262133 
L 278.992131 292.006811 
L 291.01277 294.614567 
L 303.033408 296.741129 
L 315.054047 298.868247 
L 327.074685 300.908135 
L 339.095324 302.532939 
L 351.115962 304.126867 
L 363.136601 305.598557 
L 375.157239 307.058751 
L 387.177878 308.373345 
L 399.198516 309.586276 
L 411.219155 310.62644 
L 423.239793 311.620123 
L 435.260432 312.505408 
L 447.28107 313.405855 
L 459.301709 314.295831 
L 471.322347 314.924232 
L 483.342986 315.569501 
L 495.363624 316.195459 
L 507.384263 316.722473 
L 519.404901 317.260276 
L 531.42554 317.715118 
L 543.446178 318.172749 
L 555.466817 318.648031 
L 567.487455 319.00635 
L 579.508094 319.302128 
L 591.528732 319.602047 
L 603.549371 319.8294 
L 615.570009 320.115729 
L 627.590648 320.390353 
L 639.611286 320.617928 
L 651.631925 320.778013 
L 663.652563 321.001286 
" clip-path="url(#p2f4111a98c)" style="fill: none; stroke-dasharray: 4.995,2.16; stroke-dashoffset: 0; stroke: #ff7f0e; stroke-opacity: 0.96; stroke-width: 1.35"/>
   </g>
   <g id="line2d_30">
    <path d="M 50.6 81.558839 
L 62.620638 104.958684 
L 74.641277 122.874762 
L 86.661915 138.864774 
L 98.682554 153.273496 
L 110.703192 163.885961 
L 122.723831 174.850005 
L 134.744469 183.859597 
L 146.765108 191.902012 
L 158.785746 198.767924 
L 170.806385 205.237885 
L 182.827023 211.318228 
L 194.847662 216.511402 
L 206.8683 221.438249 
L 218.888939 225.930447 
L 230.909577 230.04194 
L 242.930216 233.733839 
L 254.950854 237.514479 
L 266.971493 240.734584 
L 278.992131 243.773612 
L 291.01277 246.435822 
L 303.033408 249.105312 
L 315.054047 251.602002 
L 327.074685 253.830405 
L 339.095324 255.883825 
L 351.115962 257.888358 
L 363.136601 259.75391 
L 375.157239 261.466248 
L 387.177878 263.036218 
L 399.198516 264.56399 
L 411.219155 265.925635 
L 423.239793 267.304426 
L 435.260432 268.510707 
L 447.28107 269.669407 
L 459.301709 270.790942 
L 471.322347 271.805361 
L 483.342986 272.773685 
L 495.363624 273.681359 
L 507.384263 274.522061 
L 519.404901 275.327893 
L 531.42554 276.083134 
L 543.446178 276.775624 
L 555.466817 277.476907 
L 567.487455 278.100476 
L 579.508094 278.711558 
L 591.528732 279.24679 
L 603.549371 279.781723 
L 615.570009 280.291331 
L 627.590648 280.791367 
L 639.611286 281.259718 
L 651.631925 281.716105 
L 663.652563 282.138227 
" clip-path="url(#p2f4111a98c)" style="fill: none; stroke: #8c564b; stroke-opacity: 0.96; stroke-width: 1.25; stroke-linecap: square"/>
   </g>
   <g id="line2d_31">
    <path d="M 50.6 67.347494 
L 62.620638 90.231969 
L 74.641277 110.878002 
L 86.661915 126.44392 
L 98.682554 142.056447 
L 110.703192 154.385623 
L 122.723831 166.753864 
L 134.744469 175.597631 
L 146.765108 184.599702 
L 158.785746 191.991264 
L 170.806385 198.448606 
L 182.827023 204.651918 
L 194.847662 209.738597 
L 206.8683 215.064073 
L 218.888939 220.025124 
L 230.909577 223.995637 
L 242.930216 227.822016 
L 254.950854 231.660001 
L 266.971493 235.104522 
L 278.992131 238.233609 
L 291.01277 241.009719 
L 303.033408 243.746233 
L 315.054047 246.331805 
L 327.074685 248.593485 
L 339.095324 250.751863 
L 351.115962 252.839753 
L 363.136601 254.833575 
L 375.157239 256.630709 
L 387.177878 258.309012 
L 399.198516 259.88217 
L 411.219155 261.321766 
L 423.239793 262.750923 
L 435.260432 264.011467 
L 447.28107 265.205386 
L 459.301709 266.402104 
L 471.322347 267.484674 
L 483.342986 268.491944 
L 495.363624 269.44707 
L 507.384263 270.352367 
L 519.404901 271.201837 
L 531.42554 272.014068 
L 543.446178 272.772425 
L 555.466817 273.508461 
L 567.487455 274.164154 
L 579.508094 274.814446 
L 591.528732 275.377374 
L 603.549371 275.929069 
L 615.570009 276.474128 
L 627.590648 276.9927 
L 639.611286 277.489568 
L 651.631925 277.968467 
L 663.652563 278.415332 
" clip-path="url(#p2f4111a98c)" style="fill: none; stroke-dasharray: 4.625,2; stroke-dashoffset: 0; stroke: #8c564b; stroke-opacity: 0.96; stroke-width: 1.25"/>
   </g>
   <g id="line2d_32">
    <path d="M 50.6 71.674399 
L 62.620638 93.342378 
L 74.641277 110.776217 
L 86.661915 125.604064 
L 98.682554 138.66005 
L 110.703192 150.12341 
L 122.723831 159.954863 
L 134.744469 169.66914 
L 146.765108 177.289945 
L 158.785746 184.777704 
L 170.806385 191.46265 
L 182.827023 197.059425 
L 194.847662 202.575887 
L 206.8683 207.646679 
L 218.888939 212.405332 
L 230.909577 216.414069 
L 242.930216 220.179417 
L 254.950854 224.319322 
L 266.971493 227.408372 
L 278.992131 230.713005 
L 291.01277 233.53398 
L 303.033408 236.269856 
L 315.054047 238.659418 
L 327.074685 240.988699 
L 339.095324 242.922305 
L 351.115962 245.071022 
L 363.136601 247.078339 
L 375.157239 248.933817 
L 387.177878 250.452965 
L 399.198516 252.120606 
L 411.219155 253.317919 
L 423.239793 254.784812 
L 435.260432 255.91807 
L 447.28107 257.116567 
L 459.301709 258.279148 
L 471.322347 259.211346 
L 483.342986 260.206071 
L 495.363624 261.127948 
L 507.384263 261.871995 
L 519.404901 262.594794 
L 531.42554 263.329534 
L 543.446178 263.943958 
L 555.466817 264.593566 
L 567.487455 265.097827 
L 579.508094 265.615152 
L 591.528732 266.012531 
L 603.549371 266.433642 
L 615.570009 266.837652 
L 627.590648 267.247632 
L 639.611286 267.584765 
L 651.631925 267.896541 
L 663.652563 268.173376 
" clip-path="url(#p2f4111a98c)" style="fill: none; stroke: #17becf; stroke-opacity: 0.96; stroke-width: 1.25; stroke-linecap: square"/>
   </g>
   <g id="line2d_33">
    <path d="M 50.6 48.744732 
L 62.620638 75.456954 
L 74.641277 95.643266 
L 86.661915 113.916442 
L 98.682554 128.917188 
L 110.703192 142.106271 
L 122.723831 153.42058 
L 134.744469 163.05699 
L 146.765108 171.529828 
L 158.785746 179.575334 
L 170.806385 186.756269 
L 182.827023 192.174406 
L 194.847662 198.091131 
L 206.8683 203.414667 
L 218.888939 208.543652 
L 230.909577 212.590837 
L 242.930216 216.747221 
L 254.950854 220.621754 
L 266.971493 224.26297 
L 278.992131 227.298145 
L 291.01277 230.144215 
L 303.033408 232.974517 
L 315.054047 235.500213 
L 327.074685 238.026754 
L 339.095324 239.932343 
L 351.115962 242.148641 
L 363.136601 244.031966 
L 375.157239 245.94479 
L 387.177878 247.471958 
L 399.198516 249.075263 
L 411.219155 250.421458 
L 423.239793 251.835792 
L 435.260432 253.050333 
L 447.28107 254.219226 
L 459.301709 255.442052 
L 471.322347 256.447945 
L 483.342986 257.388165 
L 495.363624 258.316584 
L 507.384263 259.11488 
L 519.404901 259.827182 
L 531.42554 260.531192 
L 543.446178 261.214421 
L 555.466817 261.820157 
L 567.487455 262.318973 
L 579.508094 262.881189 
L 591.528732 263.281153 
L 603.549371 263.712873 
L 615.570009 264.09323 
L 627.590648 264.507634 
L 639.611286 264.8467 
L 651.631925 265.198864 
L 663.652563 265.501692 
" clip-path="url(#p2f4111a98c)" style="fill: none; stroke-dasharray: 4.625,2; stroke-dashoffset: 0; stroke: #17becf; stroke-opacity: 0.96; stroke-width: 1.25"/>
   </g>
   <g id="patch_3">
    <path d="M 50.6 347.457143 
L 50.6 29.057143 
" style="fill: none; stroke: #000000; stroke-width: 0.8; stroke-linejoin: miter; stroke-linecap: square"/>
   </g>
   <g id="patch_4">
    <path d="M 50.6 347.457143 
L 663.652563 347.457143 
" style="fill: none; stroke: #000000; stroke-width: 0.8; stroke-linejoin: miter; stroke-linecap: square"/>
   </g>
   <g id="text_14">
    <!-- C4 E1 validation PPL, clean comparison, mean +/- std -->
    <g transform="translate(195.635344 20.057143) scale(0.12 -0.12)">
     <defs>
      <path id="DejaVuSans-43" d="M 4122 4306 
L 4122 3641 
Q 3803 3938 3442 4084 
Q 3081 4231 2675 4231 
Q 1875 4231 1450 3742 
Q 1025 3253 1025 2328 
Q 1025 1406 1450 917 
Q 1875 428 2675 428 
Q 3081 428 3442 575 
Q 3803 722 4122 1019 
L 4122 359 
Q 3791 134 3420 21 
Q 3050 -91 2638 -91 
Q 1578 -91 968 557 
Q 359 1206 359 2328 
Q 359 3453 968 4101 
Q 1578 4750 2638 4750 
Q 3056 4750 3426 4639 
Q 3797 4528 4122 4306 
z
" transform="scale(0.015625)"/>
      <path id="DejaVuSans-45" d="M 628 4666 
L 3578 4666 
L 3578 4134 
L 1259 4134 
L 1259 2753 
L 3481 2753 
L 3481 2222 
L 1259 2222 
L 1259 531 
L 3634 531 
L 3634 0 
L 628 0 
L 628 4666 
z
" transform="scale(0.015625)"/>
      <path id="DejaVuSans-2c" d="M 750 794 
L 1409 794 
L 1409 256 
L 897 -744 
L 494 -744 
L 750 256 
L 750 794 
z
" transform="scale(0.015625)"/>
      <path id="DejaVuSans-63" d="M 3122 3366 
L 3122 2828 
Q 2878 2963 2633 3030 
Q 2388 3097 2138 3097 
Q 1578 3097 1268 2742 
Q 959 2388 959 1747 
Q 959 1106 1268 751 
Q 1578 397 2138 397 
Q 2388 397 2633 464 
Q 2878 531 3122 666 
L 3122 134 
Q 2881 22 2623 -34 
Q 2366 -91 2075 -91 
Q 1284 -91 818 406 
Q 353 903 353 1747 
Q 353 2603 823 3093 
Q 1294 3584 2113 3584 
Q 2378 3584 2631 3529 
Q 2884 3475 3122 3366 
z
" transform="scale(0.015625)"/>
      <path id="DejaVuSans-6d" d="M 3328 2828 
Q 3544 3216 3844 3400 
Q 4144 3584 4550 3584 
Q 5097 3584 5394 3201 
Q 5691 2819 5691 2113 
L 5691 0 
L 5113 0 
L 5113 2094 
Q 5113 2597 4934 2840 
Q 4756 3084 4391 3084 
Q 3944 3084 3684 2787 
Q 3425 2491 3425 1978 
L 3425 0 
L 2847 0 
L 2847 2094 
Q 2847 2600 2669 2842 
Q 2491 3084 2119 3084 
Q 1678 3084 1418 2786 
Q 1159 2488 1159 1978 
L 1159 0 
L 581 0 
L 581 3500 
L 1159 3500 
L 1159 2956 
Q 1356 3278 1631 3431 
Q 1906 3584 2284 3584 
Q 2666 3584 2933 3390 
Q 3200 3197 3328 2828 
z
" transform="scale(0.015625)"/>
      <path id="DejaVuSans-72" d="M 2631 2963 
Q 2534 3019 2420 3045 
Q 2306 3072 2169 3072 
Q 1681 3072 1420 2755 
Q 1159 2438 1159 1844 
L 1159 0 
L 581 0 
L 581 3500 
L 1159 3500 
L 1159 2956 
Q 1341 3275 1631 3429 
Q 1922 3584 2338 3584 
Q 2397 3584 2469 3576 
Q 2541 3569 2628 3553 
L 2631 2963 
z
" transform="scale(0.015625)"/>
      <path id="DejaVuSans-2b" d="M 2944 4013 
L 2944 2272 
L 4684 2272 
L 4684 1741 
L 2944 1741 
L 2944 0 
L 2419 0 
L 2419 1741 
L 678 1741 
L 678 2272 
L 2419 2272 
L 2419 4013 
L 2944 4013 
z
" transform="scale(0.015625)"/>
      <path id="DejaVuSans-2f" d="M 1625 4666 
L 2156 4666 
L 531 -594 
L 0 -594 
L 1625 4666 
z
" transform="scale(0.015625)"/>
      <path id="DejaVuSans-2d" d="M 313 2009 
L 1997 2009 
L 1997 1497 
L 313 1497 
L 313 2009 
z
" transform="scale(0.015625)"/>
     </defs>
     <use xlink:href="#DejaVuSans-43"/>
     <use xlink:href="#DejaVuSans-34" transform="translate(69.824219 0)"/>
     <use xlink:href="#DejaVuSans-20" transform="translate(133.447266 0)"/>
     <use xlink:href="#DejaVuSans-45" transform="translate(165.234375 0)"/>
     <use xlink:href="#DejaVuSans-31" transform="translate(228.417969 0)"/>
     <use xlink:href="#DejaVuSans-20" transform="translate(292.041016 0)"/>
     <use xlink:href="#DejaVuSans-76" transform="translate(323.828125 0)"/>
     <use xlink:href="#DejaVuSans-61" transform="translate(383.007812 0)"/>
     <use xlink:href="#DejaVuSans-6c" transform="translate(444.287109 0)"/>
     <use xlink:href="#DejaVuSans-69" transform="translate(472.070312 0)"/>
     <use xlink:href="#DejaVuSans-64" transform="translate(499.853516 0)"/>
     <use xlink:href="#DejaVuSans-61" transform="translate(563.330078 0)"/>
     <use xlink:href="#DejaVuSans-74" transform="translate(624.609375 0)"/>
     <use xlink:href="#DejaVuSans-69" transform="translate(663.818359 0)"/>
     <use xlink:href="#DejaVuSans-6f" transform="translate(691.601562 0)"/>
     <use xlink:href="#DejaVuSans-6e" transform="translate(752.783203 0)"/>
     <use xlink:href="#DejaVuSans-20" transform="translate(816.162109 0)"/>
     <use xlink:href="#DejaVuSans-50" transform="translate(847.949219 0)"/>
     <use xlink:href="#DejaVuSans-50" transform="translate(908.251953 0)"/>
     <use xlink:href="#DejaVuSans-4c" transform="translate(968.554688 0)"/>
     <use xlink:href="#DejaVuSans-2c" transform="translate(1024.267578 0)"/>
     <use xlink:href="#DejaVuSans-20" transform="translate(1056.054688 0)"/>
     <use xlink:href="#DejaVuSans-63" transform="translate(1087.841797 0)"/>
     <use xlink:href="#DejaVuSans-6c" transform="translate(1142.822266 0)"/>
     <use xlink:href="#DejaVuSans-65" transform="translate(1170.605469 0)"/>
     <use xlink:href="#DejaVuSans-61" transform="translate(1232.128906 0)"/>
     <use xlink:href="#DejaVuSans-6e" transform="translate(1293.408203 0)"/>
     <use xlink:href="#DejaVuSans-20" transform="translate(1356.787109 0)"/>
     <use xlink:href="#DejaVuSans-63" transform="translate(1388.574219 0)"/>
     <use xlink:href="#DejaVuSans-6f" transform="translate(1443.554688 0)"/>
     <use xlink:href="#DejaVuSans-6d" transform="translate(1504.736328 0)"/>
     <use xlink:href="#DejaVuSans-70" transform="translate(1602.148438 0)"/>
     <use xlink:href="#DejaVuSans-61" transform="translate(1665.625 0)"/>
     <use xlink:href="#DejaVuSans-72" transform="translate(1726.904297 0)"/>
     <use xlink:href="#DejaVuSans-69" transform="translate(1768.017578 0)"/>
     <use xlink:href="#DejaVuSans-73" transform="translate(1795.800781 0)"/>
     <use xlink:href="#DejaVuSans-6f" transform="translate(1847.900391 0)"/>
     <use xlink:href="#DejaVuSans-6e" transform="translate(1909.082031 0)"/>
     <use xlink:href="#DejaVuSans-2c" transform="translate(1972.460938 0)"/>
     <use xlink:href="#DejaVuSans-20" transform="translate(2004.248047 0)"/>
     <use xlink:href="#DejaVuSans-6d" transform="translate(2036.035156 0)"/>
     <use xlink:href="#DejaVuSans-65" transform="translate(2133.447266 0)"/>
     <use xlink:href="#DejaVuSans-61" transform="translate(2194.970703 0)"/>
     <use xlink:href="#DejaVuSans-6e" transform="translate(2256.25 0)"/>
     <use xlink:href="#DejaVuSans-20" transform="translate(2319.628906 0)"/>
     <use xlink:href="#DejaVuSans-2b" transform="translate(2351.416016 0)"/>
     <use xlink:href="#DejaVuSans-2f" transform="translate(2435.205078 0)"/>
     <use xlink:href="#DejaVuSans-2d" transform="translate(2468.896484 0)"/>
     <use xlink:href="#DejaVuSans-20" transform="translate(2504.980469 0)"/>
     <use xlink:href="#DejaVuSans-73" transform="translate(2536.767578 0)"/>
     <use xlink:href="#DejaVuSans-74" transform="translate(2588.867188 0)"/>
     <use xlink:href="#DejaVuSans-64" transform="translate(2628.076172 0)"/>
    </g>
   </g>
   <g id="legend_1">
    <g id="patch_5">
     <path d="M 490.431063 101.545705 
L 658.892563 101.545705 
Q 660.252563 101.545705 660.252563 100.185705 
L 660.252563 33.817143 
Q 660.252563 32.457143 658.892563 32.457143 
L 490.431063 32.457143 
Q 489.071063 32.457143 489.071063 33.817143 
L 489.071063 100.185705 
Q 489.071063 101.545705 490.431063 101.545705 
z
" style="fill: #ffffff; opacity: 0.9; stroke: #bbbbbb; stroke-linejoin: miter"/>
    </g>
    <g id="text_15">
     <!-- Curve -->
     <g transform="translate(563.745657 42.159987) scale(0.074 -0.074)">
      <defs>
       <path id="DejaVuSans-75" d="M 544 1381 
L 544 3500 
L 1119 3500 
L 1119 1403 
Q 1119 906 1312 657 
Q 1506 409 1894 409 
Q 2359 409 2629 706 
Q 2900 1003 2900 1516 
L 2900 3500 
L 3475 3500 
L 3475 0 
L 2900 0 
L 2900 538 
Q 2691 219 2414 64 
Q 2138 -91 1772 -91 
Q 1169 -91 856 284 
Q 544 659 544 1381 
z
M 1991 3584 
L 1991 3584 
z
" transform="scale(0.015625)"/>
      </defs>
      <use xlink:href="#DejaVuSans-43"/>
      <use xlink:href="#DejaVuSans-75" transform="translate(69.824219 0)"/>
      <use xlink:href="#DejaVuSans-72" transform="translate(133.203125 0)"/>
      <use xlink:href="#DejaVuSans-76" transform="translate(174.316406 0)"/>
      <use xlink:href="#DejaVuSans-65" transform="translate(233.496094 0)"/>
     </g>
    </g>
    <g id="line2d_34">
     <path d="M 493.151063 48.865893 
L 501.651063 48.865893 
L 510.151063 48.865893 
" style="fill: none; stroke: #111111; stroke-opacity: 0.96; stroke-width: 2.3; stroke-linecap: square"/>
    </g>
    <g id="text_16">
     <!-- MatrixPolicy -->
     <g transform="translate(515.591063 51.245893) scale(0.068 -0.068)">
      <defs>
       <path id="DejaVuSans-4d" d="M 628 4666 
L 1569 4666 
L 2759 1491 
L 3956 4666 
L 4897 4666 
L 4897 0 
L 4281 0 
L 4281 4097 
L 3078 897 
L 2444 897 
L 1241 4097 
L 1241 0 
L 628 0 
L 628 4666 
z
" transform="scale(0.015625)"/>
       <path id="DejaVuSans-78" d="M 3513 3500 
L 2247 1797 
L 3578 0 
L 2900 0 
L 1881 1375 
L 863 0 
L 184 0 
L 1544 1831 
L 300 3500 
L 978 3500 
L 1906 2253 
L 2834 3500 
L 3513 3500 
z
" transform="scale(0.015625)"/>
       <path id="DejaVuSans-79" d="M 2059 -325 
Q 1816 -950 1584 -1140 
Q 1353 -1331 966 -1331 
L 506 -1331 
L 506 -850 
L 844 -850 
Q 1081 -850 1212 -737 
Q 1344 -625 1503 -206 
L 1606 56 
L 191 3500 
L 800 3500 
L 1894 763 
L 2988 3500 
L 3597 3500 
L 2059 -325 
z
" transform="scale(0.015625)"/>
      </defs>
      <use xlink:href="#DejaVuSans-4d"/>
      <use xlink:href="#DejaVuSans-61" transform="translate(86.279297 0)"/>
      <use xlink:href="#DejaVuSans-74" transform="translate(147.558594 0)"/>
      <use xlink:href="#DejaVuSans-72" transform="translate(186.767578 0)"/>
      <use xlink:href="#DejaVuSans-69" transform="translate(227.880859 0)"/>
      <use xlink:href="#DejaVuSans-78" transform="translate(255.664062 0)"/>
      <use xlink:href="#DejaVuSans-50" transform="translate(314.84375 0)"/>
      <use xlink:href="#DejaVuSans-6f" transform="translate(371.521484 0)"/>
      <use xlink:href="#DejaVuSans-6c" transform="translate(432.703125 0)"/>
      <use xlink:href="#DejaVuSans-69" transform="translate(460.486328 0)"/>
      <use xlink:href="#DejaVuSans-63" transform="translate(488.269531 0)"/>
      <use xlink:href="#DejaVuSans-79" transform="translate(543.25 0)"/>
     </g>
    </g>
    <g id="line2d_35">
     <path d="M 493.151063 57.827018 
L 501.651063 57.827018 
L 510.151063 57.827018 
" style="fill: none; stroke: #1f77b4; stroke-opacity: 0.96; stroke-width: 1.45; stroke-linecap: square"/>
    </g>
    <g id="text_17">
     <!-- RLB+AdamW -->
     <g transform="translate(515.591063 60.207018) scale(0.068 -0.068)">
      <defs>
       <path id="DejaVuSans-52" d="M 2841 2188 
Q 3044 2119 3236 1894 
Q 3428 1669 3622 1275 
L 4263 0 
L 3584 0 
L 2988 1197 
Q 2756 1666 2539 1819 
Q 2322 1972 1947 1972 
L 1259 1972 
L 1259 0 
L 628 0 
L 628 4666 
L 2053 4666 
Q 2853 4666 3247 4331 
Q 3641 3997 3641 3322 
Q 3641 2881 3436 2590 
Q 3231 2300 2841 2188 
z
M 1259 4147 
L 1259 2491 
L 2053 2491 
Q 2509 2491 2742 2702 
Q 2975 2913 2975 3322 
Q 2975 3731 2742 3939 
Q 2509 4147 2053 4147 
L 1259 4147 
z
" transform="scale(0.015625)"/>
       <path id="DejaVuSans-42" d="M 1259 2228 
L 1259 519 
L 2272 519 
Q 2781 519 3026 730 
Q 3272 941 3272 1375 
Q 3272 1813 3026 2020 
Q 2781 2228 2272 2228 
L 1259 2228 
z
M 1259 4147 
L 1259 2741 
L 2194 2741 
Q 2656 2741 2882 2914 
Q 3109 3088 3109 3444 
Q 3109 3797 2882 3972 
Q 2656 4147 2194 4147 
L 1259 4147 
z
M 628 4666 
L 2241 4666 
Q 2963 4666 3353 4366 
Q 3744 4066 3744 3513 
Q 3744 3084 3544 2831 
Q 3344 2578 2956 2516 
Q 3422 2416 3680 2098 
Q 3938 1781 3938 1306 
Q 3938 681 3513 340 
Q 3088 0 2303 0 
L 628 0 
L 628 4666 
z
" transform="scale(0.015625)"/>
       <path id="DejaVuSans-41" d="M 2188 4044 
L 1331 1722 
L 3047 1722 
L 2188 4044 
z
M 1831 4666 
L 2547 4666 
L 4325 0 
L 3669 0 
L 3244 1197 
L 1141 1197 
L 716 0 
L 50 0 
L 1831 4666 
z
" transform="scale(0.015625)"/>
       <path id="DejaVuSans-57" d="M 213 4666 
L 850 4666 
L 1831 722 
L 2809 4666 
L 3519 4666 
L 4500 722 
L 5478 4666 
L 6119 4666 
L 4947 0 
L 4153 0 
L 3169 4050 
L 2175 0 
L 1381 0 
L 213 4666 
z
" transform="scale(0.015625)"/>
      </defs>
      <use xlink:href="#DejaVuSans-52"/>
      <use xlink:href="#DejaVuSans-4c" transform="translate(69.482422 0)"/>
      <use xlink:href="#DejaVuSans-42" transform="translate(125.195312 0)"/>
      <use xlink:href="#DejaVuSans-2b" transform="translate(193.798828 0)"/>
      <use xlink:href="#DejaVuSans-41" transform="translate(277.587891 0)"/>
      <use xlink:href="#DejaVuSans-64" transform="translate(344.246094 0)"/>
      <use xlink:href="#DejaVuSans-61" transform="translate(407.722656 0)"/>
      <use xlink:href="#DejaVuSans-6d" transform="translate(469.001953 0)"/>
      <use xlink:href="#DejaVuSans-57" transform="translate(566.414062 0)"/>
     </g>
    </g>
    <g id="line2d_36">
     <path d="M 493.151063 66.788143 
L 501.651063 66.788143 
L 510.151063 66.788143 
" style="fill: none; stroke-dasharray: 5.365,2.32; stroke-dashoffset: 0; stroke: #1f77b4; stroke-opacity: 0.96; stroke-width: 1.45"/>
    </g>
    <g id="text_18">
     <!-- SiLU+AdamW -->
     <g transform="translate(515.591063 69.168143) scale(0.068 -0.068)">
      <defs>
       <path id="DejaVuSans-53" d="M 3425 4513 
L 3425 3897 
Q 3066 4069 2747 4153 
Q 2428 4238 2131 4238 
Q 1616 4238 1336 4038 
Q 1056 3838 1056 3469 
Q 1056 3159 1242 3001 
Q 1428 2844 1947 2747 
L 2328 2669 
Q 3034 2534 3370 2195 
Q 3706 1856 3706 1288 
Q 3706 609 3251 259 
Q 2797 -91 1919 -91 
Q 1588 -91 1214 -16 
Q 841 59 441 206 
L 441 856 
Q 825 641 1194 531 
Q 1563 422 1919 422 
Q 2459 422 2753 634 
Q 3047 847 3047 1241 
Q 3047 1584 2836 1778 
Q 2625 1972 2144 2069 
L 1759 2144 
Q 1053 2284 737 2584 
Q 422 2884 422 3419 
Q 422 4038 858 4394 
Q 1294 4750 2059 4750 
Q 2388 4750 2728 4690 
Q 3069 4631 3425 4513 
z
" transform="scale(0.015625)"/>
       <path id="DejaVuSans-55" d="M 556 4666 
L 1191 4666 
L 1191 1831 
Q 1191 1081 1462 751 
Q 1734 422 2344 422 
Q 2950 422 3222 751 
Q 3494 1081 3494 1831 
L 3494 4666 
L 4128 4666 
L 4128 1753 
Q 4128 841 3676 375 
Q 3225 -91 2344 -91 
Q 1459 -91 1007 375 
Q 556 841 556 1753 
L 556 4666 
z
" transform="scale(0.015625)"/>
      </defs>
      <use xlink:href="#DejaVuSans-53"/>
      <use xlink:href="#DejaVuSans-69" transform="translate(63.476562 0)"/>
      <use xlink:href="#DejaVuSans-4c" transform="translate(91.259766 0)"/>
      <use xlink:href="#DejaVuSans-55" transform="translate(141.972656 0)"/>
      <use xlink:href="#DejaVuSans-2b" transform="translate(215.166016 0)"/>
      <use xlink:href="#DejaVuSans-41" transform="translate(298.955078 0)"/>
      <use xlink:href="#DejaVuSans-64" transform="translate(365.613281 0)"/>
      <use xlink:href="#DejaVuSans-61" transform="translate(429.089844 0)"/>
      <use xlink:href="#DejaVuSans-6d" transform="translate(490.369141 0)"/>
      <use xlink:href="#DejaVuSans-57" transform="translate(587.78125 0)"/>
     </g>
    </g>
    <g id="line2d_37">
     <path d="M 493.151063 75.749268 
L 501.651063 75.749268 
L 510.151063 75.749268 
" style="fill: none; stroke: #2ca02c; stroke-opacity: 0.96; stroke-width: 1.45; stroke-linecap: square"/>
    </g>
    <g id="text_19">
     <!-- RLB+Lion -->
     <g transform="translate(515.591063 78.129268) scale(0.068 -0.068)">
      <use xlink:href="#DejaVuSans-52"/>
      <use xlink:href="#DejaVuSans-4c" transform="translate(69.482422 0)"/>
      <use xlink:href="#DejaVuSans-42" transform="translate(125.195312 0)"/>
      <use xlink:href="#DejaVuSans-2b" transform="translate(193.798828 0)"/>
      <use xlink:href="#DejaVuSans-4c" transform="translate(277.587891 0)"/>
      <use xlink:href="#DejaVuSans-69" transform="translate(333.300781 0)"/>
      <use xlink:href="#DejaVuSans-6f" transform="translate(361.083984 0)"/>
      <use xlink:href="#DejaVuSans-6e" transform="translate(422.265625 0)"/>
     </g>
    </g>
    <g id="line2d_38">
     <path d="M 493.151063 84.710393 
L 501.651063 84.710393 
L 510.151063 84.710393 
" style="fill: none; stroke-dasharray: 5.365,2.32; stroke-dashoffset: 0; stroke: #2ca02c; stroke-opacity: 0.96; stroke-width: 1.45"/>
    </g>
    <g id="text_20">
     <!-- SiLU+Lion -->
     <g transform="translate(515.591063 87.090393) scale(0.068 -0.068)">
      <use xlink:href="#DejaVuSans-53"/>
      <use xlink:href="#DejaVuSans-69" transform="translate(63.476562 0)"/>
      <use xlink:href="#DejaVuSans-4c" transform="translate(91.259766 0)"/>
      <use xlink:href="#DejaVuSans-55" transform="translate(141.972656 0)"/>
      <use xlink:href="#DejaVuSans-2b" transform="translate(215.166016 0)"/>
      <use xlink:href="#DejaVuSans-4c" transform="translate(298.955078 0)"/>
      <use xlink:href="#DejaVuSans-69" transform="translate(354.667969 0)"/>
      <use xlink:href="#DejaVuSans-6f" transform="translate(382.451172 0)"/>
      <use xlink:href="#DejaVuSans-6e" transform="translate(443.632812 0)"/>
     </g>
    </g>
    <g id="line2d_39">
     <path d="M 493.151063 93.671518 
L 501.651063 93.671518 
L 510.151063 93.671518 
" style="fill: none; stroke: #ff7f0e; stroke-opacity: 0.96; stroke-width: 1.35; stroke-linecap: square"/>
    </g>
    <g id="text_21">
     <!-- RLB+Muon -->
     <g transform="translate(515.591063 96.051518) scale(0.068 -0.068)">
      <use xlink:href="#DejaVuSans-52"/>
      <use xlink:href="#DejaVuSans-4c" transform="translate(69.482422 0)"/>
      <use xlink:href="#DejaVuSans-42" transform="translate(125.195312 0)"/>
      <use xlink:href="#DejaVuSans-2b" transform="translate(193.798828 0)"/>
      <use xlink:href="#DejaVuSans-4d" transform="translate(277.587891 0)"/>
      <use xlink:href="#DejaVuSans-75" transform="translate(363.867188 0)"/>
      <use xlink:href="#DejaVuSans-6f" transform="translate(427.246094 0)"/>
      <use xlink:href="#DejaVuSans-6e" transform="translate(488.427734 0)"/>
     </g>
    </g>
    <g id="line2d_40">
     <path d="M 567.724751 48.865893 
L 576.224751 48.865893 
L 584.724751 48.865893 
" style="fill: none; stroke-dasharray: 4.995,2.16; stroke-dashoffset: 0; stroke: #ff7f0e; stroke-opacity: 0.96; stroke-width: 1.35"/>
    </g>
    <g id="text_22">
     <!-- SiLU+Muon -->
     <g transform="translate(590.164751 51.245893) scale(0.068 -0.068)">
      <use xlink:href="#DejaVuSans-53"/>
      <use xlink:href="#DejaVuSans-69" transform="translate(63.476562 0)"/>
      <use xlink:href="#DejaVuSans-4c" transform="translate(91.259766 0)"/>
      <use xlink:href="#DejaVuSans-55" transform="translate(141.972656 0)"/>
      <use xlink:href="#DejaVuSans-2b" transform="translate(215.166016 0)"/>
      <use xlink:href="#DejaVuSans-4d" transform="translate(298.955078 0)"/>
      <use xlink:href="#DejaVuSans-75" transform="translate(385.234375 0)"/>
      <use xlink:href="#DejaVuSans-6f" transform="translate(448.613281 0)"/>
      <use xlink:href="#DejaVuSans-6e" transform="translate(509.794922 0)"/>
     </g>
    </g>
    <g id="line2d_41">
     <path d="M 567.724751 57.827018 
L 576.224751 57.827018 
L 584.724751 57.827018 
" style="fill: none; stroke: #8c564b; stroke-opacity: 0.96; stroke-width: 1.25; stroke-linecap: square"/>
    </g>
    <g id="text_23">
     <!-- RLB+ScheduleFree -->
     <g transform="translate(590.164751 60.207018) scale(0.068 -0.068)">
      <defs>
       <path id="DejaVuSans-68" d="M 3513 2113 
L 3513 0 
L 2938 0 
L 2938 2094 
Q 2938 2591 2744 2837 
Q 2550 3084 2163 3084 
Q 1697 3084 1428 2787 
Q 1159 2491 1159 1978 
L 1159 0 
L 581 0 
L 581 4863 
L 1159 4863 
L 1159 2956 
Q 1366 3272 1645 3428 
Q 1925 3584 2291 3584 
Q 2894 3584 3203 3211 
Q 3513 2838 3513 2113 
z
" transform="scale(0.015625)"/>
       <path id="DejaVuSans-46" d="M 628 4666 
L 3309 4666 
L 3309 4134 
L 1259 4134 
L 1259 2759 
L 3109 2759 
L 3109 2228 
L 1259 2228 
L 1259 0 
L 628 0 
L 628 4666 
z
" transform="scale(0.015625)"/>
      </defs>
      <use xlink:href="#DejaVuSans-52"/>
      <use xlink:href="#DejaVuSans-4c" transform="translate(69.482422 0)"/>
      <use xlink:href="#DejaVuSans-42" transform="translate(125.195312 0)"/>
      <use xlink:href="#DejaVuSans-2b" transform="translate(193.798828 0)"/>
      <use xlink:href="#DejaVuSans-53" transform="translate(277.587891 0)"/>
      <use xlink:href="#DejaVuSans-63" transform="translate(341.064453 0)"/>
      <use xlink:href="#DejaVuSans-68" transform="translate(396.044922 0)"/>
      <use xlink:href="#DejaVuSans-65" transform="translate(459.423828 0)"/>
      <use xlink:href="#DejaVuSans-64" transform="translate(520.947266 0)"/>
      <use xlink:href="#DejaVuSans-75" transform="translate(584.423828 0)"/>
      <use xlink:href="#DejaVuSans-6c" transform="translate(647.802734 0)"/>
      <use xlink:href="#DejaVuSans-65" transform="translate(675.585938 0)"/>
      <use xlink:href="#DejaVuSans-46" transform="translate(737.109375 0)"/>
      <use xlink:href="#DejaVuSans-72" transform="translate(787.378906 0)"/>
      <use xlink:href="#DejaVuSans-65" transform="translate(826.242188 0)"/>
      <use xlink:href="#DejaVuSans-65" transform="translate(887.765625 0)"/>
     </g>
    </g>
    <g id="line2d_42">
     <path d="M 567.724751 66.788143 
L 576.224751 66.788143 
L 584.724751 66.788143 
" style="fill: none; stroke-dasharray: 4.625,2; stroke-dashoffset: 0; stroke: #8c564b; stroke-opacity: 0.96; stroke-width: 1.25"/>
    </g>
    <g id="text_24">
     <!-- SiLU+ScheduleFree -->
     <g transform="translate(590.164751 69.168143) scale(0.068 -0.068)">
      <use xlink:href="#DejaVuSans-53"/>
      <use xlink:href="#DejaVuSans-69" transform="translate(63.476562 0)"/>
      <use xlink:href="#DejaVuSans-4c" transform="translate(91.259766 0)"/>
      <use xlink:href="#DejaVuSans-55" transform="translate(141.972656 0)"/>
      <use xlink:href="#DejaVuSans-2b" transform="translate(215.166016 0)"/>
      <use xlink:href="#DejaVuSans-53" transform="translate(298.955078 0)"/>
      <use xlink:href="#DejaVuSans-63" transform="translate(362.431641 0)"/>
      <use xlink:href="#DejaVuSans-68" transform="translate(417.412109 0)"/>
      <use xlink:href="#DejaVuSans-65" transform="translate(480.791016 0)"/>
      <use xlink:href="#DejaVuSans-64" transform="translate(542.314453 0)"/>
      <use xlink:href="#DejaVuSans-75" transform="translate(605.791016 0)"/>
      <use xlink:href="#DejaVuSans-6c" transform="translate(669.169922 0)"/>
      <use xlink:href="#DejaVuSans-65" transform="translate(696.953125 0)"/>
      <use xlink:href="#DejaVuSans-46" transform="translate(758.476562 0)"/>
      <use xlink:href="#DejaVuSans-72" transform="translate(808.746094 0)"/>
      <use xlink:href="#DejaVuSans-65" transform="translate(847.609375 0)"/>
      <use xlink:href="#DejaVuSans-65" transform="translate(909.132812 0)"/>
     </g>
    </g>
    <g id="line2d_43">
     <path d="M 567.724751 75.749268 
L 576.224751 75.749268 
L 584.724751 75.749268 
" style="fill: none; stroke: #17becf; stroke-opacity: 0.96; stroke-width: 1.25; stroke-linecap: square"/>
    </g>
    <g id="text_25">
     <!-- RLB+CAME -->
     <g transform="translate(590.164751 78.129268) scale(0.068 -0.068)">
      <use xlink:href="#DejaVuSans-52"/>
      <use xlink:href="#DejaVuSans-4c" transform="translate(69.482422 0)"/>
      <use xlink:href="#DejaVuSans-42" transform="translate(125.195312 0)"/>
      <use xlink:href="#DejaVuSans-2b" transform="translate(193.798828 0)"/>
      <use xlink:href="#DejaVuSans-43" transform="translate(277.587891 0)"/>
      <use xlink:href="#DejaVuSans-41" transform="translate(347.412109 0)"/>
      <use xlink:href="#DejaVuSans-4d" transform="translate(415.820312 0)"/>
      <use xlink:href="#DejaVuSans-45" transform="translate(502.099609 0)"/>
     </g>
    </g>
    <g id="line2d_44">
     <path d="M 567.724751 84.710393 
L 576.224751 84.710393 
L 584.724751 84.710393 
" style="fill: none; stroke-dasharray: 4.625,2; stroke-dashoffset: 0; stroke: #17becf; stroke-opacity: 0.96; stroke-width: 1.25"/>
    </g>
    <g id="text_26">
     <!-- SiLU+CAME -->
     <g transform="translate(590.164751 87.090393) scale(0.068 -0.068)">
      <use xlink:href="#DejaVuSans-53"/>
      <use xlink:href="#DejaVuSans-69" transform="translate(63.476562 0)"/>
      <use xlink:href="#DejaVuSans-4c" transform="translate(91.259766 0)"/>
      <use xlink:href="#DejaVuSans-55" transform="translate(141.972656 0)"/>
      <use xlink:href="#DejaVuSans-2b" transform="translate(215.166016 0)"/>
      <use xlink:href="#DejaVuSans-43" transform="translate(298.955078 0)"/>
      <use xlink:href="#DejaVuSans-41" transform="translate(368.779297 0)"/>
      <use xlink:href="#DejaVuSans-4d" transform="translate(437.1875 0)"/>
      <use xlink:href="#DejaVuSans-45" transform="translate(523.466797 0)"/>
     </g>
    </g>
   </g>
  </g>
 </g>
 <defs>
  <clipPath id="p2f4111a98c">
   <rect x="50.6" y="29.057143" width="613.052563" height="318.4"/>
  </clipPath>
 </defs>
</svg>
