<?xml version="1.0" encoding="utf-8" standalone="no"?>
<!DOCTYPE svg PUBLIC "-//W3C//DTD SVG 1.1//EN"
  "http://www.w3.org/Graphics/SVG/1.1/DTD/svg11.dtd">
<svg xmlns:xlink="http://www.w3.org/1999/xlink" width="676.8pt" height="388.8pt" viewBox="0 0 676.8 388.8" xmlns="http://www.w3.org/2000/svg" version="1.1">
 <metadata>
  <rdf:RDF xmlns:dc="http://purl.org/dc/elements/1.1/" xmlns:cc="http://creativecommons.org/ns#" xmlns:rdf="http://www.w3.org/1999/02/22-rdf-syntax-ns#">
   <cc:Work>
    <dc:type rdf:resource="http://purl.org/dc/dcmitype/StillImage"/>
    <dc:date>2026-06-07T16:49:34.678568</dc:date>
    <dc:format>image/svg+xml</dc:format>
    <dc:creator>
     <cc:Agent>
      <dc:title>Matplotlib v3.10.8, https://matplotlib.org/</dc:title>
     </cc:Agent>
    </dc:creator>
   </cc:Work>
  </rdf:RDF>
 </metadata>
 <defs>
  <style type="text/css">*{stroke-linejoin: round; stroke-linecap: butt}</style>
 </defs>
 <g id="figure_1">
  <g id="patch_1">
   <path d="M 0 388.8 
L 676.8 388.8 
L 676.8 0 
L 0 0 
z
" style="fill: #ffffff"/>
  </g>
  <g id="axes_1">
   <g id="patch_2">
    <path d="M 54.007143 347.457143 
L 663.652563 347.457143 
L 663.652563 29.057143 
L 54.007143 29.057143 
z
" style="fill: #ffffff"/>
   </g>
   <g id="FillBetweenPolyCollection_1">
    <defs>
     <path id="m1957a224f9" d="M 54.007143 -222.814006 
L 54.007143 -218.343968 
L 65.960975 -206.300601 
L 77.914806 -195.958439 
L 89.868638 -186.88457 
L 101.82247 -179.109097 
L 113.776302 -171.897762 
L 125.730133 -165.195474 
L 137.683965 -160.324116 
L 149.637797 -154.125838 
L 161.591629 -149.225144 
L 173.545461 -143.609303 
L 185.499292 -137.816348 
L 197.453124 -131.731098 
L 209.406956 -126.773163 
L 221.360788 -121.474577 
L 233.314619 -117.47484 
L 245.268451 -113.077236 
L 257.222283 -109.333422 
L 269.176115 -105.577874 
L 281.129946 -102.490836 
L 293.083778 -99.440393 
L 305.03761 -96.557837 
L 316.991442 -93.546375 
L 328.945274 -91.385338 
L 340.899105 -88.682889 
L 352.852937 -86.394796 
L 364.806769 -84.333519 
L 376.760601 -82.381809 
L 388.714432 -80.227705 
L 400.668264 -78.615776 
L 412.622096 -76.519452 
L 424.575928 -74.884395 
L 436.529759 -73.395569 
L 448.483591 -71.512067 
L 460.437423 -70.233424 
L 472.391255 -68.762525 
L 484.345087 -67.388255 
L 496.298918 -66.300796 
L 508.25275 -65.077197 
L 520.206582 -64.186703 
L 532.160414 -63.017037 
L 544.114245 -62.129479 
L 556.068077 -61.2763 
L 568.021909 -60.436676 
L 579.975741 -59.479498 
L 591.929572 -58.684624 
L 603.883404 -58.198555 
L 615.837236 -57.626968 
L 627.791068 -57.053874 
L 639.744899 -56.51885 
L 651.698731 -56.06124 
L 663.652563 -55.815584 
L 663.652563 -58.487646 
L 663.652563 -58.487646 
L 651.698731 -58.931802 
L 639.744899 -59.343896 
L 627.791068 -60.027692 
L 615.837236 -60.49492 
L 603.883404 -61.051936 
L 591.929572 -61.800173 
L 579.975741 -62.283452 
L 568.021909 -62.979607 
L 556.068077 -63.844863 
L 544.114245 -64.674009 
L 532.160414 -65.57637 
L 520.206582 -66.733103 
L 508.25275 -67.850639 
L 496.298918 -69.115774 
L 484.345087 -70.090188 
L 472.391255 -71.47116 
L 460.437423 -73.192041 
L 448.483591 -74.465833 
L 436.529759 -75.996232 
L 424.575928 -77.751678 
L 412.622096 -79.614256 
L 400.668264 -81.058918 
L 388.714432 -83.274425 
L 376.760601 -85.345447 
L 364.806769 -87.818203 
L 352.852937 -89.591026 
L 340.899105 -91.889238 
L 328.945274 -94.358825 
L 316.991442 -97.214602 
L 305.03761 -99.765349 
L 293.083778 -102.483896 
L 281.129946 -105.817736 
L 269.176115 -109.252015 
L 257.222283 -112.968522 
L 245.268451 -116.807687 
L 233.314619 -121.4837 
L 221.360788 -125.87056 
L 209.406956 -130.939006 
L 197.453124 -136.692265 
L 185.499292 -142.388425 
L 173.545461 -146.949221 
L 161.591629 -152.572412 
L 149.637797 -158.28941 
L 137.683965 -163.110656 
L 125.730133 -168.913848 
L 113.776302 -174.289908 
L 101.82247 -181.75595 
L 89.868638 -190.710048 
L 77.914806 -200.576767 
L 65.960975 -210.84973 
L 54.007143 -222.814006 
z
"/>
    </defs>
    <g clip-path="url(#p6623cb806b)">
     <use xlink:href="#m1957a224f9" x="0" y="388.8" style="fill: #111111; fill-opacity: 0.16"/>
    </g>
   </g>
   <g id="FillBetweenPolyCollection_2">
    <defs>
     <path id="m1d3f758b06" d="M 54.007143 -327.839304 
L 54.007143 -324.25413 
L 65.960975 -310.972376 
L 77.914806 -300.37237 
L 89.868638 -290.680577 
L 101.82247 -281.617563 
L 113.776302 -273.973372 
L 125.730133 -266.438588 
L 137.683965 -260.141732 
L 149.637797 -253.194201 
L 161.591629 -246.573688 
L 173.545461 -241.375304 
L 185.499292 -235.840095 
L 197.453124 -230.943873 
L 209.406956 -226.760371 
L 221.360788 -222.390788 
L 233.314619 -217.901471 
L 245.268451 -213.979863 
L 257.222283 -210.782844 
L 269.176115 -206.73213 
L 281.129946 -203.479174 
L 293.083778 -200.248781 
L 305.03761 -197.262407 
L 316.991442 -194.568195 
L 328.945274 -191.775643 
L 340.899105 -189.329711 
L 352.852937 -186.777291 
L 364.806769 -184.535432 
L 376.760601 -182.472092 
L 388.714432 -180.223663 
L 400.668264 -178.219872 
L 412.622096 -176.284665 
L 424.575928 -174.630837 
L 436.529759 -172.94477 
L 448.483591 -171.327355 
L 460.437423 -169.780965 
L 472.391255 -168.406643 
L 484.345087 -167.039817 
L 496.298918 -165.74396 
L 508.25275 -164.521953 
L 520.206582 -163.403187 
L 532.160414 -162.298024 
L 544.114245 -161.27418 
L 556.068077 -160.33066 
L 568.021909 -159.378492 
L 579.975741 -158.513583 
L 591.929572 -157.738713 
L 603.883404 -156.902164 
L 615.837236 -156.148344 
L 627.791068 -155.442429 
L 639.744899 -154.767235 
L 651.698731 -154.074131 
L 663.652563 -153.473296 
L 663.652563 -156.670565 
L 663.652563 -156.670565 
L 651.698731 -157.334873 
L 639.744899 -157.98826 
L 627.791068 -158.741039 
L 615.837236 -159.438832 
L 603.883404 -160.202121 
L 591.929572 -161.057306 
L 579.975741 -161.919159 
L 568.021909 -162.86294 
L 556.068077 -163.807294 
L 544.114245 -164.773396 
L 532.160414 -165.795802 
L 520.206582 -166.986336 
L 508.25275 -168.175917 
L 496.298918 -169.375612 
L 484.345087 -170.690443 
L 472.391255 -172.106319 
L 460.437423 -173.585692 
L 448.483591 -175.126642 
L 436.529759 -176.733421 
L 424.575928 -178.497765 
L 412.622096 -180.205031 
L 400.668264 -182.136921 
L 388.714432 -184.065458 
L 376.760601 -186.130256 
L 364.806769 -188.629632 
L 352.852937 -190.761684 
L 340.899105 -193.248903 
L 328.945274 -195.77103 
L 316.991442 -198.40311 
L 305.03761 -201.561968 
L 293.083778 -204.538958 
L 281.129946 -207.673265 
L 269.176115 -211.062905 
L 257.222283 -214.668235 
L 245.268451 -218.301043 
L 233.314619 -221.97916 
L 221.360788 -226.290246 
L 209.406956 -230.93067 
L 197.453124 -235.807369 
L 185.499292 -240.540423 
L 173.545461 -245.935107 
L 161.591629 -251.549299 
L 149.637797 -257.461141 
L 137.683965 -264.913451 
L 125.730133 -271.461376 
L 113.776302 -279.746212 
L 101.82247 -287.732611 
L 89.868638 -297.02297 
L 77.914806 -306.89468 
L 65.960975 -316.835744 
L 54.007143 -327.839304 
z
"/>
    </defs>
    <g clip-path="url(#p6623cb806b)">
     <use xlink:href="#m1d3f758b06" x="0" y="388.8" style="fill: #8c564b; fill-opacity: 0.06"/>
    </g>
   </g>
   <g id="FillBetweenPolyCollection_3">
    <defs>
     <path id="ma23b2de71c" d="M 54.007143 -335.723594 
L 54.007143 -327.959158 
L 65.960975 -316.315375 
L 77.914806 -307.065287 
L 89.868638 -297.396604 
L 101.82247 -288.02084 
L 113.776302 -279.863288 
L 125.730133 -272.574788 
L 137.683965 -266.445775 
L 149.637797 -259.555251 
L 161.591629 -253.288832 
L 173.545461 -248.758512 
L 185.499292 -242.890708 
L 197.453124 -237.752558 
L 209.406956 -233.76757 
L 221.360788 -229.17285 
L 233.314619 -224.864347 
L 245.268451 -221.382392 
L 257.222283 -217.712117 
L 269.176115 -214.070361 
L 281.129946 -210.756467 
L 293.083778 -207.560249 
L 305.03761 -204.64677 
L 316.991442 -201.864413 
L 328.945274 -199.109683 
L 340.899105 -196.6352 
L 352.852937 -194.211451 
L 364.806769 -191.825223 
L 376.760601 -189.871514 
L 388.714432 -187.587327 
L 400.668264 -185.637371 
L 412.622096 -183.738529 
L 424.575928 -181.993623 
L 436.529759 -180.349572 
L 448.483591 -178.741779 
L 460.437423 -177.193827 
L 472.391255 -175.791432 
L 484.345087 -174.42808 
L 496.298918 -173.058213 
L 508.25275 -171.854411 
L 520.206582 -170.695274 
L 532.160414 -169.59379 
L 544.114245 -168.535185 
L 556.068077 -167.596778 
L 568.021909 -166.606341 
L 579.975741 -165.726124 
L 591.929572 -164.918342 
L 603.883404 -164.112798 
L 615.837236 -163.319172 
L 627.791068 -162.596563 
L 639.744899 -161.913193 
L 651.698731 -161.21675 
L 663.652563 -160.581511 
L 663.652563 -162.632762 
L 663.652563 -162.632762 
L 651.698731 -163.282519 
L 639.744899 -163.908482 
L 627.791068 -164.624724 
L 615.837236 -165.353947 
L 603.883404 -166.13933 
L 591.929572 -166.942867 
L 579.975741 -167.804806 
L 568.021909 -168.745524 
L 556.068077 -169.60425 
L 544.114245 -170.598873 
L 532.160414 -171.666382 
L 520.206582 -172.815441 
L 508.25275 -173.939937 
L 496.298918 -175.184217 
L 484.345087 -176.460422 
L 472.391255 -177.848755 
L 460.437423 -179.36101 
L 448.483591 -180.838408 
L 436.529759 -182.389848 
L 424.575928 -184.094106 
L 412.622096 -185.804202 
L 400.668264 -187.673282 
L 388.714432 -189.64395 
L 376.760601 -191.66223 
L 364.806769 -194.029986 
L 352.852937 -196.149031 
L 340.899105 -198.630451 
L 328.945274 -200.915189 
L 316.991442 -203.713033 
L 305.03761 -206.559601 
L 293.083778 -209.690428 
L 281.129946 -212.529828 
L 269.176115 -215.927543 
L 257.222283 -219.446362 
L 245.268451 -223.063791 
L 233.314619 -226.98848 
L 221.360788 -231.388048 
L 209.406956 -235.702269 
L 197.453124 -240.548701 
L 185.499292 -245.751382 
L 173.545461 -250.874065 
L 161.591629 -256.77029 
L 149.637797 -262.751849 
L 137.683965 -269.223949 
L 125.730133 -276.224367 
L 113.776302 -284.560108 
L 101.82247 -292.438353 
L 89.868638 -301.740677 
L 77.914806 -310.279778 
L 65.960975 -322.070687 
L 54.007143 -335.723594 
z
"/>
    </defs>
    <g clip-path="url(#p6623cb806b)">
     <use xlink:href="#ma23b2de71c" x="0" y="388.8" style="fill: #8c564b; fill-opacity: 0.06"/>
    </g>
   </g>
   <g id="FillBetweenPolyCollection_4">
    <defs>
     <path id="me9d613093a" d="M 54.007143 -332.471732 
L 54.007143 -326.148242 
L 65.960975 -315.7783 
L 77.914806 -305.915293 
L 89.868638 -297.212658 
L 101.82247 -289.709395 
L 113.776302 -282.465996 
L 125.730133 -275.589414 
L 137.683965 -270.257143 
L 149.637797 -263.59917 
L 161.591629 -257.717061 
L 173.545461 -252.316247 
L 185.499292 -247.589557 
L 197.453124 -242.905032 
L 209.406956 -238.274834 
L 221.360788 -233.851576 
L 233.314619 -230.371777 
L 245.268451 -225.981587 
L 257.222283 -222.863676 
L 269.176115 -219.297165 
L 281.129946 -216.222115 
L 293.083778 -213.042695 
L 305.03761 -210.267113 
L 316.991442 -207.674509 
L 328.945274 -204.740889 
L 340.899105 -202.900094 
L 352.852937 -200.471805 
L 364.806769 -198.084522 
L 376.760601 -196.461019 
L 388.714432 -194.264311 
L 400.668264 -192.568052 
L 412.622096 -190.762818 
L 424.575928 -189.515295 
L 436.529759 -187.720609 
L 448.483591 -186.125223 
L 460.437423 -184.616489 
L 472.391255 -183.276526 
L 484.345087 -182.466507 
L 496.298918 -181.305331 
L 508.25275 -180.184559 
L 520.206582 -179.284028 
L 532.160414 -178.294172 
L 544.114245 -177.542511 
L 556.068077 -176.836714 
L 568.021909 -176.12069 
L 579.975741 -175.386393 
L 591.929572 -174.851977 
L 603.883404 -174.308992 
L 615.837236 -173.75861 
L 627.791068 -173.219822 
L 639.744899 -172.826731 
L 651.698731 -172.489385 
L 663.652563 -172.066792 
L 663.652563 -173.378485 
L 663.652563 -173.378485 
L 651.698731 -173.739477 
L 639.744899 -174.180133 
L 627.791068 -174.559597 
L 615.837236 -175.061222 
L 603.883404 -175.571465 
L 591.929572 -176.204488 
L 579.975741 -176.797774 
L 568.021909 -177.472633 
L 556.068077 -178.183997 
L 544.114245 -178.909459 
L 532.160414 -179.761162 
L 520.206582 -180.737741 
L 508.25275 -181.698436 
L 496.298918 -182.789178 
L 484.345087 -183.788554 
L 472.391255 -185.004753 
L 460.437423 -186.354845 
L 448.483591 -187.803573 
L 436.529759 -189.152414 
L 424.575928 -190.550275 
L 412.622096 -192.581103 
L 400.668264 -194.128499 
L 388.714432 -195.825342 
L 376.760601 -198.044367 
L 364.806769 -200.588367 
L 352.852937 -202.567072 
L 340.899105 -205.009152 
L 328.945274 -207.335951 
L 316.991442 -209.756735 
L 305.03761 -212.642065 
L 293.083778 -215.372104 
L 281.129946 -218.320589 
L 269.176115 -222.051686 
L 257.222283 -225.082753 
L 245.268451 -228.744698 
L 233.314619 -232.630271 
L 221.360788 -236.727644 
L 209.406956 -241.030959 
L 197.453124 -245.514129 
L 185.499292 -250.491562 
L 173.545461 -255.769824 
L 161.591629 -261.170061 
L 149.637797 -267.441615 
L 137.683965 -273.765999 
L 125.730133 -280.66991 
L 113.776302 -286.825654 
L 101.82247 -294.511374 
L 89.868638 -302.905567 
L 77.914806 -312.367273 
L 65.960975 -322.275619 
L 54.007143 -332.471732 
z
"/>
    </defs>
    <g clip-path="url(#p6623cb806b)">
     <use xlink:href="#me9d613093a" x="0" y="388.8" style="fill: #17becf; fill-opacity: 0.06"/>
    </g>
   </g>
   <g id="FillBetweenPolyCollection_5">
    <defs>
     <path id="m2cd55f4633" d="M 54.007143 -345.27013 
L 54.007143 -335.961296 
L 65.960975 -324.503078 
L 77.914806 -313.24305 
L 89.868638 -303.771035 
L 101.82247 -294.963348 
L 113.776302 -287.311419 
L 125.730133 -279.348414 
L 137.683965 -272.7935 
L 149.637797 -266.569782 
L 161.591629 -260.710519 
L 173.545461 -255.032788 
L 185.499292 -250.318341 
L 197.453124 -245.17998 
L 209.406956 -240.512327 
L 221.360788 -236.440624 
L 233.314619 -232.716217 
L 245.268451 -228.484494 
L 257.222283 -225.33664 
L 269.176115 -221.764572 
L 281.129946 -218.457173 
L 293.083778 -215.660341 
L 305.03761 -213.049523 
L 316.991442 -210.065426 
L 328.945274 -207.505611 
L 340.899105 -205.265236 
L 352.852937 -203.020291 
L 364.806769 -200.416296 
L 376.760601 -198.754709 
L 388.714432 -196.606323 
L 400.668264 -194.673446 
L 412.622096 -192.931564 
L 424.575928 -191.375604 
L 436.529759 -189.650998 
L 448.483591 -188.092405 
L 460.437423 -186.503345 
L 472.391255 -185.245872 
L 484.345087 -184.290423 
L 496.298918 -183.049341 
L 508.25275 -181.827552 
L 520.206582 -181.055251 
L 532.160414 -180.028479 
L 544.114245 -179.079018 
L 556.068077 -178.355059 
L 568.021909 -177.556835 
L 579.975741 -176.811776 
L 591.929572 -176.291123 
L 603.883404 -175.752375 
L 615.837236 -175.106694 
L 627.791068 -174.539279 
L 639.744899 -174.121672 
L 651.698731 -173.623413 
L 663.652563 -173.294209 
L 663.652563 -176.782708 
L 663.652563 -176.782708 
L 651.698731 -177.246001 
L 639.744899 -177.670072 
L 627.791068 -177.995264 
L 615.837236 -178.470737 
L 603.883404 -179.019656 
L 591.929572 -179.614868 
L 579.975741 -180.12702 
L 568.021909 -180.88633 
L 556.068077 -181.599407 
L 544.114245 -182.418893 
L 532.160414 -183.133795 
L 520.206582 -184.022002 
L 508.25275 -185.122228 
L 496.298918 -186.058785 
L 484.345087 -187.036509 
L 472.391255 -188.237696 
L 460.437423 -189.8395 
L 448.483591 -191.15316 
L 436.529759 -192.623608 
L 424.575928 -194.04248 
L 412.622096 -195.847568 
L 400.668264 -197.607192 
L 388.714432 -199.203642 
L 376.760601 -201.28817 
L 364.806769 -203.687708 
L 352.852937 -205.876562 
L 340.899105 -208.240118 
L 328.945274 -210.544181 
L 316.991442 -212.756417 
L 305.03761 -215.581947 
L 293.083778 -218.602125 
L 281.129946 -221.52709 
L 269.176115 -225.23049 
L 257.222283 -228.357786 
L 245.268451 -232.079825 
L 233.314619 -235.797348 
L 221.360788 -239.660287 
L 209.406956 -244.293503 
L 197.453124 -248.717655 
L 185.499292 -254.160567 
L 173.545461 -259.19942 
L 161.591629 -264.543373 
L 149.637797 -271.214756 
L 137.683965 -277.751995 
L 125.730133 -284.992058 
L 113.776302 -292.611159 
L 101.82247 -301.416531 
L 89.868638 -310.930164 
L 77.914806 -321.003059 
L 65.960975 -332.383385 
L 54.007143 -345.27013 
z
"/>
    </defs>
    <g clip-path="url(#p6623cb806b)">
     <use xlink:href="#m2cd55f4633" x="0" y="388.8" style="fill: #17becf; fill-opacity: 0.06"/>
    </g>
   </g>
   <g id="matplotlib.axis_1">
    <g id="xtick_1">
     <g id="line2d_1">
      <path d="M 54.007143 347.457143 
L 54.007143 29.057143 
" clip-path="url(#p6623cb806b)" style="fill: none; stroke: #d8d8d8; stroke-opacity: 0.75; stroke-width: 0.65; stroke-linecap: square"/>
     </g>
     <g id="line2d_2">
      <defs>
       <path id="m7e790f2158" d="M 0 0 
L 0 3.5 
" style="stroke: #000000; stroke-width: 0.8"/>
      </defs>
      <g>
       <use xlink:href="#m7e790f2158" x="54.007143" y="347.457143" style="stroke: #000000; stroke-width: 0.8"/>
      </g>
     </g>
     <g id="text_1">
      <!-- 500 -->
      <g transform="translate(44.463393 362.05558) scale(0.1 -0.1)">
       <defs>
        <path id="DejaVuSans-35" d="M 691 4666 
L 3169 4666 
L 3169 4134 
L 1269 4134 
L 1269 2991 
Q 1406 3038 1543 3061 
Q 1681 3084 1819 3084 
Q 2600 3084 3056 2656 
Q 3513 2228 3513 1497 
Q 3513 744 3044 326 
Q 2575 -91 1722 -91 
Q 1428 -91 1123 -41 
Q 819 9 494 109 
L 494 744 
Q 775 591 1075 516 
Q 1375 441 1709 441 
Q 2250 441 2565 725 
Q 2881 1009 2881 1497 
Q 2881 1984 2565 2268 
Q 2250 2553 1709 2553 
Q 1456 2553 1204 2497 
Q 953 2441 691 2322 
L 691 4666 
z
" transform="scale(0.015625)"/>
        <path id="DejaVuSans-30" d="M 2034 4250 
Q 1547 4250 1301 3770 
Q 1056 3291 1056 2328 
Q 1056 1369 1301 889 
Q 1547 409 2034 409 
Q 2525 409 2770 889 
Q 3016 1369 3016 2328 
Q 3016 3291 2770 3770 
Q 2525 4250 2034 4250 
z
M 2034 4750 
Q 2819 4750 3233 4129 
Q 3647 3509 3647 2328 
Q 3647 1150 3233 529 
Q 2819 -91 2034 -91 
Q 1250 -91 836 529 
Q 422 1150 422 2328 
Q 422 3509 836 4129 
Q 1250 4750 2034 4750 
z
" transform="scale(0.015625)"/>
       </defs>
       <use xlink:href="#DejaVuSans-35"/>
       <use xlink:href="#DejaVuSans-30" transform="translate(63.623047 0)"/>
       <use xlink:href="#DejaVuSans-30" transform="translate(127.246094 0)"/>
      </g>
     </g>
    </g>
    <g id="xtick_2">
     <g id="line2d_3">
      <path d="M 173.545461 347.457143 
L 173.545461 29.057143 
" clip-path="url(#p6623cb806b)" style="fill: none; stroke: #d8d8d8; stroke-opacity: 0.75; stroke-width: 0.65; stroke-linecap: square"/>
     </g>
     <g id="line2d_4">
      <g>
       <use xlink:href="#m7e790f2158" x="173.545461" y="347.457143" style="stroke: #000000; stroke-width: 0.8"/>
      </g>
     </g>
     <g id="text_2">
      <!-- 1000 -->
      <g transform="translate(160.820461 362.05558) scale(0.1 -0.1)">
       <defs>
        <path id="DejaVuSans-31" d="M 794 531 
L 1825 531 
L 1825 4091 
L 703 3866 
L 703 4441 
L 1819 4666 
L 2450 4666 
L 2450 531 
L 3481 531 
L 3481 0 
L 794 0 
L 794 531 
z
" transform="scale(0.015625)"/>
       </defs>
       <use xlink:href="#DejaVuSans-31"/>
       <use xlink:href="#DejaVuSans-30" transform="translate(63.623047 0)"/>
       <use xlink:href="#DejaVuSans-30" transform="translate(127.246094 0)"/>
       <use xlink:href="#DejaVuSans-30" transform="translate(190.869141 0)"/>
      </g>
     </g>
    </g>
    <g id="xtick_3">
     <g id="line2d_5">
      <path d="M 293.083778 347.457143 
L 293.083778 29.057143 
" clip-path="url(#p6623cb806b)" style="fill: none; stroke: #d8d8d8; stroke-opacity: 0.75; stroke-width: 0.65; stroke-linecap: square"/>
     </g>
     <g id="line2d_6">
      <g>
       <use xlink:href="#m7e790f2158" x="293.083778" y="347.457143" style="stroke: #000000; stroke-width: 0.8"/>
      </g>
     </g>
     <g id="text_3">
      <!-- 1500 -->
      <g transform="translate(280.358778 362.05558) scale(0.1 -0.1)">
       <use xlink:href="#DejaVuSans-31"/>
       <use xlink:href="#DejaVuSans-35" transform="translate(63.623047 0)"/>
       <use xlink:href="#DejaVuSans-30" transform="translate(127.246094 0)"/>
       <use xlink:href="#DejaVuSans-30" transform="translate(190.869141 0)"/>
      </g>
     </g>
    </g>
    <g id="xtick_4">
     <g id="line2d_7">
      <path d="M 412.622096 347.457143 
L 412.622096 29.057143 
" clip-path="url(#p6623cb806b)" style="fill: none; stroke: #d8d8d8; stroke-opacity: 0.75; stroke-width: 0.65; stroke-linecap: square"/>
     </g>
     <g id="line2d_8">
      <g>
       <use xlink:href="#m7e790f2158" x="412.622096" y="347.457143" style="stroke: #000000; stroke-width: 0.8"/>
      </g>
     </g>
     <g id="text_4">
      <!-- 2000 -->
      <g transform="translate(399.897096 362.05558) scale(0.1 -0.1)">
       <defs>
        <path id="DejaVuSans-32" d="M 1228 531 
L 3431 531 
L 3431 0 
L 469 0 
L 469 531 
Q 828 903 1448 1529 
Q 2069 2156 2228 2338 
Q 2531 2678 2651 2914 
Q 2772 3150 2772 3378 
Q 2772 3750 2511 3984 
Q 2250 4219 1831 4219 
Q 1534 4219 1204 4116 
Q 875 4013 500 3803 
L 500 4441 
Q 881 4594 1212 4672 
Q 1544 4750 1819 4750 
Q 2544 4750 2975 4387 
Q 3406 4025 3406 3419 
Q 3406 3131 3298 2873 
Q 3191 2616 2906 2266 
Q 2828 2175 2409 1742 
Q 1991 1309 1228 531 
z
" transform="scale(0.015625)"/>
       </defs>
       <use xlink:href="#DejaVuSans-32"/>
       <use xlink:href="#DejaVuSans-30" transform="translate(63.623047 0)"/>
       <use xlink:href="#DejaVuSans-30" transform="translate(127.246094 0)"/>
       <use xlink:href="#DejaVuSans-30" transform="translate(190.869141 0)"/>
      </g>
     </g>
    </g>
    <g id="xtick_5">
     <g id="line2d_9">
      <path d="M 532.160414 347.457143 
L 532.160414 29.057143 
" clip-path="url(#p6623cb806b)" style="fill: none; stroke: #d8d8d8; stroke-opacity: 0.75; stroke-width: 0.65; stroke-linecap: square"/>
     </g>
     <g id="line2d_10">
      <g>
       <use xlink:href="#m7e790f2158" x="532.160414" y="347.457143" style="stroke: #000000; stroke-width: 0.8"/>
      </g>
     </g>
     <g id="text_5">
      <!-- 2500 -->
      <g transform="translate(519.435414 362.05558) scale(0.1 -0.1)">
       <use xlink:href="#DejaVuSans-32"/>
       <use xlink:href="#DejaVuSans-35" transform="translate(63.623047 0)"/>
       <use xlink:href="#DejaVuSans-30" transform="translate(127.246094 0)"/>
       <use xlink:href="#DejaVuSans-30" transform="translate(190.869141 0)"/>
      </g>
     </g>
    </g>
    <g id="xtick_6">
     <g id="line2d_11">
      <path d="M 651.698731 347.457143 
L 651.698731 29.057143 
" clip-path="url(#p6623cb806b)" style="fill: none; stroke: #d8d8d8; stroke-opacity: 0.75; stroke-width: 0.65; stroke-linecap: square"/>
     </g>
     <g id="line2d_12">
      <g>
       <use xlink:href="#m7e790f2158" x="651.698731" y="347.457143" style="stroke: #000000; stroke-width: 0.8"/>
      </g>
     </g>
     <g id="text_6">
      <!-- 3000 -->
      <g transform="translate(638.973731 362.05558) scale(0.1 -0.1)">
       <defs>
        <path id="DejaVuSans-33" d="M 2597 2516 
Q 3050 2419 3304 2112 
Q 3559 1806 3559 1356 
Q 3559 666 3084 287 
Q 2609 -91 1734 -91 
Q 1441 -91 1130 -33 
Q 819 25 488 141 
L 488 750 
Q 750 597 1062 519 
Q 1375 441 1716 441 
Q 2309 441 2620 675 
Q 2931 909 2931 1356 
Q 2931 1769 2642 2001 
Q 2353 2234 1838 2234 
L 1294 2234 
L 1294 2753 
L 1863 2753 
Q 2328 2753 2575 2939 
Q 2822 3125 2822 3475 
Q 2822 3834 2567 4026 
Q 2313 4219 1838 4219 
Q 1578 4219 1281 4162 
Q 984 4106 628 3988 
L 628 4550 
Q 988 4650 1302 4700 
Q 1616 4750 1894 4750 
Q 2613 4750 3031 4423 
Q 3450 4097 3450 3541 
Q 3450 3153 3228 2886 
Q 3006 2619 2597 2516 
z
" transform="scale(0.015625)"/>
       </defs>
       <use xlink:href="#DejaVuSans-33"/>
       <use xlink:href="#DejaVuSans-30" transform="translate(63.623047 0)"/>
       <use xlink:href="#DejaVuSans-30" transform="translate(127.246094 0)"/>
       <use xlink:href="#DejaVuSans-30" transform="translate(190.869141 0)"/>
      </g>
     </g>
    </g>
    <g id="text_7">
     <!-- step -->
     <g transform="translate(348.014228 375.733705) scale(0.1 -0.1)">
      <defs>
       <path id="DejaVuSans-73" d="M 2834 3397 
L 2834 2853 
Q 2591 2978 2328 3040 
Q 2066 3103 1784 3103 
Q 1356 3103 1142 2972 
Q 928 2841 928 2578 
Q 928 2378 1081 2264 
Q 1234 2150 1697 2047 
L 1894 2003 
Q 2506 1872 2764 1633 
Q 3022 1394 3022 966 
Q 3022 478 2636 193 
Q 2250 -91 1575 -91 
Q 1294 -91 989 -36 
Q 684 19 347 128 
L 347 722 
Q 666 556 975 473 
Q 1284 391 1588 391 
Q 1994 391 2212 530 
Q 2431 669 2431 922 
Q 2431 1156 2273 1281 
Q 2116 1406 1581 1522 
L 1381 1569 
Q 847 1681 609 1914 
Q 372 2147 372 2553 
Q 372 3047 722 3315 
Q 1072 3584 1716 3584 
Q 2034 3584 2315 3537 
Q 2597 3491 2834 3397 
z
" transform="scale(0.015625)"/>
       <path id="DejaVuSans-74" d="M 1172 4494 
L 1172 3500 
L 2356 3500 
L 2356 3053 
L 1172 3053 
L 1172 1153 
Q 1172 725 1289 603 
Q 1406 481 1766 481 
L 2356 481 
L 2356 0 
L 1766 0 
Q 1100 0 847 248 
Q 594 497 594 1153 
L 594 3053 
L 172 3053 
L 172 3500 
L 594 3500 
L 594 4494 
L 1172 4494 
z
" transform="scale(0.015625)"/>
       <path id="DejaVuSans-65" d="M 3597 1894 
L 3597 1613 
L 953 1613 
Q 991 1019 1311 708 
Q 1631 397 2203 397 
Q 2534 397 2845 478 
Q 3156 559 3463 722 
L 3463 178 
Q 3153 47 2828 -22 
Q 2503 -91 2169 -91 
Q 1331 -91 842 396 
Q 353 884 353 1716 
Q 353 2575 817 3079 
Q 1281 3584 2069 3584 
Q 2775 3584 3186 3129 
Q 3597 2675 3597 1894 
z
M 3022 2063 
Q 3016 2534 2758 2815 
Q 2500 3097 2075 3097 
Q 1594 3097 1305 2825 
Q 1016 2553 972 2059 
L 3022 2063 
z
" transform="scale(0.015625)"/>
       <path id="DejaVuSans-70" d="M 1159 525 
L 1159 -1331 
L 581 -1331 
L 581 3500 
L 1159 3500 
L 1159 2969 
Q 1341 3281 1617 3432 
Q 1894 3584 2278 3584 
Q 2916 3584 3314 3078 
Q 3713 2572 3713 1747 
Q 3713 922 3314 415 
Q 2916 -91 2278 -91 
Q 1894 -91 1617 61 
Q 1341 213 1159 525 
z
M 3116 1747 
Q 3116 2381 2855 2742 
Q 2594 3103 2138 3103 
Q 1681 3103 1420 2742 
Q 1159 2381 1159 1747 
Q 1159 1113 1420 752 
Q 1681 391 2138 391 
Q 2594 391 2855 752 
Q 3116 1113 3116 1747 
z
" transform="scale(0.015625)"/>
      </defs>
      <use xlink:href="#DejaVuSans-73"/>
      <use xlink:href="#DejaVuSans-74" transform="translate(52.099609 0)"/>
      <use xlink:href="#DejaVuSans-65" transform="translate(91.308594 0)"/>
      <use xlink:href="#DejaVuSans-70" transform="translate(152.832031 0)"/>
     </g>
    </g>
   </g>
   <g id="matplotlib.axis_2">
    <g id="ytick_1">
     <g id="line2d_13">
      <path d="M 54.007143 344.144479 
L 663.652563 344.144479 
" clip-path="url(#p6623cb806b)" style="fill: none; stroke: #d8d8d8; stroke-opacity: 0.75; stroke-width: 0.65; stroke-linecap: square"/>
     </g>
     <g id="line2d_14">
      <defs>
       <path id="m829386cedc" d="M 0 0 
L -3.5 0 
" style="stroke: #000000; stroke-width: 0.8"/>
      </defs>
      <g>
       <use xlink:href="#m829386cedc" x="54.007143" y="344.144479" style="stroke: #000000; stroke-width: 0.8"/>
      </g>
     </g>
     <g id="text_8">
      <!-- 4.00 -->
      <g transform="translate(24.741518 347.943697) scale(0.1 -0.1)">
       <defs>
        <path id="DejaVuSans-34" d="M 2419 4116 
L 825 1625 
L 2419 1625 
L 2419 4116 
z
M 2253 4666 
L 3047 4666 
L 3047 1625 
L 3713 1625 
L 3713 1100 
L 3047 1100 
L 3047 0 
L 2419 0 
L 2419 1100 
L 313 1100 
L 313 1709 
L 2253 4666 
z
" transform="scale(0.015625)"/>
        <path id="DejaVuSans-2e" d="M 684 794 
L 1344 794 
L 1344 0 
L 684 0 
L 684 794 
z
" transform="scale(0.015625)"/>
       </defs>
       <use xlink:href="#DejaVuSans-34"/>
       <use xlink:href="#DejaVuSans-2e" transform="translate(63.623047 0)"/>
       <use xlink:href="#DejaVuSans-30" transform="translate(95.410156 0)"/>
       <use xlink:href="#DejaVuSans-30" transform="translate(159.033203 0)"/>
      </g>
     </g>
    </g>
    <g id="ytick_2">
     <g id="line2d_15">
      <path d="M 54.007143 308.740827 
L 663.652563 308.740827 
" clip-path="url(#p6623cb806b)" style="fill: none; stroke: #d8d8d8; stroke-opacity: 0.75; stroke-width: 0.65; stroke-linecap: square"/>
     </g>
     <g id="line2d_16">
      <g>
       <use xlink:href="#m829386cedc" x="54.007143" y="308.740827" style="stroke: #000000; stroke-width: 0.8"/>
      </g>
     </g>
     <g id="text_9">
      <!-- 4.25 -->
      <g transform="translate(24.741518 312.540045) scale(0.1 -0.1)">
       <use xlink:href="#DejaVuSans-34"/>
       <use xlink:href="#DejaVuSans-2e" transform="translate(63.623047 0)"/>
       <use xlink:href="#DejaVuSans-32" transform="translate(95.410156 0)"/>
       <use xlink:href="#DejaVuSans-35" transform="translate(159.033203 0)"/>
      </g>
     </g>
    </g>
    <g id="ytick_3">
     <g id="line2d_17">
      <path d="M 54.007143 273.337175 
L 663.652563 273.337175 
" clip-path="url(#p6623cb806b)" style="fill: none; stroke: #d8d8d8; stroke-opacity: 0.75; stroke-width: 0.65; stroke-linecap: square"/>
     </g>
     <g id="line2d_18">
      <g>
       <use xlink:href="#m829386cedc" x="54.007143" y="273.337175" style="stroke: #000000; stroke-width: 0.8"/>
      </g>
     </g>
     <g id="text_10">
      <!-- 4.50 -->
      <g transform="translate(24.741518 277.136393) scale(0.1 -0.1)">
       <use xlink:href="#DejaVuSans-34"/>
       <use xlink:href="#DejaVuSans-2e" transform="translate(63.623047 0)"/>
       <use xlink:href="#DejaVuSans-35" transform="translate(95.410156 0)"/>
       <use xlink:href="#DejaVuSans-30" transform="translate(159.033203 0)"/>
      </g>
     </g>
    </g>
    <g id="ytick_4">
     <g id="line2d_19">
      <path d="M 54.007143 237.933523 
L 663.652563 237.933523 
" clip-path="url(#p6623cb806b)" style="fill: none; stroke: #d8d8d8; stroke-opacity: 0.75; stroke-width: 0.65; stroke-linecap: square"/>
     </g>
     <g id="line2d_20">
      <g>
       <use xlink:href="#m829386cedc" x="54.007143" y="237.933523" style="stroke: #000000; stroke-width: 0.8"/>
      </g>
     </g>
     <g id="text_11">
      <!-- 4.75 -->
      <g transform="translate(24.741518 241.732741) scale(0.1 -0.1)">
       <defs>
        <path id="DejaVuSans-37" d="M 525 4666 
L 3525 4666 
L 3525 4397 
L 1831 0 
L 1172 0 
L 2766 4134 
L 525 4134 
L 525 4666 
z
" transform="scale(0.015625)"/>
       </defs>
       <use xlink:href="#DejaVuSans-34"/>
       <use xlink:href="#DejaVuSans-2e" transform="translate(63.623047 0)"/>
       <use xlink:href="#DejaVuSans-37" transform="translate(95.410156 0)"/>
       <use xlink:href="#DejaVuSans-35" transform="translate(159.033203 0)"/>
      </g>
     </g>
    </g>
    <g id="ytick_5">
     <g id="line2d_21">
      <path d="M 54.007143 202.529871 
L 663.652563 202.529871 
" clip-path="url(#p6623cb806b)" style="fill: none; stroke: #d8d8d8; stroke-opacity: 0.75; stroke-width: 0.65; stroke-linecap: square"/>
     </g>
     <g id="line2d_22">
      <g>
       <use xlink:href="#m829386cedc" x="54.007143" y="202.529871" style="stroke: #000000; stroke-width: 0.8"/>
      </g>
     </g>
     <g id="text_12">
      <!-- 5.00 -->
      <g transform="translate(24.741518 206.329089) scale(0.1 -0.1)">
       <use xlink:href="#DejaVuSans-35"/>
       <use xlink:href="#DejaVuSans-2e" transform="translate(63.623047 0)"/>
       <use xlink:href="#DejaVuSans-30" transform="translate(95.410156 0)"/>
       <use xlink:href="#DejaVuSans-30" transform="translate(159.033203 0)"/>
      </g>
     </g>
    </g>
    <g id="ytick_6">
     <g id="line2d_23">
      <path d="M 54.007143 167.126219 
L 663.652563 167.126219 
" clip-path="url(#p6623cb806b)" style="fill: none; stroke: #d8d8d8; stroke-opacity: 0.75; stroke-width: 0.65; stroke-linecap: square"/>
     </g>
     <g id="line2d_24">
      <g>
       <use xlink:href="#m829386cedc" x="54.007143" y="167.126219" style="stroke: #000000; stroke-width: 0.8"/>
      </g>
     </g>
     <g id="text_13">
      <!-- 5.25 -->
      <g transform="translate(24.741518 170.925437) scale(0.1 -0.1)">
       <use xlink:href="#DejaVuSans-35"/>
       <use xlink:href="#DejaVuSans-2e" transform="translate(63.623047 0)"/>
       <use xlink:href="#DejaVuSans-32" transform="translate(95.410156 0)"/>
       <use xlink:href="#DejaVuSans-35" transform="translate(159.033203 0)"/>
      </g>
     </g>
    </g>
    <g id="ytick_7">
     <g id="line2d_25">
      <path d="M 54.007143 131.722567 
L 663.652563 131.722567 
" clip-path="url(#p6623cb806b)" style="fill: none; stroke: #d8d8d8; stroke-opacity: 0.75; stroke-width: 0.65; stroke-linecap: square"/>
     </g>
     <g id="line2d_26">
      <g>
       <use xlink:href="#m829386cedc" x="54.007143" y="131.722567" style="stroke: #000000; stroke-width: 0.8"/>
      </g>
     </g>
     <g id="text_14">
      <!-- 5.50 -->
      <g transform="translate(24.741518 135.521785) scale(0.1 -0.1)">
       <use xlink:href="#DejaVuSans-35"/>
       <use xlink:href="#DejaVuSans-2e" transform="translate(63.623047 0)"/>
       <use xlink:href="#DejaVuSans-35" transform="translate(95.410156 0)"/>
       <use xlink:href="#DejaVuSans-30" transform="translate(159.033203 0)"/>
      </g>
     </g>
    </g>
    <g id="ytick_8">
     <g id="line2d_27">
      <path d="M 54.007143 96.318915 
L 663.652563 96.318915 
" clip-path="url(#p6623cb806b)" style="fill: none; stroke: #d8d8d8; stroke-opacity: 0.75; stroke-width: 0.65; stroke-linecap: square"/>
     </g>
     <g id="line2d_28">
      <g>
       <use xlink:href="#m829386cedc" x="54.007143" y="96.318915" style="stroke: #000000; stroke-width: 0.8"/>
      </g>
     </g>
     <g id="text_15">
      <!-- 5.75 -->
      <g transform="translate(24.741518 100.118133) scale(0.1 -0.1)">
       <use xlink:href="#DejaVuSans-35"/>
       <use xlink:href="#DejaVuSans-2e" transform="translate(63.623047 0)"/>
       <use xlink:href="#DejaVuSans-37" transform="translate(95.410156 0)"/>
       <use xlink:href="#DejaVuSans-35" transform="translate(159.033203 0)"/>
      </g>
     </g>
    </g>
    <g id="ytick_9">
     <g id="line2d_29">
      <path d="M 54.007143 60.915263 
L 663.652563 60.915263 
" clip-path="url(#p6623cb806b)" style="fill: none; stroke: #d8d8d8; stroke-opacity: 0.75; stroke-width: 0.65; stroke-linecap: square"/>
     </g>
     <g id="line2d_30">
      <g>
       <use xlink:href="#m829386cedc" x="54.007143" y="60.915263" style="stroke: #000000; stroke-width: 0.8"/>
      </g>
     </g>
     <g id="text_16">
      <!-- 6.00 -->
      <g transform="translate(24.741518 64.714481) scale(0.1 -0.1)">
       <defs>
        <path id="DejaVuSans-36" d="M 2113 2584 
Q 1688 2584 1439 2293 
Q 1191 2003 1191 1497 
Q 1191 994 1439 701 
Q 1688 409 2113 409 
Q 2538 409 2786 701 
Q 3034 994 3034 1497 
Q 3034 2003 2786 2293 
Q 2538 2584 2113 2584 
z
M 3366 4563 
L 3366 3988 
Q 3128 4100 2886 4159 
Q 2644 4219 2406 4219 
Q 1781 4219 1451 3797 
Q 1122 3375 1075 2522 
Q 1259 2794 1537 2939 
Q 1816 3084 2150 3084 
Q 2853 3084 3261 2657 
Q 3669 2231 3669 1497 
Q 3669 778 3244 343 
Q 2819 -91 2113 -91 
Q 1303 -91 875 529 
Q 447 1150 447 2328 
Q 447 3434 972 4092 
Q 1497 4750 2381 4750 
Q 2619 4750 2861 4703 
Q 3103 4656 3366 4563 
z
" transform="scale(0.015625)"/>
       </defs>
       <use xlink:href="#DejaVuSans-36"/>
       <use xlink:href="#DejaVuSans-2e" transform="translate(63.623047 0)"/>
       <use xlink:href="#DejaVuSans-30" transform="translate(95.410156 0)"/>
       <use xlink:href="#DejaVuSans-30" transform="translate(159.033203 0)"/>
      </g>
     </g>
    </g>
    <g id="text_17">
     <!-- validation loss -->
     <g transform="translate(18.66183 224.121205) rotate(-90) scale(0.1 -0.1)">
      <defs>
       <path id="DejaVuSans-76" d="M 191 3500 
L 800 3500 
L 1894 563 
L 2988 3500 
L 3597 3500 
L 2284 0 
L 1503 0 
L 191 3500 
z
" transform="scale(0.015625)"/>
       <path id="DejaVuSans-61" d="M 2194 1759 
Q 1497 1759 1228 1600 
Q 959 1441 959 1056 
Q 959 750 1161 570 
Q 1363 391 1709 391 
Q 2188 391 2477 730 
Q 2766 1069 2766 1631 
L 2766 1759 
L 2194 1759 
z
M 3341 1997 
L 3341 0 
L 2766 0 
L 2766 531 
Q 2569 213 2275 61 
Q 1981 -91 1556 -91 
Q 1019 -91 701 211 
Q 384 513 384 1019 
Q 384 1609 779 1909 
Q 1175 2209 1959 2209 
L 2766 2209 
L 2766 2266 
Q 2766 2663 2505 2880 
Q 2244 3097 1772 3097 
Q 1472 3097 1187 3025 
Q 903 2953 641 2809 
L 641 3341 
Q 956 3463 1253 3523 
Q 1550 3584 1831 3584 
Q 2591 3584 2966 3190 
Q 3341 2797 3341 1997 
z
" transform="scale(0.015625)"/>
       <path id="DejaVuSans-6c" d="M 603 4863 
L 1178 4863 
L 1178 0 
L 603 0 
L 603 4863 
z
" transform="scale(0.015625)"/>
       <path id="DejaVuSans-69" d="M 603 3500 
L 1178 3500 
L 1178 0 
L 603 0 
L 603 3500 
z
M 603 4863 
L 1178 4863 
L 1178 4134 
L 603 4134 
L 603 4863 
z
" transform="scale(0.015625)"/>
       <path id="DejaVuSans-64" d="M 2906 2969 
L 2906 4863 
L 3481 4863 
L 3481 0 
L 2906 0 
L 2906 525 
Q 2725 213 2448 61 
Q 2172 -91 1784 -91 
Q 1150 -91 751 415 
Q 353 922 353 1747 
Q 353 2572 751 3078 
Q 1150 3584 1784 3584 
Q 2172 3584 2448 3432 
Q 2725 3281 2906 2969 
z
M 947 1747 
Q 947 1113 1208 752 
Q 1469 391 1925 391 
Q 2381 391 2643 752 
Q 2906 1113 2906 1747 
Q 2906 2381 2643 2742 
Q 2381 3103 1925 3103 
Q 1469 3103 1208 2742 
Q 947 2381 947 1747 
z
" transform="scale(0.015625)"/>
       <path id="DejaVuSans-6f" d="M 1959 3097 
Q 1497 3097 1228 2736 
Q 959 2375 959 1747 
Q 959 1119 1226 758 
Q 1494 397 1959 397 
Q 2419 397 2687 759 
Q 2956 1122 2956 1747 
Q 2956 2369 2687 2733 
Q 2419 3097 1959 3097 
z
M 1959 3584 
Q 2709 3584 3137 3096 
Q 3566 2609 3566 1747 
Q 3566 888 3137 398 
Q 2709 -91 1959 -91 
Q 1206 -91 779 398 
Q 353 888 353 1747 
Q 353 2609 779 3096 
Q 1206 3584 1959 3584 
z
" transform="scale(0.015625)"/>
       <path id="DejaVuSans-6e" d="M 3513 2113 
L 3513 0 
L 2938 0 
L 2938 2094 
Q 2938 2591 2744 2837 
Q 2550 3084 2163 3084 
Q 1697 3084 1428 2787 
Q 1159 2491 1159 1978 
L 1159 0 
L 581 0 
L 581 3500 
L 1159 3500 
L 1159 2956 
Q 1366 3272 1645 3428 
Q 1925 3584 2291 3584 
Q 2894 3584 3203 3211 
Q 3513 2838 3513 2113 
z
" transform="scale(0.015625)"/>
       <path id="DejaVuSans-20" transform="scale(0.015625)"/>
      </defs>
      <use xlink:href="#DejaVuSans-76"/>
      <use xlink:href="#DejaVuSans-61" transform="translate(59.179688 0)"/>
      <use xlink:href="#DejaVuSans-6c" transform="translate(120.458984 0)"/>
      <use xlink:href="#DejaVuSans-69" transform="translate(148.242188 0)"/>
      <use xlink:href="#DejaVuSans-64" transform="translate(176.025391 0)"/>
      <use xlink:href="#DejaVuSans-61" transform="translate(239.501953 0)"/>
      <use xlink:href="#DejaVuSans-74" transform="translate(300.78125 0)"/>
      <use xlink:href="#DejaVuSans-69" transform="translate(339.990234 0)"/>
      <use xlink:href="#DejaVuSans-6f" transform="translate(367.773438 0)"/>
      <use xlink:href="#DejaVuSans-6e" transform="translate(428.955078 0)"/>
      <use xlink:href="#DejaVuSans-20" transform="translate(492.333984 0)"/>
      <use xlink:href="#DejaVuSans-6c" transform="translate(524.121094 0)"/>
      <use xlink:href="#DejaVuSans-6f" transform="translate(551.904297 0)"/>
      <use xlink:href="#DejaVuSans-73" transform="translate(613.085938 0)"/>
      <use xlink:href="#DejaVuSans-73" transform="translate(665.185547 0)"/>
     </g>
    </g>
   </g>
   <g id="line2d_31">
    <path d="M 54.007143 168.221013 
L 65.960975 180.224834 
L 77.914806 190.532397 
L 89.868638 200.002691 
L 101.82247 208.367476 
L 113.776302 215.706165 
L 125.730133 221.745339 
L 137.683965 227.082614 
L 149.637797 232.592376 
L 161.591629 237.901222 
L 173.545461 243.520738 
L 185.499292 248.697614 
L 197.453124 254.588318 
L 209.406956 259.943916 
L 221.360788 265.127431 
L 233.314619 269.32073 
L 245.268451 273.857538 
L 257.222283 277.649028 
L 269.176115 281.385055 
L 281.129946 284.645714 
L 293.083778 287.837856 
L 305.03761 290.638407 
L 316.991442 293.419511 
L 328.945274 295.927918 
L 340.899105 298.513936 
L 352.852937 300.807089 
L 364.806769 302.724139 
L 376.760601 304.936372 
L 388.714432 307.048935 
L 400.668264 308.962653 
L 412.622096 310.733146 
L 424.575928 312.481963 
L 436.529759 314.1041 
L 448.483591 315.81105 
L 460.437423 317.087267 
L 472.391255 318.683158 
L 484.345087 320.060778 
L 496.298918 321.091715 
L 508.25275 322.336082 
L 520.206582 323.340097 
L 532.160414 324.503297 
L 544.114245 325.398256 
L 556.068077 326.239419 
L 568.021909 327.091858 
L 579.975741 327.918525 
L 591.929572 328.557602 
L 603.883404 329.174754 
L 615.837236 329.739056 
L 627.791068 330.259217 
L 639.744899 330.868627 
L 651.698731 331.303479 
L 663.652563 331.648385 
" clip-path="url(#p6623cb806b)" style="fill: none; stroke: #111111; stroke-opacity: 0.96; stroke-width: 2.3; stroke-linecap: square"/>
   </g>
   <g id="line2d_32">
    <path d="M 54.007143 62.753283 
L 65.960975 74.89594 
L 77.914806 85.166475 
L 89.868638 94.948227 
L 101.82247 104.124913 
L 113.776302 111.940208 
L 125.730133 119.850018 
L 137.683965 126.272409 
L 149.637797 133.472329 
L 161.591629 139.738507 
L 173.545461 145.144795 
L 185.499292 150.609741 
L 197.453124 155.424379 
L 209.406956 159.95448 
L 221.360788 164.459483 
L 233.314619 168.859684 
L 245.268451 172.659547 
L 257.222283 176.074461 
L 269.176115 179.902482 
L 281.129946 183.223781 
L 293.083778 186.406131 
L 305.03761 189.387812 
L 316.991442 192.314347 
L 328.945274 195.026664 
L 340.899105 197.510693 
L 352.852937 200.030512 
L 364.806769 202.217468 
L 376.760601 204.498826 
L 388.714432 206.655439 
L 400.668264 208.621603 
L 412.622096 210.555152 
L 424.575928 212.235699 
L 436.529759 213.960904 
L 448.483591 215.573001 
L 460.437423 217.116671 
L 472.391255 218.543519 
L 484.345087 219.93487 
L 496.298918 221.240214 
L 508.25275 222.451065 
L 520.206582 223.605238 
L 532.160414 224.753087 
L 544.114245 225.776212 
L 556.068077 226.731023 
L 568.021909 227.679284 
L 579.975741 228.583629 
L 591.929572 229.40199 
L 603.883404 230.247857 
L 615.837236 231.006412 
L 627.791068 231.708266 
L 639.744899 232.422253 
L 651.698731 233.095498 
L 663.652563 233.728069 
" clip-path="url(#p6623cb806b)" style="fill: none; stroke: #8c564b; stroke-opacity: 0.96; stroke-width: 1.25; stroke-linecap: square"/>
   </g>
   <g id="line2d_33">
    <path d="M 54.007143 56.958624 
L 65.960975 69.606969 
L 77.914806 80.127467 
L 89.868638 89.231359 
L 101.82247 98.570403 
L 113.776302 106.588302 
L 125.730133 114.400423 
L 137.683965 120.965138 
L 149.637797 127.64645 
L 161.591629 133.770439 
L 173.545461 138.983711 
L 185.499292 144.478955 
L 197.453124 149.64937 
L 209.406956 154.06508 
L 221.360788 158.519551 
L 233.314619 162.873586 
L 245.268451 166.576908 
L 257.222283 170.220761 
L 269.176115 173.801048 
L 281.129946 177.156853 
L 293.083778 180.174662 
L 305.03761 183.196815 
L 316.991442 186.011277 
L 328.945274 188.787564 
L 340.899105 191.167174 
L 352.852937 193.619759 
L 364.806769 195.872396 
L 376.760601 198.033128 
L 388.714432 200.184362 
L 400.668264 202.144673 
L 412.622096 204.028635 
L 424.575928 205.756136 
L 436.529759 207.43029 
L 448.483591 209.009907 
L 460.437423 210.522582 
L 472.391255 211.979907 
L 484.345087 213.355749 
L 496.298918 214.678785 
L 508.25275 215.902826 
L 520.206582 217.044642 
L 532.160414 218.169914 
L 544.114245 219.232971 
L 556.068077 220.199486 
L 568.021909 221.124067 
L 579.975741 222.034535 
L 591.929572 222.869395 
L 603.883404 223.673936 
L 615.837236 224.46344 
L 627.791068 225.189357 
L 639.744899 225.889163 
L 651.698731 226.550366 
L 663.652563 227.192863 
" clip-path="url(#p6623cb806b)" style="fill: none; stroke-dasharray: 4.625,2; stroke-dashoffset: 0; stroke: #8c564b; stroke-opacity: 0.96; stroke-width: 1.25"/>
   </g>
   <g id="line2d_34">
    <path d="M 54.007143 59.490013 
L 65.960975 69.773041 
L 77.914806 79.658717 
L 89.868638 88.740888 
L 101.82247 96.689616 
L 113.776302 104.154175 
L 125.730133 110.670338 
L 137.683965 116.788429 
L 149.637797 123.279607 
L 161.591629 129.356439 
L 173.545461 134.756965 
L 185.499292 139.75944 
L 197.453124 144.59042 
L 209.406956 149.147104 
L 221.360788 153.51039 
L 233.314619 157.298976 
L 245.268451 161.436857 
L 257.222283 164.826786 
L 269.176115 168.125575 
L 281.129946 171.528648 
L 293.083778 174.592601 
L 305.03761 177.345411 
L 316.991442 180.084378 
L 328.945274 182.76158 
L 340.899105 184.845377 
L 352.852937 187.280562 
L 364.806769 189.463555 
L 376.760601 191.547307 
L 388.714432 193.755173 
L 400.668264 195.451724 
L 412.622096 197.12804 
L 424.575928 198.767215 
L 436.529759 200.363488 
L 448.483591 201.835602 
L 460.437423 203.314333 
L 472.391255 204.65936 
L 484.345087 205.67247 
L 496.298918 206.752746 
L 508.25275 207.858502 
L 520.206582 208.789116 
L 532.160414 209.772333 
L 544.114245 210.574015 
L 556.068077 211.289644 
L 568.021909 212.003338 
L 579.975741 212.707916 
L 591.929572 213.271768 
L 603.883404 213.859771 
L 615.837236 214.390084 
L 627.791068 214.91029 
L 639.744899 215.296568 
L 651.698731 215.685569 
L 663.652563 216.077361 
" clip-path="url(#p6623cb806b)" style="fill: none; stroke: #17becf; stroke-opacity: 0.96; stroke-width: 1.25; stroke-linecap: square"/>
   </g>
   <g id="line2d_35">
    <path d="M 54.007143 48.184287 
L 65.960975 60.356768 
L 77.914806 71.676945 
L 89.868638 81.449401 
L 101.82247 90.61006 
L 113.776302 98.838711 
L 125.730133 106.629764 
L 137.683965 113.527252 
L 149.637797 119.907731 
L 161.591629 126.173054 
L 173.545461 131.683896 
L 185.499292 136.560546 
L 197.453124 141.851182 
L 209.406956 146.397085 
L 221.360788 150.749545 
L 233.314619 154.543217 
L 245.268451 158.51784 
L 257.222283 161.952787 
L 269.176115 165.302469 
L 281.129946 168.807869 
L 293.083778 171.668767 
L 305.03761 174.484265 
L 316.991442 177.389078 
L 328.945274 179.775104 
L 340.899105 182.047323 
L 352.852937 184.351573 
L 364.806769 186.747998 
L 376.760601 188.77856 
L 388.714432 190.895018 
L 400.668264 192.659681 
L 412.622096 194.410434 
L 424.575928 196.090958 
L 436.529759 197.662697 
L 448.483591 199.177217 
L 460.437423 200.628577 
L 472.391255 202.058216 
L 484.345087 203.136534 
L 496.298918 204.245937 
L 508.25275 205.32511 
L 520.206582 206.261374 
L 532.160414 207.218863 
L 544.114245 208.051044 
L 556.068077 208.822767 
L 568.021909 209.578418 
L 579.975741 210.330602 
L 591.929572 210.847004 
L 603.883404 211.413984 
L 615.837236 212.011284 
L 627.791068 212.532729 
L 639.744899 212.904128 
L 651.698731 213.365293 
L 663.652563 213.761542 
" clip-path="url(#p6623cb806b)" style="fill: none; stroke-dasharray: 4.625,2; stroke-dashoffset: 0; stroke: #17becf; stroke-opacity: 0.96; stroke-width: 1.25"/>
   </g>
   <g id="patch_3">
    <path d="M 54.007143 347.457143 
L 54.007143 29.057143 
" style="fill: none; stroke: #000000; stroke-width: 0.8; stroke-linejoin: miter; stroke-linecap: square"/>
   </g>
   <g id="patch_4">
    <path d="M 54.007143 347.457143 
L 663.652563 347.457143 
" style="fill: none; stroke: #000000; stroke-width: 0.8; stroke-linejoin: miter; stroke-linecap: square"/>
   </g>
   <g id="text_18">
    <!-- FineWeb-Edu E1 validation loss, clean comparison, mean +/- std -->
    <g transform="translate(165.509853 20.057143) scale(0.12 -0.12)">
     <defs>
      <path id="DejaVuSans-46" d="M 628 4666 
L 3309 4666 
L 3309 4134 
L 1259 4134 
L 1259 2759 
L 3109 2759 
L 3109 2228 
L 1259 2228 
L 1259 0 
L 628 0 
L 628 4666 
z
" transform="scale(0.015625)"/>
      <path id="DejaVuSans-57" d="M 213 4666 
L 850 4666 
L 1831 722 
L 2809 4666 
L 3519 4666 
L 4500 722 
L 5478 4666 
L 6119 4666 
L 4947 0 
L 4153 0 
L 3169 4050 
L 2175 0 
L 1381 0 
L 213 4666 
z
" transform="scale(0.015625)"/>
      <path id="DejaVuSans-62" d="M 3116 1747 
Q 3116 2381 2855 2742 
Q 2594 3103 2138 3103 
Q 1681 3103 1420 2742 
Q 1159 2381 1159 1747 
Q 1159 1113 1420 752 
Q 1681 391 2138 391 
Q 2594 391 2855 752 
Q 3116 1113 3116 1747 
z
M 1159 2969 
Q 1341 3281 1617 3432 
Q 1894 3584 2278 3584 
Q 2916 3584 3314 3078 
Q 3713 2572 3713 1747 
Q 3713 922 3314 415 
Q 2916 -91 2278 -91 
Q 1894 -91 1617 61 
Q 1341 213 1159 525 
L 1159 0 
L 581 0 
L 581 4863 
L 1159 4863 
L 1159 2969 
z
" transform="scale(0.015625)"/>
      <path id="DejaVuSans-2d" d="M 313 2009 
L 1997 2009 
L 1997 1497 
L 313 1497 
L 313 2009 
z
" transform="scale(0.015625)"/>
      <path id="DejaVuSans-45" d="M 628 4666 
L 3578 4666 
L 3578 4134 
L 1259 4134 
L 1259 2753 
L 3481 2753 
L 3481 2222 
L 1259 2222 
L 1259 531 
L 3634 531 
L 3634 0 
L 628 0 
L 628 4666 
z
" transform="scale(0.015625)"/>
      <path id="DejaVuSans-75" d="M 544 1381 
L 544 3500 
L 1119 3500 
L 1119 1403 
Q 1119 906 1312 657 
Q 1506 409 1894 409 
Q 2359 409 2629 706 
Q 2900 1003 2900 1516 
L 2900 3500 
L 3475 3500 
L 3475 0 
L 2900 0 
L 2900 538 
Q 2691 219 2414 64 
Q 2138 -91 1772 -91 
Q 1169 -91 856 284 
Q 544 659 544 1381 
z
M 1991 3584 
L 1991 3584 
z
" transform="scale(0.015625)"/>
      <path id="DejaVuSans-2c" d="M 750 794 
L 1409 794 
L 1409 256 
L 897 -744 
L 494 -744 
L 750 256 
L 750 794 
z
" transform="scale(0.015625)"/>
      <path id="DejaVuSans-63" d="M 3122 3366 
L 3122 2828 
Q 2878 2963 2633 3030 
Q 2388 3097 2138 3097 
Q 1578 3097 1268 2742 
Q 959 2388 959 1747 
Q 959 1106 1268 751 
Q 1578 397 2138 397 
Q 2388 397 2633 464 
Q 2878 531 3122 666 
L 3122 134 
Q 2881 22 2623 -34 
Q 2366 -91 2075 -91 
Q 1284 -91 818 406 
Q 353 903 353 1747 
Q 353 2603 823 3093 
Q 1294 3584 2113 3584 
Q 2378 3584 2631 3529 
Q 2884 3475 3122 3366 
z
" transform="scale(0.015625)"/>
      <path id="DejaVuSans-6d" d="M 3328 2828 
Q 3544 3216 3844 3400 
Q 4144 3584 4550 3584 
Q 5097 3584 5394 3201 
Q 5691 2819 5691 2113 
L 5691 0 
L 5113 0 
L 5113 2094 
Q 5113 2597 4934 2840 
Q 4756 3084 4391 3084 
Q 3944 3084 3684 2787 
Q 3425 2491 3425 1978 
L 3425 0 
L 2847 0 
L 2847 2094 
Q 2847 2600 2669 2842 
Q 2491 3084 2119 3084 
Q 1678 3084 1418 2786 
Q 1159 2488 1159 1978 
L 1159 0 
L 581 0 
L 581 3500 
L 1159 3500 
L 1159 2956 
Q 1356 3278 1631 3431 
Q 1906 3584 2284 3584 
Q 2666 3584 2933 3390 
Q 3200 3197 3328 2828 
z
" transform="scale(0.015625)"/>
      <path id="DejaVuSans-72" d="M 2631 2963 
Q 2534 3019 2420 3045 
Q 2306 3072 2169 3072 
Q 1681 3072 1420 2755 
Q 1159 2438 1159 1844 
L 1159 0 
L 581 0 
L 581 3500 
L 1159 3500 
L 1159 2956 
Q 1341 3275 1631 3429 
Q 1922 3584 2338 3584 
Q 2397 3584 2469 3576 
Q 2541 3569 2628 3553 
L 2631 2963 
z
" transform="scale(0.015625)"/>
      <path id="DejaVuSans-2b" d="M 2944 4013 
L 2944 2272 
L 4684 2272 
L 4684 1741 
L 2944 1741 
L 2944 0 
L 2419 0 
L 2419 1741 
L 678 1741 
L 678 2272 
L 2419 2272 
L 2419 4013 
L 2944 4013 
z
" transform="scale(0.015625)"/>
      <path id="DejaVuSans-2f" d="M 1625 4666 
L 2156 4666 
L 531 -594 
L 0 -594 
L 1625 4666 
z
" transform="scale(0.015625)"/>
     </defs>
     <use xlink:href="#DejaVuSans-46"/>
     <use xlink:href="#DejaVuSans-69" transform="translate(50.269531 0)"/>
     <use xlink:href="#DejaVuSans-6e" transform="translate(78.052734 0)"/>
     <use xlink:href="#DejaVuSans-65" transform="translate(141.431641 0)"/>
     <use xlink:href="#DejaVuSans-57" transform="translate(202.955078 0)"/>
     <use xlink:href="#DejaVuSans-65" transform="translate(295.957031 0)"/>
     <use xlink:href="#DejaVuSans-62" transform="translate(357.480469 0)"/>
     <use xlink:href="#DejaVuSans-2d" transform="translate(420.957031 0)"/>
     <use xlink:href="#DejaVuSans-45" transform="translate(457.041016 0)"/>
     <use xlink:href="#DejaVuSans-64" transform="translate(520.224609 0)"/>
     <use xlink:href="#DejaVuSans-75" transform="translate(583.701172 0)"/>
     <use xlink:href="#DejaVuSans-20" transform="translate(647.080078 0)"/>
     <use xlink:href="#DejaVuSans-45" transform="translate(678.867188 0)"/>
     <use xlink:href="#DejaVuSans-31" transform="translate(742.050781 0)"/>
     <use xlink:href="#DejaVuSans-20" transform="translate(805.673828 0)"/>
     <use xlink:href="#DejaVuSans-76" transform="translate(837.460938 0)"/>
     <use xlink:href="#DejaVuSans-61" transform="translate(896.640625 0)"/>
     <use xlink:href="#DejaVuSans-6c" transform="translate(957.919922 0)"/>
     <use xlink:href="#DejaVuSans-69" transform="translate(985.703125 0)"/>
     <use xlink:href="#DejaVuSans-64" transform="translate(1013.486328 0)"/>
     <use xlink:href="#DejaVuSans-61" transform="translate(1076.962891 0)"/>
     <use xlink:href="#DejaVuSans-74" transform="translate(1138.242188 0)"/>
     <use xlink:href="#DejaVuSans-69" transform="translate(1177.451172 0)"/>
     <use xlink:href="#DejaVuSans-6f" transform="translate(1205.234375 0)"/>
     <use xlink:href="#DejaVuSans-6e" transform="translate(1266.416016 0)"/>
     <use xlink:href="#DejaVuSans-20" transform="translate(1329.794922 0)"/>
     <use xlink:href="#DejaVuSans-6c" transform="translate(1361.582031 0)"/>
     <use xlink:href="#DejaVuSans-6f" transform="translate(1389.365234 0)"/>
     <use xlink:href="#DejaVuSans-73" transform="translate(1450.546875 0)"/>
     <use xlink:href="#DejaVuSans-73" transform="translate(1502.646484 0)"/>
     <use xlink:href="#DejaVuSans-2c" transform="translate(1554.746094 0)"/>
     <use xlink:href="#DejaVuSans-20" transform="translate(1586.533203 0)"/>
     <use xlink:href="#DejaVuSans-63" transform="translate(1618.320312 0)"/>
     <use xlink:href="#DejaVuSans-6c" transform="translate(1673.300781 0)"/>
     <use xlink:href="#DejaVuSans-65" transform="translate(1701.083984 0)"/>
     <use xlink:href="#DejaVuSans-61" transform="translate(1762.607422 0)"/>
     <use xlink:href="#DejaVuSans-6e" transform="translate(1823.886719 0)"/>
     <use xlink:href="#DejaVuSans-20" transform="translate(1887.265625 0)"/>
     <use xlink:href="#DejaVuSans-63" transform="translate(1919.052734 0)"/>
     <use xlink:href="#DejaVuSans-6f" transform="translate(1974.033203 0)"/>
     <use xlink:href="#DejaVuSans-6d" transform="translate(2035.214844 0)"/>
     <use xlink:href="#DejaVuSans-70" transform="translate(2132.626953 0)"/>
     <use xlink:href="#DejaVuSans-61" transform="translate(2196.103516 0)"/>
     <use xlink:href="#DejaVuSans-72" transform="translate(2257.382812 0)"/>
     <use xlink:href="#DejaVuSans-69" transform="translate(2298.496094 0)"/>
     <use xlink:href="#DejaVuSans-73" transform="translate(2326.279297 0)"/>
     <use xlink:href="#DejaVuSans-6f" transform="translate(2378.378906 0)"/>
     <use xlink:href="#DejaVuSans-6e" transform="translate(2439.560547 0)"/>
     <use xlink:href="#DejaVuSans-2c" transform="translate(2502.939453 0)"/>
     <use xlink:href="#DejaVuSans-20" transform="translate(2534.726562 0)"/>
     <use xlink:href="#DejaVuSans-6d" transform="translate(2566.513672 0)"/>
     <use xlink:href="#DejaVuSans-65" transform="translate(2663.925781 0)"/>
     <use xlink:href="#DejaVuSans-61" transform="translate(2725.449219 0)"/>
     <use xlink:href="#DejaVuSans-6e" transform="translate(2786.728516 0)"/>
     <use xlink:href="#DejaVuSans-20" transform="translate(2850.107422 0)"/>
     <use xlink:href="#DejaVuSans-2b" transform="translate(2881.894531 0)"/>
     <use xlink:href="#DejaVuSans-2f" transform="translate(2965.683594 0)"/>
     <use xlink:href="#DejaVuSans-2d" transform="translate(2999.375 0)"/>
     <use xlink:href="#DejaVuSans-20" transform="translate(3035.458984 0)"/>
     <use xlink:href="#DejaVuSans-73" transform="translate(3067.246094 0)"/>
     <use xlink:href="#DejaVuSans-74" transform="translate(3119.345703 0)"/>
     <use xlink:href="#DejaVuSans-64" transform="translate(3158.554688 0)"/>
    </g>
   </g>
   <g id="legend_1">
    <g id="patch_5">
     <path d="M 497.231063 74.66233 
L 658.892563 74.66233 
Q 660.252563 74.66233 660.252563 73.30233 
L 660.252563 33.817143 
Q 660.252563 32.457143 658.892563 32.457143 
L 497.231063 32.457143 
Q 495.871063 32.457143 495.871063 33.817143 
L 495.871063 73.30233 
Q 495.871063 74.66233 497.231063 74.66233 
z
" style="fill: #ffffff; opacity: 0.9; stroke: #bbbbbb; stroke-linejoin: miter"/>
    </g>
    <g id="text_19">
     <!-- Curve -->
     <g transform="translate(567.145657 42.159987) scale(0.074 -0.074)">
      <defs>
       <path id="DejaVuSans-43" d="M 4122 4306 
L 4122 3641 
Q 3803 3938 3442 4084 
Q 3081 4231 2675 4231 
Q 1875 4231 1450 3742 
Q 1025 3253 1025 2328 
Q 1025 1406 1450 917 
Q 1875 428 2675 428 
Q 3081 428 3442 575 
Q 3803 722 4122 1019 
L 4122 359 
Q 3791 134 3420 21 
Q 3050 -91 2638 -91 
Q 1578 -91 968 557 
Q 359 1206 359 2328 
Q 359 3453 968 4101 
Q 1578 4750 2638 4750 
Q 3056 4750 3426 4639 
Q 3797 4528 4122 4306 
z
" transform="scale(0.015625)"/>
      </defs>
      <use xlink:href="#DejaVuSans-43"/>
      <use xlink:href="#DejaVuSans-75" transform="translate(69.824219 0)"/>
      <use xlink:href="#DejaVuSans-72" transform="translate(133.203125 0)"/>
      <use xlink:href="#DejaVuSans-76" transform="translate(174.316406 0)"/>
      <use xlink:href="#DejaVuSans-65" transform="translate(233.496094 0)"/>
     </g>
    </g>
    <g id="line2d_36">
     <path d="M 499.951063 48.865893 
L 508.451063 48.865893 
L 516.951063 48.865893 
" style="fill: none; stroke: #111111; stroke-opacity: 0.96; stroke-width: 2.3; stroke-linecap: square"/>
    </g>
    <g id="text_20">
     <!-- MatrixPolicy -->
     <g transform="translate(522.391063 51.245893) scale(0.068 -0.068)">
      <defs>
       <path id="DejaVuSans-4d" d="M 628 4666 
L 1569 4666 
L 2759 1491 
L 3956 4666 
L 4897 4666 
L 4897 0 
L 4281 0 
L 4281 4097 
L 3078 897 
L 2444 897 
L 1241 4097 
L 1241 0 
L 628 0 
L 628 4666 
z
" transform="scale(0.015625)"/>
       <path id="DejaVuSans-78" d="M 3513 3500 
L 2247 1797 
L 3578 0 
L 2900 0 
L 1881 1375 
L 863 0 
L 184 0 
L 1544 1831 
L 300 3500 
L 978 3500 
L 1906 2253 
L 2834 3500 
L 3513 3500 
z
" transform="scale(0.015625)"/>
       <path id="DejaVuSans-50" d="M 1259 4147 
L 1259 2394 
L 2053 2394 
Q 2494 2394 2734 2622 
Q 2975 2850 2975 3272 
Q 2975 3691 2734 3919 
Q 2494 4147 2053 4147 
L 1259 4147 
z
M 628 4666 
L 2053 4666 
Q 2838 4666 3239 4311 
Q 3641 3956 3641 3272 
Q 3641 2581 3239 2228 
Q 2838 1875 2053 1875 
L 1259 1875 
L 1259 0 
L 628 0 
L 628 4666 
z
" transform="scale(0.015625)"/>
       <path id="DejaVuSans-79" d="M 2059 -325 
Q 1816 -950 1584 -1140 
Q 1353 -1331 966 -1331 
L 506 -1331 
L 506 -850 
L 844 -850 
Q 1081 -850 1212 -737 
Q 1344 -625 1503 -206 
L 1606 56 
L 191 3500 
L 800 3500 
L 1894 763 
L 2988 3500 
L 3597 3500 
L 2059 -325 
z
" transform="scale(0.015625)"/>
      </defs>
      <use xlink:href="#DejaVuSans-4d"/>
      <use xlink:href="#DejaVuSans-61" transform="translate(86.279297 0)"/>
      <use xlink:href="#DejaVuSans-74" transform="translate(147.558594 0)"/>
      <use xlink:href="#DejaVuSans-72" transform="translate(186.767578 0)"/>
      <use xlink:href="#DejaVuSans-69" transform="translate(227.880859 0)"/>
      <use xlink:href="#DejaVuSans-78" transform="translate(255.664062 0)"/>
      <use xlink:href="#DejaVuSans-50" transform="translate(314.84375 0)"/>
      <use xlink:href="#DejaVuSans-6f" transform="translate(371.521484 0)"/>
      <use xlink:href="#DejaVuSans-6c" transform="translate(432.703125 0)"/>
      <use xlink:href="#DejaVuSans-69" transform="translate(460.486328 0)"/>
      <use xlink:href="#DejaVuSans-63" transform="translate(488.269531 0)"/>
      <use xlink:href="#DejaVuSans-79" transform="translate(543.25 0)"/>
     </g>
    </g>
    <g id="line2d_37">
     <path d="M 499.951063 57.827018 
L 508.451063 57.827018 
L 516.951063 57.827018 
" style="fill: none; stroke: #8c564b; stroke-opacity: 0.96; stroke-width: 1.25; stroke-linecap: square"/>
    </g>
    <g id="text_21">
     <!-- RLB+ScheduleFree -->
     <g transform="translate(522.391063 60.207018) scale(0.068 -0.068)">
      <defs>
       <path id="DejaVuSans-52" d="M 2841 2188 
Q 3044 2119 3236 1894 
Q 3428 1669 3622 1275 
L 4263 0 
L 3584 0 
L 2988 1197 
Q 2756 1666 2539 1819 
Q 2322 1972 1947 1972 
L 1259 1972 
L 1259 0 
L 628 0 
L 628 4666 
L 2053 4666 
Q 2853 4666 3247 4331 
Q 3641 3997 3641 3322 
Q 3641 2881 3436 2590 
Q 3231 2300 2841 2188 
z
M 1259 4147 
L 1259 2491 
L 2053 2491 
Q 2509 2491 2742 2702 
Q 2975 2913 2975 3322 
Q 2975 3731 2742 3939 
Q 2509 4147 2053 4147 
L 1259 4147 
z
" transform="scale(0.015625)"/>
       <path id="DejaVuSans-4c" d="M 628 4666 
L 1259 4666 
L 1259 531 
L 3531 531 
L 3531 0 
L 628 0 
L 628 4666 
z
" transform="scale(0.015625)"/>
       <path id="DejaVuSans-42" d="M 1259 2228 
L 1259 519 
L 2272 519 
Q 2781 519 3026 730 
Q 3272 941 3272 1375 
Q 3272 1813 3026 2020 
Q 2781 2228 2272 2228 
L 1259 2228 
z
M 1259 4147 
L 1259 2741 
L 2194 2741 
Q 2656 2741 2882 2914 
Q 3109 3088 3109 3444 
Q 3109 3797 2882 3972 
Q 2656 4147 2194 4147 
L 1259 4147 
z
M 628 4666 
L 2241 4666 
Q 2963 4666 3353 4366 
Q 3744 4066 3744 3513 
Q 3744 3084 3544 2831 
Q 3344 2578 2956 2516 
Q 3422 2416 3680 2098 
Q 3938 1781 3938 1306 
Q 3938 681 3513 340 
Q 3088 0 2303 0 
L 628 0 
L 628 4666 
z
" transform="scale(0.015625)"/>
       <path id="DejaVuSans-53" d="M 3425 4513 
L 3425 3897 
Q 3066 4069 2747 4153 
Q 2428 4238 2131 4238 
Q 1616 4238 1336 4038 
Q 1056 3838 1056 3469 
Q 1056 3159 1242 3001 
Q 1428 2844 1947 2747 
L 2328 2669 
Q 3034 2534 3370 2195 
Q 3706 1856 3706 1288 
Q 3706 609 3251 259 
Q 2797 -91 1919 -91 
Q 1588 -91 1214 -16 
Q 841 59 441 206 
L 441 856 
Q 825 641 1194 531 
Q 1563 422 1919 422 
Q 2459 422 2753 634 
Q 3047 847 3047 1241 
Q 3047 1584 2836 1778 
Q 2625 1972 2144 2069 
L 1759 2144 
Q 1053 2284 737 2584 
Q 422 2884 422 3419 
Q 422 4038 858 4394 
Q 1294 4750 2059 4750 
Q 2388 4750 2728 4690 
Q 3069 4631 3425 4513 
z
" transform="scale(0.015625)"/>
       <path id="DejaVuSans-68" d="M 3513 2113 
L 3513 0 
L 2938 0 
L 2938 2094 
Q 2938 2591 2744 2837 
Q 2550 3084 2163 3084 
Q 1697 3084 1428 2787 
Q 1159 2491 1159 1978 
L 1159 0 
L 581 0 
L 581 4863 
L 1159 4863 
L 1159 2956 
Q 1366 3272 1645 3428 
Q 1925 3584 2291 3584 
Q 2894 3584 3203 3211 
Q 3513 2838 3513 2113 
z
" transform="scale(0.015625)"/>
      </defs>
      <use xlink:href="#DejaVuSans-52"/>
      <use xlink:href="#DejaVuSans-4c" transform="translate(69.482422 0)"/>
      <use xlink:href="#DejaVuSans-42" transform="translate(125.195312 0)"/>
      <use xlink:href="#DejaVuSans-2b" transform="translate(193.798828 0)"/>
      <use xlink:href="#DejaVuSans-53" transform="translate(277.587891 0)"/>
      <use xlink:href="#DejaVuSans-63" transform="translate(341.064453 0)"/>
      <use xlink:href="#DejaVuSans-68" transform="translate(396.044922 0)"/>
      <use xlink:href="#DejaVuSans-65" transform="translate(459.423828 0)"/>
      <use xlink:href="#DejaVuSans-64" transform="translate(520.947266 0)"/>
      <use xlink:href="#DejaVuSans-75" transform="translate(584.423828 0)"/>
      <use xlink:href="#DejaVuSans-6c" transform="translate(647.802734 0)"/>
      <use xlink:href="#DejaVuSans-65" transform="translate(675.585938 0)"/>
      <use xlink:href="#DejaVuSans-46" transform="translate(737.109375 0)"/>
      <use xlink:href="#DejaVuSans-72" transform="translate(787.378906 0)"/>
      <use xlink:href="#DejaVuSans-65" transform="translate(826.242188 0)"/>
      <use xlink:href="#DejaVuSans-65" transform="translate(887.765625 0)"/>
     </g>
    </g>
    <g id="line2d_38">
     <path d="M 499.951063 66.788143 
L 508.451063 66.788143 
L 516.951063 66.788143 
" style="fill: none; stroke-dasharray: 4.625,2; stroke-dashoffset: 0; stroke: #8c564b; stroke-opacity: 0.96; stroke-width: 1.25"/>
    </g>
    <g id="text_22">
     <!-- SiLU+ScheduleFree -->
     <g transform="translate(522.391063 69.168143) scale(0.068 -0.068)">
      <defs>
       <path id="DejaVuSans-55" d="M 556 4666 
L 1191 4666 
L 1191 1831 
Q 1191 1081 1462 751 
Q 1734 422 2344 422 
Q 2950 422 3222 751 
Q 3494 1081 3494 1831 
L 3494 4666 
L 4128 4666 
L 4128 1753 
Q 4128 841 3676 375 
Q 3225 -91 2344 -91 
Q 1459 -91 1007 375 
Q 556 841 556 1753 
L 556 4666 
z
" transform="scale(0.015625)"/>
      </defs>
      <use xlink:href="#DejaVuSans-53"/>
      <use xlink:href="#DejaVuSans-69" transform="translate(63.476562 0)"/>
      <use xlink:href="#DejaVuSans-4c" transform="translate(91.259766 0)"/>
      <use xlink:href="#DejaVuSans-55" transform="translate(141.972656 0)"/>
      <use xlink:href="#DejaVuSans-2b" transform="translate(215.166016 0)"/>
      <use xlink:href="#DejaVuSans-53" transform="translate(298.955078 0)"/>
      <use xlink:href="#DejaVuSans-63" transform="translate(362.431641 0)"/>
      <use xlink:href="#DejaVuSans-68" transform="translate(417.412109 0)"/>
      <use xlink:href="#DejaVuSans-65" transform="translate(480.791016 0)"/>
      <use xlink:href="#DejaVuSans-64" transform="translate(542.314453 0)"/>
      <use xlink:href="#DejaVuSans-75" transform="translate(605.791016 0)"/>
      <use xlink:href="#DejaVuSans-6c" transform="translate(669.169922 0)"/>
      <use xlink:href="#DejaVuSans-65" transform="translate(696.953125 0)"/>
      <use xlink:href="#DejaVuSans-46" transform="translate(758.476562 0)"/>
      <use xlink:href="#DejaVuSans-72" transform="translate(808.746094 0)"/>
      <use xlink:href="#DejaVuSans-65" transform="translate(847.609375 0)"/>
      <use xlink:href="#DejaVuSans-65" transform="translate(909.132812 0)"/>
     </g>
    </g>
    <g id="line2d_39">
     <path d="M 593.838876 48.865893 
L 602.338876 48.865893 
L 610.838876 48.865893 
" style="fill: none; stroke: #17becf; stroke-opacity: 0.96; stroke-width: 1.25; stroke-linecap: square"/>
    </g>
    <g id="text_23">
     <!-- RLB+CAME -->
     <g transform="translate(616.278876 51.245893) scale(0.068 -0.068)">
      <defs>
       <path id="DejaVuSans-41" d="M 2188 4044 
L 1331 1722 
L 3047 1722 
L 2188 4044 
z
M 1831 4666 
L 2547 4666 
L 4325 0 
L 3669 0 
L 3244 1197 
L 1141 1197 
L 716 0 
L 50 0 
L 1831 4666 
z
" transform="scale(0.015625)"/>
      </defs>
      <use xlink:href="#DejaVuSans-52"/>
      <use xlink:href="#DejaVuSans-4c" transform="translate(69.482422 0)"/>
      <use xlink:href="#DejaVuSans-42" transform="translate(125.195312 0)"/>
      <use xlink:href="#DejaVuSans-2b" transform="translate(193.798828 0)"/>
      <use xlink:href="#DejaVuSans-43" transform="translate(277.587891 0)"/>
      <use xlink:href="#DejaVuSans-41" transform="translate(347.412109 0)"/>
      <use xlink:href="#DejaVuSans-4d" transform="translate(415.820312 0)"/>
      <use xlink:href="#DejaVuSans-45" transform="translate(502.099609 0)"/>
     </g>
    </g>
    <g id="line2d_40">
     <path d="M 593.838876 57.827018 
L 602.338876 57.827018 
L 610.838876 57.827018 
" style="fill: none; stroke-dasharray: 4.625,2; stroke-dashoffset: 0; stroke: #17becf; stroke-opacity: 0.96; stroke-width: 1.25"/>
    </g>
    <g id="text_24">
     <!-- SiLU+CAME -->
     <g transform="translate(616.278876 60.207018) scale(0.068 -0.068)">
      <use xlink:href="#DejaVuSans-53"/>
      <use xlink:href="#DejaVuSans-69" transform="translate(63.476562 0)"/>
      <use xlink:href="#DejaVuSans-4c" transform="translate(91.259766 0)"/>
      <use xlink:href="#DejaVuSans-55" transform="translate(141.972656 0)"/>
      <use xlink:href="#DejaVuSans-2b" transform="translate(215.166016 0)"/>
      <use xlink:href="#DejaVuSans-43" transform="translate(298.955078 0)"/>
      <use xlink:href="#DejaVuSans-41" transform="translate(368.779297 0)"/>
      <use xlink:href="#DejaVuSans-4d" transform="translate(437.1875 0)"/>
      <use xlink:href="#DejaVuSans-45" transform="translate(523.466797 0)"/>
     </g>
    </g>
   </g>
  </g>
 </g>
 <defs>
  <clipPath id="p6623cb806b">
   <rect x="54.007143" y="29.057143" width="609.64542" height="318.4"/>
  </clipPath>
 </defs>
</svg>
